<?xml version="1.0" encoding="utf-8"?>
<svg xmlns="http://www.w3.org/2000/svg" xmlns:xlink="http://www.w3.org/1999/xlink" width="800" height="300" viewBox="0 0 3200 1200">
<defs>
  <clipPath id="clip960">
    <rect x="0" y="0" width="3200" height="1200"/>
  </clipPath>
</defs>
<path clip-path="url(#clip960)" d="M0 1200 L3200 1200 L3200 0 L0 0  Z" fill="#ffffff" fill-rule="evenodd" fill-opacity="1"/>
<defs>
  <clipPath id="clip961">
    <rect x="640" y="0" width="2241" height="1200"/>
  </clipPath>
</defs>
<path clip-path="url(#clip960)" d="M47.2441 1152.76 L1552.76 1152.76 L1552.76 62.9921 L47.2441 62.9921  Z" fill="#ffffff" fill-rule="evenodd" fill-opacity="1"/>
<defs>
  <clipPath id="clip962">
    <rect x="47" y="62" width="1507" height="1091"/>
  </clipPath>
</defs>
<polyline clip-path="url(#clip960)" style="stroke:#000000; stroke-linecap:round; stroke-linejoin:round; stroke-width:4; stroke-opacity:1; fill:none" points="47.2441,1152.76 1552.76,1152.76 "/>
<polyline clip-path="url(#clip960)" style="stroke:#000000; stroke-linecap:round; stroke-linejoin:round; stroke-width:4; stroke-opacity:1; fill:none" points="47.2441,62.9921 1552.76,62.9921 "/>
<polyline clip-path="url(#clip960)" style="stroke:#000000; stroke-linecap:round; stroke-linejoin:round; stroke-width:4; stroke-opacity:1; fill:none" points="47.2441,1152.76 47.2441,62.9921 "/>
<polyline clip-path="url(#clip960)" style="stroke:#000000; stroke-linecap:round; stroke-linejoin:round; stroke-width:4; stroke-opacity:1; fill:none" points="1552.76,1152.76 1552.76,62.9921 "/>
<path clip-path="url(#clip960)" d="M710.252 65.6895 L738.811 65.6895 L738.811 72.576 L700.409 72.576 L700.409 65.6895 Q705.067 60.8689 713.088 52.7671 Q721.149 44.6248 723.215 42.2752 Q727.144 37.8598 728.684 34.8216 Q730.264 31.7429 730.264 28.7857 Q730.264 23.9651 726.861 20.927 Q723.499 17.8888 718.07 17.8888 Q714.222 17.8888 709.928 19.2256 Q705.675 20.5624 700.814 23.2765 L700.814 15.0127 Q705.756 13.0277 710.05 12.015 Q714.344 11.0023 717.908 11.0023 Q727.307 11.0023 732.897 15.7013 Q738.487 20.4004 738.487 28.2591 Q738.487 31.9859 737.069 35.3482 Q735.692 38.6699 732.006 43.2069 Q730.993 44.3817 725.565 50.0125 Q720.136 55.6027 710.252 65.6895 Z" fill="#000000" fill-rule="nonzero" fill-opacity="1" /><path clip-path="url(#clip960)" d="M799.858 43.8551 Q794.025 43.8551 790.663 46.9743 Q787.341 50.0935 787.341 55.5622 Q787.341 61.0309 790.663 64.1501 Q794.025 67.2693 799.858 67.2693 Q805.692 67.2693 809.054 64.1501 Q812.416 60.9904 812.416 55.5622 Q812.416 50.0935 809.054 46.9743 Q805.732 43.8551 799.858 43.8551 M791.675 40.3713 Q786.409 39.075 783.452 35.4697 Q780.535 31.8644 780.535 26.6793 Q780.535 19.4281 785.68 15.2152 Q790.865 11.0023 799.858 11.0023 Q808.892 11.0023 814.036 15.2152 Q819.181 19.4281 819.181 26.6793 Q819.181 31.8644 816.224 35.4697 Q813.307 39.075 808.082 40.3713 Q813.996 41.7486 817.277 45.759 Q820.599 49.7694 820.599 55.5622 Q820.599 64.3527 815.211 69.0517 Q809.864 73.7508 799.858 73.7508 Q789.852 73.7508 784.465 69.0517 Q779.118 64.3527 779.118 55.5622 Q779.118 49.7694 782.439 45.759 Q785.761 41.7486 791.675 40.3713 M788.678 27.4489 Q788.678 32.148 791.594 34.7811 Q794.552 37.4142 799.858 37.4142 Q805.124 37.4142 808.082 34.7811 Q811.079 32.148 811.079 27.4489 Q811.079 22.7499 808.082 20.1168 Q805.124 17.4837 799.858 17.4837 Q794.552 17.4837 791.594 20.1168 Q788.678 22.7499 788.678 27.4489 Z" fill="#000000" fill-rule="nonzero" fill-opacity="1" /><path clip-path="url(#clip960)" d="M861.756 71.3202 L861.756 63.8666 Q864.835 65.3249 867.994 66.0946 Q871.154 66.8642 874.192 66.8642 Q882.294 66.8642 886.548 61.436 Q890.842 55.9673 891.449 44.8678 Q889.1 48.3516 885.494 50.215 Q881.889 52.0784 877.514 52.0784 Q868.44 52.0784 863.133 46.6097 Q857.867 41.1005 857.867 31.5808 Q857.867 22.2638 863.376 16.633 Q868.886 11.0023 878.041 11.0023 Q888.533 11.0023 894.042 19.0636 Q899.591 27.0843 899.591 42.3968 Q899.591 56.6965 892.786 65.2439 Q886.021 73.7508 874.557 73.7508 Q871.478 73.7508 868.318 73.1431 Q865.159 72.5355 861.756 71.3202 M878.041 45.678 Q883.55 45.678 886.75 41.9107 Q889.991 38.1433 889.991 31.5808 Q889.991 25.0589 886.75 21.2916 Q883.55 17.4837 878.041 17.4837 Q872.531 17.4837 869.291 21.2916 Q866.091 25.0589 866.091 31.5808 Q866.091 38.1433 869.291 41.9107 Q872.531 45.678 878.041 45.678 Z" fill="#000000" fill-rule="nonzero" fill-opacity="1" /><path clip-path="url(#clip962)" d="M1251.65 591.728 L901.542 280.945 L397.014 286.808 L348.346 287.379 L454.749 383.37 L1120.92 876.576 L1202.48 934.579 L1220.16 934.803 L1251.65 591.728  Z" fill="#cae1ff" fill-rule="evenodd" fill-opacity="0.5"/>
<polyline clip-path="url(#clip962)" style="stroke:#4682b4; stroke-linecap:round; stroke-linejoin:round; stroke-width:8; stroke-opacity:1; fill:none" points="1251.65,591.728 901.542,280.945 397.014,286.808 348.346,287.379 454.749,383.37 1120.92,876.576 1202.48,934.579 1220.16,934.803 1251.65,591.728 "/>
<circle clip-path="url(#clip962)" cx="1251.65" cy="591.728" r="18" fill="#4682b4" fill-rule="evenodd" fill-opacity="1" stroke="none"/>
<circle clip-path="url(#clip962)" cx="901.542" cy="280.945" r="18" fill="#4682b4" fill-rule="evenodd" fill-opacity="1" stroke="none"/>
<circle clip-path="url(#clip962)" cx="397.014" cy="286.808" r="18" fill="#4682b4" fill-rule="evenodd" fill-opacity="1" stroke="none"/>
<circle clip-path="url(#clip962)" cx="348.346" cy="287.379" r="18" fill="#4682b4" fill-rule="evenodd" fill-opacity="1" stroke="none"/>
<circle clip-path="url(#clip962)" cx="454.749" cy="383.37" r="18" fill="#4682b4" fill-rule="evenodd" fill-opacity="1" stroke="none"/>
<circle clip-path="url(#clip962)" cx="1120.92" cy="876.576" r="18" fill="#4682b4" fill-rule="evenodd" fill-opacity="1" stroke="none"/>
<circle clip-path="url(#clip962)" cx="1202.48" cy="934.579" r="18" fill="#4682b4" fill-rule="evenodd" fill-opacity="1" stroke="none"/>
<circle clip-path="url(#clip962)" cx="1220.16" cy="934.803" r="18" fill="#4682b4" fill-rule="evenodd" fill-opacity="1" stroke="none"/>
<path clip-path="url(#clip960)" d="M1413.29 598.861 Q1409.36 598.861 1407.04 601.552 Q1404.76 604.243 1404.76 608.931 Q1404.76 613.589 1407.04 616.309 Q1409.36 619 1413.29 619 Q1417.23 619 1419.52 616.309 Q1421.83 613.589 1421.83 608.931 Q1421.83 604.243 1419.52 601.552 Q1417.23 598.861 1413.29 598.861 M1424.9 580.545 L1424.9 585.869 Q1422.7 584.828 1420.44 584.278 Q1418.21 583.728 1416.01 583.728 Q1410.23 583.728 1407.16 587.634 Q1404.12 591.541 1403.69 599.44 Q1405.39 596.923 1407.97 595.592 Q1410.55 594.232 1413.64 594.232 Q1420.15 594.232 1423.91 598.196 Q1427.7 602.131 1427.7 608.931 Q1427.7 615.586 1423.77 619.608 Q1419.83 623.63 1413.29 623.63 Q1405.8 623.63 1401.84 617.901 Q1397.87 612.142 1397.87 601.234 Q1397.87 590.991 1402.73 584.915 Q1407.59 578.809 1415.78 578.809 Q1417.98 578.809 1420.21 579.243 Q1422.47 579.677 1424.9 580.545 Z" fill="#000000" fill-rule="nonzero" fill-opacity="1" /><path clip-path="url(#clip960)" d="M1453.83 584.683 L1439.08 607.744 L1453.83 607.744 L1453.83 584.683 M1452.3 579.591 L1459.65 579.591 L1459.65 607.744 L1465.81 607.744 L1465.81 612.605 L1459.65 612.605 L1459.65 622.791 L1453.83 622.791 L1453.83 612.605 L1434.33 612.605 L1434.33 606.963 L1452.3 579.591 Z" fill="#000000" fill-rule="nonzero" fill-opacity="1" /><path clip-path="url(#clip960)" d="M868.039 167.434 L877.588 167.434 L877.588 134.477 L867.2 136.56 L867.2 131.236 L877.53 129.153 L883.375 129.153 L883.375 167.434 L892.923 167.434 L892.923 172.353 L868.039 172.353 L868.039 167.434 Z" fill="#000000" fill-rule="nonzero" fill-opacity="1" /><path clip-path="url(#clip960)" d="M917.229 133.001 Q912.715 133.001 910.429 137.457 Q908.172 141.884 908.172 150.796 Q908.172 159.679 910.429 164.135 Q912.715 168.562 917.229 168.562 Q921.772 168.562 924.028 164.135 Q926.314 159.679 926.314 150.796 Q926.314 141.884 924.028 137.457 Q921.772 133.001 917.229 133.001 M917.229 128.371 Q924.491 128.371 928.311 134.13 Q932.159 139.859 932.159 150.796 Q932.159 161.705 928.311 167.463 Q924.491 173.192 917.229 173.192 Q909.966 173.192 906.118 167.463 Q902.298 161.705 902.298 150.796 Q902.298 139.859 906.118 134.13 Q909.966 128.371 917.229 128.371 Z" fill="#000000" fill-rule="nonzero" fill-opacity="1" /><path clip-path="url(#clip960)" d="M954.931 133.001 Q950.417 133.001 948.131 137.457 Q945.874 141.884 945.874 150.796 Q945.874 159.679 948.131 164.135 Q950.417 168.562 954.931 168.562 Q959.474 168.562 961.731 164.135 Q964.017 159.679 964.017 150.796 Q964.017 141.884 961.731 137.457 Q959.474 133.001 954.931 133.001 M954.931 128.371 Q962.194 128.371 966.013 134.13 Q969.862 139.859 969.862 150.796 Q969.862 161.705 966.013 167.463 Q962.194 173.192 954.931 173.192 Q947.668 173.192 943.82 167.463 Q940.001 161.705 940.001 150.796 Q940.001 139.859 943.82 134.13 Q947.668 128.371 954.931 128.371 Z" fill="#000000" fill-rule="nonzero" fill-opacity="1" /><path clip-path="url(#clip960)" d="M230.167 221.144 L230.167 215.82 Q232.366 216.862 234.623 217.412 Q236.879 217.961 239.05 217.961 Q244.837 217.961 247.875 214.084 Q250.942 210.178 251.376 202.25 Q249.698 204.738 247.122 206.069 Q244.547 207.4 241.422 207.4 Q234.941 207.4 231.15 203.494 Q227.389 199.559 227.389 192.759 Q227.389 186.104 231.324 182.082 Q235.259 178.06 241.798 178.06 Q249.293 178.06 253.228 183.818 Q257.192 189.547 257.192 200.485 Q257.192 210.699 252.331 216.804 Q247.499 222.88 239.31 222.88 Q237.111 222.88 234.854 222.446 Q232.597 222.012 230.167 221.144 M241.798 202.828 Q245.734 202.828 248.019 200.137 Q250.334 197.446 250.334 192.759 Q250.334 188.1 248.019 185.409 Q245.734 182.69 241.798 182.69 Q237.863 182.69 235.548 185.409 Q233.263 188.1 233.263 192.759 Q233.263 197.446 235.548 200.137 Q237.863 202.828 241.798 202.828 Z" fill="#000000" fill-rule="nonzero" fill-opacity="1" /><path clip-path="url(#clip960)" d="M280.919 198.112 Q276.983 198.112 274.669 200.803 Q272.383 203.494 272.383 208.181 Q272.383 212.84 274.669 215.56 Q276.983 218.251 280.919 218.251 Q284.854 218.251 287.14 215.56 Q289.454 212.84 289.454 208.181 Q289.454 203.494 287.14 200.803 Q284.854 198.112 280.919 198.112 M292.522 179.796 L292.522 185.12 Q290.322 184.078 288.066 183.529 Q285.838 182.979 283.638 182.979 Q277.851 182.979 274.784 186.885 Q271.746 190.791 271.312 198.691 Q273.019 196.173 275.595 194.842 Q278.17 193.482 281.266 193.482 Q287.776 193.482 291.538 197.446 Q295.328 201.382 295.328 208.181 Q295.328 214.836 291.393 218.858 Q287.458 222.88 280.919 222.88 Q273.424 222.88 269.46 217.151 Q265.496 211.393 265.496 200.485 Q265.496 190.242 270.357 184.165 Q275.218 178.06 283.407 178.06 Q285.606 178.06 287.834 178.494 Q290.091 178.928 292.522 179.796 Z" fill="#000000" fill-rule="nonzero" fill-opacity="1" /><path clip-path="url(#clip960)" d="M176.436 226.725 L176.436 221.401 Q178.635 222.443 180.892 222.992 Q183.149 223.542 185.319 223.542 Q191.106 223.542 194.144 219.665 Q197.211 215.759 197.645 207.83 Q195.967 210.319 193.392 211.65 Q190.816 212.981 187.691 212.981 Q181.21 212.981 177.42 209.075 Q173.658 205.14 173.658 198.34 Q173.658 191.685 177.593 187.663 Q181.528 183.641 188.068 183.641 Q195.562 183.641 199.497 189.399 Q203.461 195.128 203.461 206.065 Q203.461 216.28 198.6 222.385 Q193.768 228.461 185.579 228.461 Q183.38 228.461 181.123 228.027 Q178.866 227.593 176.436 226.725 M188.068 208.409 Q192.003 208.409 194.289 205.718 Q196.603 203.027 196.603 198.34 Q196.603 193.681 194.289 190.99 Q192.003 188.27 188.068 188.27 Q184.132 188.27 181.818 190.99 Q179.532 193.681 179.532 198.34 Q179.532 203.027 181.818 205.718 Q184.132 208.409 188.068 208.409 Z" fill="#000000" fill-rule="nonzero" fill-opacity="1" /><path clip-path="url(#clip960)" d="M214.022 184.422 L236.968 184.422 L236.968 189.341 L219.375 189.341 L219.375 199.931 Q220.648 199.497 221.922 199.295 Q223.195 199.063 224.468 199.063 Q231.702 199.063 235.926 203.027 Q240.151 206.991 240.151 213.762 Q240.151 220.735 235.81 224.613 Q231.47 228.461 223.571 228.461 Q220.851 228.461 218.015 227.998 Q215.209 227.535 212.199 226.609 L212.199 220.735 Q214.804 222.153 217.581 222.848 Q220.359 223.542 223.455 223.542 Q228.461 223.542 231.383 220.909 Q234.306 218.276 234.306 213.762 Q234.306 209.248 231.383 206.615 Q228.461 203.982 223.455 203.982 Q221.111 203.982 218.768 204.503 Q216.453 205.024 214.022 206.123 L214.022 184.422 Z" fill="#000000" fill-rule="nonzero" fill-opacity="1" /><path clip-path="url(#clip960)" d="M273.17 331.719 L273.17 326.395 Q275.369 327.436 277.626 327.986 Q279.882 328.536 282.053 328.536 Q287.84 328.536 290.878 324.658 Q293.945 320.752 294.379 312.824 Q292.701 315.312 290.125 316.643 Q287.55 317.974 284.425 317.974 Q277.944 317.974 274.153 314.068 Q270.392 310.133 270.392 303.333 Q270.392 296.678 274.327 292.656 Q278.262 288.634 284.801 288.634 Q292.296 288.634 296.231 294.392 Q300.195 300.122 300.195 311.059 Q300.195 321.273 295.334 327.378 Q290.502 333.455 282.313 333.455 Q280.114 333.455 277.857 333.021 Q275.6 332.587 273.17 331.719 M284.801 313.403 Q288.737 313.403 291.022 310.712 Q293.337 308.021 293.337 303.333 Q293.337 298.675 291.022 295.984 Q288.737 293.264 284.801 293.264 Q280.866 293.264 278.551 295.984 Q276.266 298.675 276.266 303.333 Q276.266 308.021 278.551 310.712 Q280.866 313.403 284.801 313.403 Z" fill="#000000" fill-rule="nonzero" fill-opacity="1" /><path clip-path="url(#clip960)" d="M323.198 293.264 Q318.684 293.264 316.398 297.72 Q314.142 302.147 314.142 311.059 Q314.142 319.942 316.398 324.398 Q318.684 328.825 323.198 328.825 Q327.741 328.825 329.998 324.398 Q332.284 319.942 332.284 311.059 Q332.284 302.147 329.998 297.72 Q327.741 293.264 323.198 293.264 M323.198 288.634 Q330.461 288.634 334.28 294.392 Q338.129 300.122 338.129 311.059 Q338.129 321.967 334.28 327.726 Q330.461 333.455 323.198 333.455 Q315.936 333.455 312.087 327.726 Q308.268 321.967 308.268 311.059 Q308.268 300.122 312.087 294.392 Q315.936 288.634 323.198 288.634 Z" fill="#000000" fill-rule="nonzero" fill-opacity="1" /><path clip-path="url(#clip960)" d="M1163.52 1005.76 L1173.07 1005.76 L1173.07 972.806 L1162.68 974.889 L1162.68 969.565 L1173.01 967.482 L1178.85 967.482 L1178.85 1005.76 L1188.4 1005.76 L1188.4 1010.68 L1163.52 1010.68 L1163.52 1005.76 Z" fill="#000000" fill-rule="nonzero" fill-opacity="1" /><path clip-path="url(#clip960)" d="M1212.71 971.33 Q1208.19 971.33 1205.91 975.786 Q1203.65 980.213 1203.65 989.125 Q1203.65 998.008 1205.91 1002.46 Q1208.19 1006.89 1212.71 1006.89 Q1217.25 1006.89 1219.51 1002.46 Q1221.79 998.008 1221.79 989.125 Q1221.79 980.213 1219.51 975.786 Q1217.25 971.33 1212.71 971.33 M1212.71 966.7 Q1219.97 966.7 1223.79 972.458 Q1227.64 978.188 1227.64 989.125 Q1227.64 1000.03 1223.79 1005.79 Q1219.97 1011.52 1212.71 1011.52 Q1205.44 1011.52 1201.6 1005.79 Q1197.78 1000.03 1197.78 989.125 Q1197.78 978.188 1201.6 972.458 Q1205.44 966.7 1212.71 966.7 Z" fill="#000000" fill-rule="nonzero" fill-opacity="1" /><path clip-path="url(#clip960)" d="M1242.94 1005.76 L1263.34 1005.76 L1263.34 1010.68 L1235.91 1010.68 L1235.91 1005.76 Q1239.24 1002.32 1244.97 996.532 Q1250.73 990.716 1252.2 989.038 Q1255.01 985.884 1256.11 983.714 Q1257.24 981.515 1257.24 979.403 Q1257.24 975.96 1254.81 973.789 Q1252.41 971.619 1248.53 971.619 Q1245.78 971.619 1242.71 972.574 Q1239.67 973.529 1236.2 975.468 L1236.2 969.565 Q1239.73 968.147 1242.8 967.424 Q1245.87 966.7 1248.41 966.7 Q1255.13 966.7 1259.12 970.057 Q1263.11 973.413 1263.11 979.027 Q1263.11 981.689 1262.1 984.09 Q1261.12 986.463 1258.48 989.704 Q1257.76 990.543 1253.88 994.565 Q1250 998.558 1242.94 1005.76 Z" fill="#000000" fill-rule="nonzero" fill-opacity="1" /><path clip-path="url(#clip960)" d="M1251.55 1060.68 L1261.1 1060.68 L1261.1 1027.72 L1250.71 1029.8 L1250.71 1024.48 L1261.04 1022.4 L1266.89 1022.4 L1266.89 1060.68 L1276.44 1060.68 L1276.44 1065.6 L1251.55 1065.6 L1251.55 1060.68 Z" fill="#000000" fill-rule="nonzero" fill-opacity="1" /><path clip-path="url(#clip960)" d="M1300.74 1026.24 Q1296.23 1026.24 1293.94 1030.7 Q1291.69 1035.13 1291.69 1044.04 Q1291.69 1052.92 1293.94 1057.38 Q1296.23 1061.8 1300.74 1061.8 Q1305.29 1061.8 1307.54 1057.38 Q1309.83 1052.92 1309.83 1044.04 Q1309.83 1035.13 1307.54 1030.7 Q1305.29 1026.24 1300.74 1026.24 M1300.74 1021.61 Q1308.01 1021.61 1311.82 1027.37 Q1315.67 1033.1 1315.67 1044.04 Q1315.67 1054.95 1311.82 1060.7 Q1308.01 1066.43 1300.74 1066.43 Q1293.48 1066.43 1289.63 1060.7 Q1285.81 1054.95 1285.81 1044.04 Q1285.81 1033.1 1289.63 1027.37 Q1293.48 1021.61 1300.74 1021.61 Z" fill="#000000" fill-rule="nonzero" fill-opacity="1" /><path clip-path="url(#clip960)" d="M1326 1022.4 L1348.95 1022.4 L1348.95 1027.31 L1331.36 1027.31 L1331.36 1037.9 Q1332.63 1037.47 1333.9 1037.27 Q1335.18 1037.04 1336.45 1037.04 Q1343.68 1037.04 1347.91 1041 Q1352.13 1044.96 1352.13 1051.74 Q1352.13 1058.71 1347.79 1062.59 Q1343.45 1066.43 1335.55 1066.43 Q1332.83 1066.43 1330 1065.97 Q1327.19 1065.51 1324.18 1064.58 L1324.18 1058.71 Q1326.78 1060.13 1329.56 1060.82 Q1332.34 1061.52 1335.44 1061.52 Q1340.44 1061.52 1343.36 1058.88 Q1346.29 1056.25 1346.29 1051.74 Q1346.29 1047.22 1343.36 1044.59 Q1340.44 1041.96 1335.44 1041.96 Q1333.09 1041.96 1330.75 1042.48 Q1328.43 1043 1326 1044.1 L1326 1022.4 Z" fill="#000000" fill-rule="nonzero" fill-opacity="1" /><path clip-path="url(#clip960)" d="M1271.98 1059.21 L1281.53 1059.21 L1281.53 1026.26 L1271.14 1028.34 L1271.14 1023.02 L1281.47 1020.93 L1287.32 1020.93 L1287.32 1059.21 L1296.87 1059.21 L1296.87 1064.13 L1271.98 1064.13 L1271.98 1059.21 Z" fill="#000000" fill-rule="nonzero" fill-opacity="1" /><path clip-path="url(#clip960)" d="M1321.17 1024.78 Q1316.66 1024.78 1314.37 1029.24 Q1312.12 1033.66 1312.12 1042.58 Q1312.12 1051.46 1314.37 1055.91 Q1316.66 1060.34 1321.17 1060.34 Q1325.72 1060.34 1327.97 1055.91 Q1330.26 1051.46 1330.26 1042.58 Q1330.26 1033.66 1327.97 1029.24 Q1325.72 1024.78 1321.17 1024.78 M1321.17 1020.15 Q1328.44 1020.15 1332.26 1025.91 Q1336.1 1031.64 1336.1 1042.58 Q1336.1 1053.48 1332.26 1059.24 Q1328.44 1064.97 1321.17 1064.97 Q1313.91 1064.97 1310.06 1059.24 Q1306.24 1053.48 1306.24 1042.58 Q1306.24 1031.64 1310.06 1025.91 Q1313.91 1020.15 1321.17 1020.15 Z" fill="#000000" fill-rule="nonzero" fill-opacity="1" /><path clip-path="url(#clip960)" d="M1359.6 1040.2 Q1355.66 1040.2 1353.35 1042.89 Q1351.06 1045.58 1351.06 1050.27 Q1351.06 1054.93 1353.35 1057.65 Q1355.66 1060.34 1359.6 1060.34 Q1363.53 1060.34 1365.82 1057.65 Q1368.13 1054.93 1368.13 1050.27 Q1368.13 1045.58 1365.82 1042.89 Q1363.53 1040.2 1359.6 1040.2 M1371.2 1021.89 L1371.2 1027.21 Q1369 1026.17 1366.75 1025.62 Q1364.52 1025.07 1362.32 1025.07 Q1356.53 1025.07 1353.46 1028.98 Q1350.43 1032.88 1349.99 1040.78 Q1351.7 1038.26 1354.27 1036.93 Q1356.85 1035.57 1359.95 1035.57 Q1366.46 1035.57 1370.22 1039.54 Q1374.01 1043.47 1374.01 1050.27 Q1374.01 1056.93 1370.07 1060.95 Q1366.14 1064.97 1359.6 1064.97 Q1352.1 1064.97 1348.14 1059.24 Q1344.18 1053.48 1344.18 1042.58 Q1344.18 1032.33 1349.04 1026.26 Q1353.9 1020.15 1362.09 1020.15 Q1364.29 1020.15 1366.51 1020.59 Q1368.77 1021.02 1371.2 1021.89 Z" fill="#000000" fill-rule="nonzero" fill-opacity="1" /><path clip-path="url(#clip960)" d="M1084.76 429.56 L1092.4 429.56 L1092.4 403.194 L1084.09 404.861 L1084.09 400.601 L1092.35 398.935 L1097.03 398.935 L1097.03 429.56 L1104.67 429.56 L1104.67 433.495 L1084.76 433.495 L1084.76 429.56 Z" fill="#000000" fill-rule="nonzero" fill-opacity="1" /><path clip-path="url(#clip960)" d="M1114.92 429.56 L1122.56 429.56 L1122.56 403.194 L1114.25 404.861 L1114.25 400.601 L1122.52 398.935 L1127.19 398.935 L1127.19 429.56 L1134.83 429.56 L1134.83 433.495 L1114.92 433.495 L1114.92 429.56 Z" fill="#000000" fill-rule="nonzero" fill-opacity="1" /><path clip-path="url(#clip960)" d="M604.512 261.128 L612.151 261.128 L612.151 234.762 L603.841 236.429 L603.841 232.17 L612.104 230.503 L616.78 230.503 L616.78 261.128 L624.419 261.128 L624.419 265.063 L604.512 265.063 L604.512 261.128 Z" fill="#000000" fill-rule="nonzero" fill-opacity="1" /><path clip-path="url(#clip960)" d="M648.03 246.429 Q651.387 247.147 653.262 249.415 Q655.16 251.684 655.16 255.017 Q655.16 260.133 651.641 262.934 Q648.123 265.734 641.641 265.734 Q639.465 265.734 637.151 265.295 Q634.859 264.878 632.405 264.022 L632.405 259.508 Q634.35 260.642 636.664 261.221 Q638.979 261.799 641.502 261.799 Q645.9 261.799 648.192 260.063 Q650.507 258.327 650.507 255.017 Q650.507 251.961 648.354 250.248 Q646.225 248.512 642.405 248.512 L638.377 248.512 L638.377 244.67 L642.59 244.67 Q646.039 244.67 647.868 243.304 Q649.697 241.915 649.697 239.323 Q649.697 236.661 647.799 235.249 Q645.924 233.813 642.405 233.813 Q640.484 233.813 638.285 234.23 Q636.086 234.647 633.447 235.526 L633.447 231.36 Q636.109 230.619 638.424 230.249 Q640.762 229.878 642.822 229.878 Q648.146 229.878 651.248 232.309 Q654.349 234.716 654.349 238.836 Q654.349 241.707 652.706 243.698 Q651.062 245.665 648.03 246.429 Z" fill="#000000" fill-rule="nonzero" fill-opacity="1" /><path clip-path="url(#clip960)" d="M306.069 272.484 L322.388 272.484 L322.388 276.42 L300.444 276.42 L300.444 272.484 Q303.106 269.73 307.689 265.1 Q312.296 260.447 313.476 259.105 Q315.722 256.582 316.601 254.846 Q317.504 253.086 317.504 251.396 Q317.504 248.642 315.56 246.906 Q313.638 245.17 310.537 245.17 Q308.338 245.17 305.884 245.934 Q303.453 246.697 300.676 248.248 L300.676 243.526 Q303.5 242.392 305.953 241.813 Q308.407 241.235 310.444 241.235 Q315.814 241.235 319.009 243.92 Q322.203 246.605 322.203 251.096 Q322.203 253.225 321.393 255.146 Q320.606 257.045 318.5 259.637 Q317.921 260.308 314.819 263.526 Q311.717 266.72 306.069 272.484 Z" fill="#000000" fill-rule="nonzero" fill-opacity="1" /><path clip-path="url(#clip960)" d="M336.231 272.484 L352.55 272.484 L352.55 276.42 L330.606 276.42 L330.606 272.484 Q333.268 269.73 337.851 265.1 Q342.458 260.447 343.638 259.105 Q345.884 256.582 346.763 254.846 Q347.666 253.086 347.666 251.396 Q347.666 248.642 345.722 246.906 Q343.8 245.17 340.699 245.17 Q338.499 245.17 336.046 245.934 Q333.615 246.697 330.837 248.248 L330.837 243.526 Q333.662 242.392 336.115 241.813 Q338.569 241.235 340.606 241.235 Q345.976 241.235 349.171 243.92 Q352.365 246.605 352.365 251.096 Q352.365 253.225 351.555 255.146 Q350.768 257.045 348.661 259.637 Q348.083 260.308 344.981 263.526 Q341.879 266.72 336.231 272.484 Z" fill="#000000" fill-rule="nonzero" fill-opacity="1" /><path clip-path="url(#clip960)" d="M327.627 323.101 L335.265 323.101 L335.265 296.735 L326.955 298.402 L326.955 294.143 L335.219 292.476 L339.895 292.476 L339.895 323.101 L347.534 323.101 L347.534 327.036 L327.627 327.036 L327.627 323.101 Z" fill="#000000" fill-rule="nonzero" fill-opacity="1" /><path clip-path="url(#clip960)" d="M366.978 310.624 Q363.645 310.624 361.724 312.407 Q359.825 314.189 359.825 317.314 Q359.825 320.439 361.724 322.221 Q363.645 324.004 366.978 324.004 Q370.311 324.004 372.233 322.221 Q374.154 320.416 374.154 317.314 Q374.154 314.189 372.233 312.407 Q370.335 310.624 366.978 310.624 M362.302 308.633 Q359.293 307.893 357.603 305.833 Q355.937 303.772 355.937 300.809 Q355.937 296.666 358.876 294.259 Q361.839 291.851 366.978 291.851 Q372.14 291.851 375.08 294.259 Q378.02 296.666 378.02 300.809 Q378.02 303.772 376.33 305.833 Q374.663 307.893 371.677 308.633 Q375.057 309.42 376.932 311.712 Q378.83 314.004 378.83 317.314 Q378.83 322.337 375.751 325.022 Q372.696 327.707 366.978 327.707 Q361.261 327.707 358.182 325.022 Q355.126 322.337 355.126 317.314 Q355.126 314.004 357.025 311.712 Q358.923 309.42 362.302 308.633 M360.589 301.249 Q360.589 303.934 362.256 305.439 Q363.946 306.944 366.978 306.944 Q369.987 306.944 371.677 305.439 Q373.39 303.934 373.39 301.249 Q373.39 298.564 371.677 297.059 Q369.987 295.555 366.978 295.555 Q363.946 295.555 362.256 297.059 Q360.589 298.564 360.589 301.249 Z" fill="#000000" fill-rule="nonzero" fill-opacity="1" /><path clip-path="url(#clip960)" d="M752.708 650.01 L760.347 650.01 L760.347 623.644 L752.036 625.311 L752.036 621.051 L760.3 619.385 L764.976 619.385 L764.976 650.01 L772.615 650.01 L772.615 653.945 L752.708 653.945 L752.708 650.01 Z" fill="#000000" fill-rule="nonzero" fill-opacity="1" /><path clip-path="url(#clip960)" d="M792.638 634.801 Q789.49 634.801 787.638 636.954 Q785.809 639.107 785.809 642.857 Q785.809 646.584 787.638 648.76 Q789.49 650.912 792.638 650.912 Q795.786 650.912 797.615 648.76 Q799.467 646.584 799.467 642.857 Q799.467 639.107 797.615 636.954 Q795.786 634.801 792.638 634.801 M801.92 620.149 L801.92 624.408 Q800.161 623.575 798.356 623.135 Q796.573 622.695 794.814 622.695 Q790.184 622.695 787.731 625.82 Q785.3 628.945 784.953 635.264 Q786.319 633.25 788.379 632.186 Q790.439 631.098 792.916 631.098 Q798.124 631.098 801.133 634.269 Q804.166 637.417 804.166 642.857 Q804.166 648.181 801.018 651.399 Q797.87 654.616 792.638 654.616 Q786.643 654.616 783.471 650.033 Q780.3 645.426 780.3 636.7 Q780.3 628.505 784.189 623.644 Q788.078 618.76 794.629 618.76 Q796.388 618.76 798.17 619.107 Q799.976 619.454 801.92 620.149 Z" fill="#000000" fill-rule="nonzero" fill-opacity="1" /><path clip-path="url(#clip960)" d="M1172.31 955.909 L1188.63 955.909 L1188.63 959.844 L1166.69 959.844 L1166.69 955.909 Q1169.35 953.155 1173.93 948.525 Q1178.54 943.872 1179.72 942.53 Q1181.96 940.006 1182.84 938.27 Q1183.75 936.511 1183.75 934.821 Q1183.75 932.067 1181.8 930.331 Q1179.88 928.594 1176.78 928.594 Q1174.58 928.594 1172.13 929.358 Q1169.7 930.122 1166.92 931.673 L1166.92 926.951 Q1169.74 925.817 1172.2 925.238 Q1174.65 924.659 1176.69 924.659 Q1182.06 924.659 1185.25 927.344 Q1188.45 930.03 1188.45 934.52 Q1188.45 936.65 1187.64 938.571 Q1186.85 940.469 1184.74 943.062 Q1184.16 943.733 1181.06 946.951 Q1177.96 950.145 1172.31 955.909 Z" fill="#000000" fill-rule="nonzero" fill-opacity="1" /><path clip-path="url(#clip960)" d="M1208.45 928.363 Q1204.83 928.363 1203.01 931.928 Q1201.2 935.469 1201.2 942.599 Q1201.2 949.705 1203.01 953.27 Q1204.83 956.812 1208.45 956.812 Q1212.08 956.812 1213.89 953.27 Q1215.71 949.705 1215.71 942.599 Q1215.71 935.469 1213.89 931.928 Q1212.08 928.363 1208.45 928.363 M1208.45 924.659 Q1214.26 924.659 1217.31 929.266 Q1220.39 933.849 1220.39 942.599 Q1220.39 951.326 1217.31 955.932 Q1214.26 960.516 1208.45 960.516 Q1202.64 960.516 1199.56 955.932 Q1196.5 951.326 1196.5 942.599 Q1196.5 933.849 1199.56 929.266 Q1202.64 924.659 1208.45 924.659 Z" fill="#000000" fill-rule="nonzero" fill-opacity="1" /><path clip-path="url(#clip960)" d="M1219.32 984.227 L1226.96 984.227 L1226.96 957.861 L1218.65 959.528 L1218.65 955.269 L1226.92 953.602 L1231.59 953.602 L1231.59 984.227 L1239.23 984.227 L1239.23 988.162 L1219.32 988.162 L1219.32 984.227 Z" fill="#000000" fill-rule="nonzero" fill-opacity="1" /><path clip-path="url(#clip960)" d="M1261.52 957.676 L1249.72 976.125 L1261.52 976.125 L1261.52 957.676 M1260.3 953.602 L1266.18 953.602 L1266.18 976.125 L1271.11 976.125 L1271.11 980.014 L1266.18 980.014 L1266.18 988.162 L1261.52 988.162 L1261.52 980.014 L1245.92 980.014 L1245.92 975.5 L1260.3 953.602 Z" fill="#000000" fill-rule="nonzero" fill-opacity="1" /><path clip-path="url(#clip960)" d="M1257.7 796.142 L1265.33 796.142 L1265.33 769.777 L1257.02 771.443 L1257.02 767.184 L1265.29 765.518 L1269.96 765.518 L1269.96 796.142 L1277.6 796.142 L1277.6 800.078 L1257.7 800.078 L1257.7 796.142 Z" fill="#000000" fill-rule="nonzero" fill-opacity="1" /><path clip-path="url(#clip960)" d="M1297.05 768.596 Q1293.44 768.596 1291.61 772.161 Q1289.8 775.703 1289.8 782.832 Q1289.8 789.939 1291.61 793.503 Q1293.44 797.045 1297.05 797.045 Q1300.68 797.045 1302.49 793.503 Q1304.32 789.939 1304.32 782.832 Q1304.32 775.703 1302.49 772.161 Q1300.68 768.596 1297.05 768.596 M1297.05 764.893 Q1302.86 764.893 1305.91 769.499 Q1308.99 774.082 1308.99 782.832 Q1308.99 791.559 1305.91 796.165 Q1302.86 800.749 1297.05 800.749 Q1291.24 800.749 1288.16 796.165 Q1285.1 791.559 1285.1 782.832 Q1285.1 774.082 1288.16 769.499 Q1291.24 764.893 1297.05 764.893 Z" fill="#000000" fill-rule="nonzero" fill-opacity="1" /><path clip-path="url(#clip960)" d="M798.003 588.705 L818.402 588.705 L818.402 593.623 L790.971 593.623 L790.971 588.705 Q794.299 585.261 800.028 579.474 Q805.786 573.658 807.262 571.98 Q810.068 568.826 811.168 566.656 Q812.296 564.457 812.296 562.345 Q812.296 558.901 809.866 556.731 Q807.464 554.561 803.587 554.561 Q800.838 554.561 797.771 555.516 Q794.733 556.471 791.261 558.41 L791.261 552.507 Q794.791 551.089 797.858 550.366 Q800.925 549.642 803.471 549.642 Q810.184 549.642 814.177 552.999 Q818.17 556.355 818.17 561.969 Q818.17 564.631 817.158 567.032 Q816.174 569.405 813.541 572.646 Q812.817 573.485 808.94 577.507 Q805.063 581.5 798.003 588.705 Z" fill="#4682b4" fill-rule="nonzero" fill-opacity="1" /><path clip-path="url(#clip960)" d="M862.007 573.109 Q857.84 573.109 855.439 575.337 Q853.066 577.565 853.066 581.471 Q853.066 585.377 855.439 587.605 Q857.84 589.833 862.007 589.833 Q866.174 589.833 868.575 587.605 Q870.977 585.348 870.977 581.471 Q870.977 577.565 868.575 575.337 Q866.202 573.109 862.007 573.109 M856.162 570.62 Q852.4 569.694 850.288 567.119 Q848.205 564.544 848.205 560.84 Q848.205 555.661 851.88 552.651 Q855.583 549.642 862.007 549.642 Q868.459 549.642 872.134 552.651 Q875.809 555.661 875.809 560.84 Q875.809 564.544 873.697 567.119 Q871.613 569.694 867.881 570.62 Q872.105 571.604 874.449 574.468 Q876.822 577.333 876.822 581.471 Q876.822 587.75 872.973 591.106 Q869.154 594.463 862.007 594.463 Q854.86 594.463 851.012 591.106 Q847.192 587.75 847.192 581.471 Q847.192 577.333 849.565 574.468 Q851.937 571.604 856.162 570.62 M854.021 561.39 Q854.021 564.746 856.104 566.627 Q858.216 568.508 862.007 568.508 Q865.768 568.508 867.881 566.627 Q870.022 564.746 870.022 561.39 Q870.022 558.033 867.881 556.153 Q865.768 554.272 862.007 554.272 Q858.216 554.272 856.104 556.153 Q854.021 558.033 854.021 561.39 Z" fill="#4682b4" fill-rule="nonzero" fill-opacity="1" /><path clip-path="url(#clip960)" d="M906.22 592.726 L906.22 587.402 Q908.419 588.444 910.676 588.994 Q912.933 589.544 915.103 589.544 Q920.89 589.544 923.928 585.666 Q926.995 581.76 927.429 573.832 Q925.751 576.32 923.176 577.651 Q920.6 578.982 917.475 578.982 Q910.994 578.982 907.203 575.076 Q903.442 571.141 903.442 564.341 Q903.442 557.686 907.377 553.664 Q911.312 549.642 917.851 549.642 Q925.346 549.642 929.281 555.4 Q933.245 561.129 933.245 572.067 Q933.245 582.281 928.384 588.386 Q923.552 594.463 915.363 594.463 Q913.164 594.463 910.907 594.029 Q908.65 593.595 906.22 592.726 M917.851 574.411 Q921.787 574.411 924.073 571.72 Q926.387 569.029 926.387 564.341 Q926.387 559.683 924.073 556.992 Q921.787 554.272 917.851 554.272 Q913.916 554.272 911.602 556.992 Q909.316 559.683 909.316 564.341 Q909.316 569.029 911.602 571.72 Q913.916 574.411 917.851 574.411 Z" fill="#4682b4" fill-rule="nonzero" fill-opacity="1" /><path clip-path="url(#clip960)" d="M1647.24 1152.76 L3152.76 1152.76 L3152.76 62.9921 L1647.24 62.9921  Z" fill="#ffffff" fill-rule="evenodd" fill-opacity="1"/>
<defs>
  <clipPath id="clip963">
    <rect x="1647" y="62" width="1507" height="1091"/>
  </clipPath>
</defs>
<polyline clip-path="url(#clip960)" style="stroke:#000000; stroke-linecap:round; stroke-linejoin:round; stroke-width:4; stroke-opacity:1; fill:none" points="1647.24,1152.76 3152.76,1152.76 "/>
<polyline clip-path="url(#clip960)" style="stroke:#000000; stroke-linecap:round; stroke-linejoin:round; stroke-width:4; stroke-opacity:1; fill:none" points="1647.24,62.9921 3152.76,62.9921 "/>
<polyline clip-path="url(#clip960)" style="stroke:#000000; stroke-linecap:round; stroke-linejoin:round; stroke-width:4; stroke-opacity:1; fill:none" points="1647.24,1152.76 1647.24,62.9921 "/>
<polyline clip-path="url(#clip960)" style="stroke:#000000; stroke-linecap:round; stroke-linejoin:round; stroke-width:4; stroke-opacity:1; fill:none" points="3152.76,1152.76 3152.76,62.9921 "/>
<path clip-path="url(#clip960)" d="M2179.02 65.6895 L2207.58 65.6895 L2207.58 72.576 L2169.18 72.576 L2169.18 65.6895 Q2173.84 60.8689 2181.86 52.7671 Q2189.92 44.6248 2191.99 42.2752 Q2195.92 37.8598 2197.45 34.8216 Q2199.03 31.7429 2199.03 28.7857 Q2199.03 23.9651 2195.63 20.927 Q2192.27 17.8888 2186.84 17.8888 Q2182.99 17.8888 2178.7 19.2256 Q2174.45 20.5624 2169.58 23.2765 L2169.58 15.0127 Q2174.53 13.0277 2178.82 12.015 Q2183.11 11.0023 2186.68 11.0023 Q2196.08 11.0023 2201.67 15.7013 Q2207.26 20.4004 2207.26 28.2591 Q2207.26 31.9859 2205.84 35.3482 Q2204.46 38.6699 2200.78 43.2069 Q2199.76 44.3817 2194.34 50.0125 Q2188.91 55.6027 2179.02 65.6895 Z" fill="#000000" fill-rule="nonzero" fill-opacity="1" /><path clip-path="url(#clip960)" d="M2268.63 43.8551 Q2262.8 43.8551 2259.43 46.9743 Q2256.11 50.0935 2256.11 55.5622 Q2256.11 61.0309 2259.43 64.1501 Q2262.8 67.2693 2268.63 67.2693 Q2274.46 67.2693 2277.82 64.1501 Q2281.19 60.9904 2281.19 55.5622 Q2281.19 50.0935 2277.82 46.9743 Q2274.5 43.8551 2268.63 43.8551 M2260.45 40.3713 Q2255.18 39.075 2252.22 35.4697 Q2249.31 31.8644 2249.31 26.6793 Q2249.31 19.4281 2254.45 15.2152 Q2259.64 11.0023 2268.63 11.0023 Q2277.66 11.0023 2282.81 15.2152 Q2287.95 19.4281 2287.95 26.6793 Q2287.95 31.8644 2284.99 35.4697 Q2282.08 39.075 2276.85 40.3713 Q2282.77 41.7486 2286.05 45.759 Q2289.37 49.7694 2289.37 55.5622 Q2289.37 64.3527 2283.98 69.0517 Q2278.63 73.7508 2268.63 73.7508 Q2258.62 73.7508 2253.24 69.0517 Q2247.89 64.3527 2247.89 55.5622 Q2247.89 49.7694 2251.21 45.759 Q2254.53 41.7486 2260.45 40.3713 M2257.45 27.4489 Q2257.45 32.148 2260.37 34.7811 Q2263.32 37.4142 2268.63 37.4142 Q2273.9 37.4142 2276.85 34.7811 Q2279.85 32.148 2279.85 27.4489 Q2279.85 22.7499 2276.85 20.1168 Q2273.9 17.4837 2268.63 17.4837 Q2263.32 17.4837 2260.37 20.1168 Q2257.45 22.7499 2257.45 27.4489 Z" fill="#000000" fill-rule="nonzero" fill-opacity="1" /><path clip-path="url(#clip960)" d="M2330.53 71.3202 L2330.53 63.8666 Q2333.61 65.3249 2336.77 66.0946 Q2339.93 66.8642 2342.96 66.8642 Q2351.07 66.8642 2355.32 61.436 Q2359.61 55.9673 2360.22 44.8678 Q2357.87 48.3516 2354.27 50.215 Q2350.66 52.0784 2346.29 52.0784 Q2337.21 52.0784 2331.9 46.6097 Q2326.64 41.1005 2326.64 31.5808 Q2326.64 22.2638 2332.15 16.633 Q2337.66 11.0023 2346.81 11.0023 Q2357.3 11.0023 2362.81 19.0636 Q2368.36 27.0843 2368.36 42.3968 Q2368.36 56.6965 2361.56 65.2439 Q2354.79 73.7508 2343.33 73.7508 Q2340.25 73.7508 2337.09 73.1431 Q2333.93 72.5355 2330.53 71.3202 M2346.81 45.678 Q2352.32 45.678 2355.52 41.9107 Q2358.76 38.1433 2358.76 31.5808 Q2358.76 25.0589 2355.52 21.2916 Q2352.32 17.4837 2346.81 17.4837 Q2341.3 17.4837 2338.06 21.2916 Q2334.86 25.0589 2334.86 31.5808 Q2334.86 38.1433 2338.06 41.9107 Q2341.3 45.678 2346.81 45.678 Z" fill="#000000" fill-rule="nonzero" fill-opacity="1" /><path clip-path="url(#clip960)" d="M2410.86 65.6895 L2424.22 65.6895 L2424.22 19.5497 L2409.68 22.4663 L2409.68 15.0127 L2424.14 12.096 L2432.33 12.096 L2432.33 65.6895 L2445.69 65.6895 L2445.69 72.576 L2410.86 72.576 L2410.86 65.6895 Z" fill="#000000" fill-rule="nonzero" fill-opacity="1" /><path clip-path="url(#clip960)" d="M2463.64 65.6895 L2477.01 65.6895 L2477.01 19.5497 L2462.46 22.4663 L2462.46 15.0127 L2476.93 12.096 L2485.11 12.096 L2485.11 65.6895 L2498.48 65.6895 L2498.48 72.576 L2463.64 72.576 L2463.64 65.6895 Z" fill="#000000" fill-rule="nonzero" fill-opacity="1" /><path clip-path="url(#clip960)" d="M2548.43 65.6895 L2576.98 65.6895 L2576.98 72.576 L2538.58 72.576 L2538.58 65.6895 Q2543.24 60.8689 2551.26 52.7671 Q2559.32 44.6248 2561.39 42.2752 Q2565.32 37.8598 2566.86 34.8216 Q2568.44 31.7429 2568.44 28.7857 Q2568.44 23.9651 2565.03 20.927 Q2561.67 17.8888 2556.24 17.8888 Q2552.4 17.8888 2548.1 19.2256 Q2543.85 20.5624 2538.99 23.2765 L2538.99 15.0127 Q2543.93 13.0277 2548.22 12.015 Q2552.52 11.0023 2556.08 11.0023 Q2565.48 11.0023 2571.07 15.7013 Q2576.66 20.4004 2576.66 28.2591 Q2576.66 31.9859 2575.24 35.3482 Q2573.86 38.6699 2570.18 43.2069 Q2569.17 44.3817 2563.74 50.0125 Q2558.31 55.6027 2548.43 65.6895 Z" fill="#000000" fill-rule="nonzero" fill-opacity="1" /><path clip-path="url(#clip960)" d="M2594.24 12.096 L2626.36 12.096 L2626.36 18.9825 L2601.74 18.9825 L2601.74 33.8088 Q2603.52 33.2012 2605.3 32.9176 Q2607.08 32.5936 2608.86 32.5936 Q2618.99 32.5936 2624.91 38.1433 Q2630.82 43.6931 2630.82 53.1722 Q2630.82 62.9348 2624.74 68.3631 Q2618.67 73.7508 2607.61 73.7508 Q2603.8 73.7508 2599.83 73.1026 Q2595.9 72.4545 2591.69 71.1582 L2591.69 62.9348 Q2595.33 64.9198 2599.22 65.892 Q2603.11 66.8642 2607.45 66.8642 Q2614.45 66.8642 2618.55 63.1779 Q2622.64 59.4916 2622.64 53.1722 Q2622.64 46.8528 2618.55 43.1664 Q2614.45 39.4801 2607.45 39.4801 Q2604.17 39.4801 2600.88 40.2093 Q2597.64 40.9384 2594.24 42.4778 L2594.24 12.096 Z" fill="#000000" fill-rule="nonzero" fill-opacity="1" /><path clip-path="url(#clip963)" d="M2529.32 280.945 L1997.37 287.125 L1948.35 287.701 L2054.77 383.643 L2721.02 876.604 L2802.59 934.579 L2820.27 934.803 L2851.65 593.135 L2851.65 578.071 L2529.32 280.945  Z" fill="#cae1ff" fill-rule="evenodd" fill-opacity="0.5"/>
<polyline clip-path="url(#clip963)" style="stroke:#4682b4; stroke-linecap:round; stroke-linejoin:round; stroke-width:8; stroke-opacity:1; fill:none" points="2529.32,280.945 1997.37,287.125 1948.35,287.701 2054.77,383.643 2721.02,876.604 2802.59,934.579 2820.27,934.803 2851.65,593.135 2851.65,578.071 2529.32,280.945 "/>
<circle clip-path="url(#clip963)" cx="2529.32" cy="280.945" r="18" fill="#4682b4" fill-rule="evenodd" fill-opacity="1" stroke="none"/>
<circle clip-path="url(#clip963)" cx="1997.37" cy="287.125" r="18" fill="#4682b4" fill-rule="evenodd" fill-opacity="1" stroke="none"/>
<circle clip-path="url(#clip963)" cx="1948.35" cy="287.701" r="18" fill="#4682b4" fill-rule="evenodd" fill-opacity="1" stroke="none"/>
<circle clip-path="url(#clip963)" cx="2054.77" cy="383.643" r="18" fill="#4682b4" fill-rule="evenodd" fill-opacity="1" stroke="none"/>
<circle clip-path="url(#clip963)" cx="2721.02" cy="876.604" r="18" fill="#4682b4" fill-rule="evenodd" fill-opacity="1" stroke="none"/>
<circle clip-path="url(#clip963)" cx="2802.59" cy="934.579" r="18" fill="#4682b4" fill-rule="evenodd" fill-opacity="1" stroke="none"/>
<circle clip-path="url(#clip963)" cx="2820.27" cy="934.803" r="18" fill="#4682b4" fill-rule="evenodd" fill-opacity="1" stroke="none"/>
<circle clip-path="url(#clip963)" cx="2851.65" cy="593.135" r="18" fill="#4682b4" fill-rule="evenodd" fill-opacity="1" stroke="none"/>
<circle clip-path="url(#clip963)" cx="2851.65" cy="578.071" r="18" fill="#4682b4" fill-rule="evenodd" fill-opacity="1" stroke="none"/>
<path clip-path="url(#clip960)" d="M2455.58 167.015 L2475.98 167.015 L2475.98 171.934 L2448.55 171.934 L2448.55 167.015 Q2451.88 163.571 2457.61 157.784 Q2463.37 151.968 2464.84 150.29 Q2467.65 147.136 2468.75 144.966 Q2469.88 142.767 2469.88 140.655 Q2469.88 137.212 2467.45 135.041 Q2465.04 132.871 2461.17 132.871 Q2458.42 132.871 2455.35 133.826 Q2452.31 134.781 2448.84 136.72 L2448.84 130.817 Q2452.37 129.399 2455.44 128.676 Q2458.5 127.952 2461.05 127.952 Q2467.76 127.952 2471.76 131.309 Q2475.75 134.665 2475.75 140.279 Q2475.75 142.941 2474.74 145.342 Q2473.75 147.715 2471.12 150.956 Q2470.4 151.795 2466.52 155.817 Q2462.64 159.81 2455.58 167.015 Z" fill="#000000" fill-rule="nonzero" fill-opacity="1" /><path clip-path="url(#clip960)" d="M2486.77 128.734 L2514.55 128.734 L2514.55 131.222 L2498.87 171.934 L2492.76 171.934 L2507.52 133.653 L2486.77 133.653 L2486.77 128.734 Z" fill="#000000" fill-rule="nonzero" fill-opacity="1" /><path clip-path="url(#clip960)" d="M2526.01 128.734 L2548.96 128.734 L2548.96 133.653 L2531.36 133.653 L2531.36 144.243 Q2532.64 143.809 2533.91 143.606 Q2535.18 143.375 2536.46 143.375 Q2543.69 143.375 2547.91 147.339 Q2552.14 151.303 2552.14 158.074 Q2552.14 165.047 2547.8 168.924 Q2543.46 172.773 2535.56 172.773 Q2532.84 172.773 2530 172.31 Q2527.2 171.847 2524.19 170.921 L2524.19 165.047 Q2526.79 166.465 2529.57 167.159 Q2532.35 167.854 2535.44 167.854 Q2540.45 167.854 2543.37 165.221 Q2546.29 162.588 2546.29 158.074 Q2546.29 153.56 2543.37 150.927 Q2540.45 148.294 2535.44 148.294 Q2533.1 148.294 2530.76 148.815 Q2528.44 149.335 2526.01 150.435 L2526.01 128.734 Z" fill="#000000" fill-rule="nonzero" fill-opacity="1" /><path clip-path="url(#clip960)" d="M2576.15 132.582 Q2571.64 132.582 2569.35 137.038 Q2567.1 141.465 2567.1 150.377 Q2567.1 159.26 2569.35 163.716 Q2571.64 168.143 2576.15 168.143 Q2580.7 168.143 2582.95 163.716 Q2585.24 159.26 2585.24 150.377 Q2585.24 141.465 2582.95 137.038 Q2580.7 132.582 2576.15 132.582 M2576.15 127.952 Q2583.42 127.952 2587.24 133.71 Q2591.09 139.44 2591.09 150.377 Q2591.09 161.286 2587.24 167.044 Q2583.42 172.773 2576.15 172.773 Q2568.89 172.773 2565.04 167.044 Q2561.22 161.286 2561.22 150.377 Q2561.22 139.44 2565.04 133.71 Q2568.89 127.952 2576.15 127.952 Z" fill="#000000" fill-rule="nonzero" fill-opacity="1" /><path clip-path="url(#clip960)" d="M2619.07 148.641 Q2623.26 149.538 2625.6 152.374 Q2627.98 155.209 2627.98 159.376 Q2627.98 165.77 2623.58 169.272 Q2619.18 172.773 2611.08 172.773 Q2608.36 172.773 2605.47 172.223 Q2602.6 171.702 2599.53 170.632 L2599.53 164.989 Q2601.96 166.407 2604.86 167.13 Q2607.75 167.854 2610.91 167.854 Q2616.4 167.854 2619.27 165.684 Q2622.16 163.514 2622.16 159.376 Q2622.16 155.556 2619.47 153.415 Q2616.81 151.245 2612.03 151.245 L2607 151.245 L2607 146.442 L2612.27 146.442 Q2616.58 146.442 2618.86 144.735 Q2621.15 142.999 2621.15 139.758 Q2621.15 136.43 2618.78 134.665 Q2616.43 132.871 2612.03 132.871 Q2609.63 132.871 2606.88 133.392 Q2604.13 133.913 2600.84 135.013 L2600.84 129.804 Q2604.16 128.878 2607.06 128.415 Q2609.98 127.952 2612.55 127.952 Q2619.21 127.952 2623.09 130.991 Q2626.96 134 2626.96 139.15 Q2626.96 142.738 2624.91 145.227 Q2622.86 147.686 2619.07 148.641 Z" fill="#000000" fill-rule="nonzero" fill-opacity="1" /><path clip-path="url(#clip960)" d="M1773.41 221.98 L1793.81 221.98 L1793.81 226.899 L1766.38 226.899 L1766.38 221.98 Q1769.71 218.537 1775.44 212.75 Q1781.2 206.934 1782.67 205.256 Q1785.48 202.102 1786.58 199.932 Q1787.71 197.733 1787.71 195.621 Q1787.71 192.177 1785.28 190.007 Q1782.87 187.837 1779 187.837 Q1776.25 187.837 1773.18 188.792 Q1770.14 189.747 1766.67 191.685 L1766.67 185.783 Q1770.2 184.365 1773.27 183.641 Q1776.33 182.918 1778.88 182.918 Q1785.59 182.918 1789.59 186.275 Q1793.58 189.631 1793.58 195.244 Q1793.58 197.906 1792.57 200.308 Q1791.58 202.681 1788.95 205.921 Q1788.23 206.761 1784.35 210.783 Q1780.47 214.776 1773.41 221.98 Z" fill="#000000" fill-rule="nonzero" fill-opacity="1" /><path clip-path="url(#clip960)" d="M1804.6 183.699 L1832.38 183.699 L1832.38 186.188 L1816.7 226.899 L1810.59 226.899 L1825.35 188.618 L1804.6 188.618 L1804.6 183.699 Z" fill="#000000" fill-rule="nonzero" fill-opacity="1" /><path clip-path="url(#clip960)" d="M1843.84 183.699 L1866.79 183.699 L1866.79 188.618 L1849.19 188.618 L1849.19 199.209 Q1850.47 198.774 1851.74 198.572 Q1853.01 198.34 1854.29 198.34 Q1861.52 198.34 1865.74 202.305 Q1869.97 206.269 1869.97 213.039 Q1869.97 220.013 1865.63 223.89 Q1861.29 227.738 1853.39 227.738 Q1850.67 227.738 1847.83 227.276 Q1845.03 226.813 1842.02 225.887 L1842.02 220.013 Q1844.62 221.431 1847.4 222.125 Q1850.18 222.82 1853.27 222.82 Q1858.28 222.82 1861.2 220.186 Q1864.12 217.553 1864.12 213.039 Q1864.12 208.526 1861.2 205.893 Q1858.28 203.259 1853.27 203.259 Q1850.93 203.259 1848.59 203.78 Q1846.27 204.301 1843.84 205.401 L1843.84 183.699 Z" fill="#000000" fill-rule="nonzero" fill-opacity="1" /><path clip-path="url(#clip960)" d="M1882.5 221.98 L1892.05 221.98 L1892.05 189.023 L1881.66 191.107 L1881.66 185.783 L1891.99 183.699 L1897.83 183.699 L1897.83 221.98 L1907.38 221.98 L1907.38 226.899 L1882.5 226.899 L1882.5 221.98 Z" fill="#000000" fill-rule="nonzero" fill-opacity="1" /><path clip-path="url(#clip960)" d="M1931.69 206.384 Q1927.52 206.384 1925.12 208.612 Q1922.75 210.84 1922.75 214.747 Q1922.75 218.653 1925.12 220.881 Q1927.52 223.109 1931.69 223.109 Q1935.85 223.109 1938.25 220.881 Q1940.66 218.624 1940.66 214.747 Q1940.66 210.84 1938.25 208.612 Q1935.88 206.384 1931.69 206.384 M1925.84 203.896 Q1922.08 202.97 1919.97 200.395 Q1917.88 197.82 1917.88 194.116 Q1917.88 188.937 1921.56 185.927 Q1925.26 182.918 1931.69 182.918 Q1938.14 182.918 1941.81 185.927 Q1945.49 188.937 1945.49 194.116 Q1945.49 197.82 1943.38 200.395 Q1941.29 202.97 1937.56 203.896 Q1941.78 204.88 1944.13 207.744 Q1946.5 210.609 1946.5 214.747 Q1946.5 221.026 1942.65 224.382 Q1938.83 227.738 1931.69 227.738 Q1924.54 227.738 1920.69 224.382 Q1916.87 221.026 1916.87 214.747 Q1916.87 210.609 1919.24 207.744 Q1921.62 204.88 1925.84 203.896 M1923.7 194.666 Q1923.7 198.022 1925.78 199.903 Q1927.9 201.784 1931.69 201.784 Q1935.45 201.784 1937.56 199.903 Q1939.7 198.022 1939.7 194.666 Q1939.7 191.309 1937.56 189.428 Q1935.45 187.548 1931.69 187.548 Q1927.9 187.548 1925.78 189.428 Q1923.7 191.309 1923.7 194.666 Z" fill="#000000" fill-rule="nonzero" fill-opacity="1" /><path clip-path="url(#clip960)" d="M1719.49 227.244 L1739.89 227.244 L1739.89 232.163 L1712.46 232.163 L1712.46 227.244 Q1715.79 223.801 1721.52 218.014 Q1727.27 212.198 1728.75 210.52 Q1731.56 207.366 1732.66 205.196 Q1733.78 202.997 1733.78 200.884 Q1733.78 197.441 1731.35 195.271 Q1728.95 193.101 1725.08 193.101 Q1722.33 193.101 1719.26 194.056 Q1716.22 195.01 1712.75 196.949 L1712.75 191.046 Q1716.28 189.629 1719.35 188.905 Q1722.41 188.182 1724.96 188.182 Q1731.67 188.182 1735.67 191.538 Q1739.66 194.895 1739.66 200.508 Q1739.66 203.17 1738.65 205.572 Q1737.66 207.944 1735.03 211.185 Q1734.31 212.024 1730.43 216.046 Q1726.55 220.039 1719.49 227.244 Z" fill="#000000" fill-rule="nonzero" fill-opacity="1" /><path clip-path="url(#clip960)" d="M1750.68 188.963 L1778.46 188.963 L1778.46 191.451 L1762.78 232.163 L1756.67 232.163 L1771.43 193.882 L1750.68 193.882 L1750.68 188.963 Z" fill="#000000" fill-rule="nonzero" fill-opacity="1" /><path clip-path="url(#clip960)" d="M1789.92 188.963 L1812.86 188.963 L1812.86 193.882 L1795.27 193.882 L1795.27 204.472 Q1796.54 204.038 1797.82 203.836 Q1799.09 203.604 1800.36 203.604 Q1807.6 203.604 1811.82 207.568 Q1816.05 211.532 1816.05 218.303 Q1816.05 225.277 1811.71 229.154 Q1807.37 233.002 1799.47 233.002 Q1796.75 233.002 1793.91 232.539 Q1791.1 232.076 1788.1 231.15 L1788.1 225.277 Q1790.7 226.694 1793.48 227.389 Q1796.26 228.083 1799.35 228.083 Q1804.36 228.083 1807.28 225.45 Q1810.2 222.817 1810.2 218.303 Q1810.2 213.789 1807.28 211.156 Q1804.36 208.523 1799.35 208.523 Q1797.01 208.523 1794.66 209.044 Q1792.35 209.565 1789.92 210.664 L1789.92 188.963 Z" fill="#000000" fill-rule="nonzero" fill-opacity="1" /><path clip-path="url(#clip960)" d="M1828.58 227.244 L1838.12 227.244 L1838.12 194.287 L1827.74 196.37 L1827.74 191.046 L1838.07 188.963 L1843.91 188.963 L1843.91 227.244 L1853.46 227.244 L1853.46 232.163 L1828.58 232.163 L1828.58 227.244 Z" fill="#000000" fill-rule="nonzero" fill-opacity="1" /><path clip-path="url(#clip960)" d="M1865.44 231.266 L1865.44 225.942 Q1867.64 226.984 1869.9 227.533 Q1872.15 228.083 1874.32 228.083 Q1880.11 228.083 1883.15 224.206 Q1886.21 220.3 1886.65 212.371 Q1884.97 214.86 1882.39 216.191 Q1879.82 217.522 1876.69 217.522 Q1870.21 217.522 1866.42 213.616 Q1862.66 209.681 1862.66 202.881 Q1862.66 196.226 1866.6 192.204 Q1870.53 188.182 1877.07 188.182 Q1884.57 188.182 1888.5 193.94 Q1892.46 199.669 1892.46 210.606 Q1892.46 220.821 1887.6 226.926 Q1882.77 233.002 1874.58 233.002 Q1872.38 233.002 1870.13 232.568 Q1867.87 232.134 1865.44 231.266 M1877.07 212.95 Q1881.01 212.95 1883.29 210.259 Q1885.61 207.568 1885.61 202.881 Q1885.61 198.222 1883.29 195.531 Q1881.01 192.811 1877.07 192.811 Q1873.14 192.811 1870.82 195.531 Q1868.54 198.222 1868.54 202.881 Q1868.54 207.568 1870.82 210.259 Q1873.14 212.95 1877.07 212.95 Z" fill="#000000" fill-rule="nonzero" fill-opacity="1" /><path clip-path="url(#clip960)" d="M1817.23 333.167 L1837.63 333.167 L1837.63 338.086 L1810.2 338.086 L1810.2 333.167 Q1813.52 329.724 1819.25 323.937 Q1825.01 318.121 1826.49 316.443 Q1829.29 313.289 1830.39 311.119 Q1831.52 308.92 1831.52 306.808 Q1831.52 303.364 1829.09 301.194 Q1826.69 299.024 1822.81 299.024 Q1820.06 299.024 1817 299.979 Q1813.96 300.934 1810.49 302.872 L1810.49 296.97 Q1814.02 295.552 1817.08 294.828 Q1820.15 294.105 1822.7 294.105 Q1829.41 294.105 1833.4 297.462 Q1837.4 300.818 1837.4 306.431 Q1837.4 309.093 1836.38 311.495 Q1835.4 313.868 1832.77 317.108 Q1832.04 317.948 1828.17 321.97 Q1824.29 325.963 1817.23 333.167 Z" fill="#000000" fill-rule="nonzero" fill-opacity="1" /><path clip-path="url(#clip960)" d="M1862.4 317.571 Q1858.23 317.571 1855.83 319.799 Q1853.45 322.027 1853.45 325.934 Q1853.45 329.84 1855.83 332.068 Q1858.23 334.296 1862.4 334.296 Q1866.56 334.296 1868.96 332.068 Q1871.37 329.811 1871.37 325.934 Q1871.37 322.027 1868.96 319.799 Q1866.59 317.571 1862.4 317.571 M1856.55 315.083 Q1852.79 314.157 1850.68 311.582 Q1848.59 309.007 1848.59 305.303 Q1848.59 300.124 1852.27 297.114 Q1855.97 294.105 1862.4 294.105 Q1868.85 294.105 1872.52 297.114 Q1876.2 300.124 1876.2 305.303 Q1876.2 309.007 1874.09 311.582 Q1872 314.157 1868.27 315.083 Q1872.49 316.067 1874.84 318.931 Q1877.21 321.796 1877.21 325.934 Q1877.21 332.213 1873.36 335.569 Q1869.54 338.925 1862.4 338.925 Q1855.25 338.925 1851.4 335.569 Q1847.58 332.213 1847.58 325.934 Q1847.58 321.796 1849.95 318.931 Q1852.33 316.067 1856.55 315.083 M1854.41 305.853 Q1854.41 309.209 1856.49 311.09 Q1858.61 312.971 1862.4 312.971 Q1866.16 312.971 1868.27 311.09 Q1870.41 309.209 1870.41 305.853 Q1870.41 302.496 1868.27 300.615 Q1866.16 298.735 1862.4 298.735 Q1858.61 298.735 1856.49 300.615 Q1854.41 302.496 1854.41 305.853 Z" fill="#000000" fill-rule="nonzero" fill-opacity="1" /><path clip-path="url(#clip960)" d="M1886.12 294.886 L1913.9 294.886 L1913.9 297.375 L1898.22 338.086 L1892.11 338.086 L1906.87 299.805 L1886.12 299.805 L1886.12 294.886 Z" fill="#000000" fill-rule="nonzero" fill-opacity="1" /><path clip-path="url(#clip960)" d="M1923.82 294.886 L1951.6 294.886 L1951.6 297.375 L1935.92 338.086 L1929.81 338.086 L1944.57 299.805 L1923.82 299.805 L1923.82 294.886 Z" fill="#000000" fill-rule="nonzero" fill-opacity="1" /><path clip-path="url(#clip960)" d="M1961.53 294.886 L1989.3 294.886 L1989.3 297.375 L1973.62 338.086 L1967.52 338.086 L1982.27 299.805 L1961.53 299.805 L1961.53 294.886 Z" fill="#000000" fill-rule="nonzero" fill-opacity="1" /><path clip-path="url(#clip960)" d="M2718.13 1010.82 L2738.53 1010.82 L2738.53 1015.74 L2711.1 1015.74 L2711.1 1010.82 Q2714.43 1007.38 2720.16 1001.59 Q2725.91 995.775 2727.39 994.096 Q2730.2 990.942 2731.3 988.772 Q2732.42 986.573 2732.42 984.461 Q2732.42 981.018 2729.99 978.848 Q2727.59 976.677 2723.71 976.677 Q2720.97 976.677 2717.9 977.632 Q2714.86 978.587 2711.39 980.526 L2711.39 974.623 Q2714.92 973.205 2717.99 972.482 Q2721.05 971.758 2723.6 971.758 Q2730.31 971.758 2734.31 975.115 Q2738.3 978.471 2738.3 984.085 Q2738.3 986.747 2737.29 989.148 Q2736.3 991.521 2733.67 994.762 Q2732.95 995.601 2729.07 999.623 Q2725.19 1003.62 2718.13 1010.82 Z" fill="#000000" fill-rule="nonzero" fill-opacity="1" /><path clip-path="url(#clip960)" d="M2749.32 972.54 L2777.1 972.54 L2777.1 975.028 L2761.42 1015.74 L2755.31 1015.74 L2770.07 977.459 L2749.32 977.459 L2749.32 972.54 Z" fill="#000000" fill-rule="nonzero" fill-opacity="1" /><path clip-path="url(#clip960)" d="M2801.72 991.81 Q2797.79 991.81 2795.47 994.501 Q2793.19 997.192 2793.19 1001.88 Q2793.19 1006.54 2795.47 1009.26 Q2797.79 1011.95 2801.72 1011.95 Q2805.66 1011.95 2807.94 1009.26 Q2810.26 1006.54 2810.26 1001.88 Q2810.26 997.192 2807.94 994.501 Q2805.66 991.81 2801.72 991.81 M2813.33 973.495 L2813.33 978.819 Q2811.13 977.777 2808.87 977.227 Q2806.64 976.677 2804.44 976.677 Q2798.66 976.677 2795.59 980.584 Q2792.55 984.49 2792.12 992.389 Q2793.82 989.872 2796.4 988.541 Q2798.97 987.181 2802.07 987.181 Q2808.58 987.181 2812.34 991.145 Q2816.13 995.08 2816.13 1001.88 Q2816.13 1008.53 2812.2 1012.56 Q2808.26 1016.58 2801.72 1016.58 Q2794.23 1016.58 2790.27 1010.85 Q2786.3 1005.09 2786.3 994.183 Q2786.3 983.94 2791.16 977.864 Q2796.02 971.758 2804.21 971.758 Q2806.41 971.758 2808.64 972.193 Q2810.9 972.627 2813.33 973.495 Z" fill="#000000" fill-rule="nonzero" fill-opacity="1" /><path clip-path="url(#clip960)" d="M2824.73 972.54 L2852.5 972.54 L2852.5 975.028 L2836.82 1015.74 L2830.72 1015.74 L2845.47 977.459 L2824.73 977.459 L2824.73 972.54 Z" fill="#000000" fill-rule="nonzero" fill-opacity="1" /><path clip-path="url(#clip960)" d="M2868.94 1010.82 L2889.34 1010.82 L2889.34 1015.74 L2861.91 1015.74 L2861.91 1010.82 Q2865.24 1007.38 2870.97 1001.59 Q2876.72 995.775 2878.2 994.096 Q2881.01 990.942 2882.11 988.772 Q2883.23 986.573 2883.23 984.461 Q2883.23 981.018 2880.8 978.848 Q2878.4 976.677 2874.52 976.677 Q2871.78 976.677 2868.71 977.632 Q2865.67 978.587 2862.2 980.526 L2862.2 974.623 Q2865.73 973.205 2868.8 972.482 Q2871.86 971.758 2874.41 971.758 Q2881.12 971.758 2885.11 975.115 Q2889.11 978.471 2889.11 984.085 Q2889.11 986.747 2888.09 989.148 Q2887.11 991.521 2884.48 994.762 Q2883.75 995.601 2879.88 999.623 Q2876 1003.62 2868.94 1010.82 Z" fill="#000000" fill-rule="nonzero" fill-opacity="1" /><path clip-path="url(#clip960)" d="M2808.59 1065.03 L2828.99 1065.03 L2828.99 1069.95 L2801.56 1069.95 L2801.56 1065.03 Q2804.88 1061.59 2810.61 1055.8 Q2816.37 1049.98 2817.85 1048.3 Q2820.65 1045.15 2821.75 1042.98 Q2822.88 1040.78 2822.88 1038.67 Q2822.88 1035.23 2820.45 1033.06 Q2818.05 1030.89 2814.17 1030.89 Q2811.42 1030.89 2808.35 1031.84 Q2805.32 1032.79 2801.84 1034.73 L2801.84 1028.83 Q2805.37 1027.41 2808.44 1026.69 Q2811.51 1025.97 2814.06 1025.97 Q2820.77 1025.97 2824.76 1029.32 Q2828.75 1032.68 2828.75 1038.29 Q2828.75 1040.95 2827.74 1043.36 Q2826.76 1045.73 2824.12 1048.97 Q2823.4 1049.81 2819.52 1053.83 Q2815.65 1057.82 2808.59 1065.03 Z" fill="#000000" fill-rule="nonzero" fill-opacity="1" /><path clip-path="url(#clip960)" d="M2839.78 1026.75 L2867.56 1026.75 L2867.56 1029.24 L2851.87 1069.95 L2845.77 1069.95 L2860.52 1031.67 L2839.78 1031.67 L2839.78 1026.75 Z" fill="#000000" fill-rule="nonzero" fill-opacity="1" /><path clip-path="url(#clip960)" d="M2892.18 1046.02 Q2888.24 1046.02 2885.93 1048.71 Q2883.64 1051.4 2883.64 1056.09 Q2883.64 1060.75 2885.93 1063.47 Q2888.24 1066.16 2892.18 1066.16 Q2896.11 1066.16 2898.4 1063.47 Q2900.72 1060.75 2900.72 1056.09 Q2900.72 1051.4 2898.4 1048.71 Q2896.11 1046.02 2892.18 1046.02 M2903.78 1027.7 L2903.78 1033.03 Q2901.58 1031.98 2899.33 1031.43 Q2897.1 1030.89 2894.9 1030.89 Q2889.11 1030.89 2886.05 1034.79 Q2883.01 1038.7 2882.57 1046.6 Q2884.28 1044.08 2886.86 1042.75 Q2889.43 1041.39 2892.53 1041.39 Q2899.04 1041.39 2902.8 1045.35 Q2906.59 1049.29 2906.59 1056.09 Q2906.59 1062.74 2902.65 1066.76 Q2898.72 1070.79 2892.18 1070.79 Q2884.69 1070.79 2880.72 1065.06 Q2876.76 1059.3 2876.76 1048.39 Q2876.76 1038.15 2881.62 1032.07 Q2886.48 1025.97 2894.67 1025.97 Q2896.87 1025.97 2899.1 1026.4 Q2901.35 1026.83 2903.78 1027.7 Z" fill="#000000" fill-rule="nonzero" fill-opacity="1" /><path clip-path="url(#clip960)" d="M2915.18 1026.75 L2942.96 1026.75 L2942.96 1029.24 L2927.28 1069.95 L2921.17 1069.95 L2935.93 1031.67 L2915.18 1031.67 L2915.18 1026.75 Z" fill="#000000" fill-rule="nonzero" fill-opacity="1" /><path clip-path="url(#clip960)" d="M2966.86 1030.6 Q2962.35 1030.6 2960.06 1035.05 Q2957.8 1039.48 2957.8 1048.39 Q2957.8 1057.27 2960.06 1061.73 Q2962.35 1066.16 2966.86 1066.16 Q2971.4 1066.16 2973.66 1061.73 Q2975.95 1057.27 2975.95 1048.39 Q2975.95 1039.48 2973.66 1035.05 Q2971.4 1030.6 2966.86 1030.6 M2966.86 1025.97 Q2974.12 1025.97 2977.94 1031.72 Q2981.79 1037.45 2981.79 1048.39 Q2981.79 1059.3 2977.94 1065.06 Q2974.12 1070.79 2966.86 1070.79 Q2959.6 1070.79 2955.75 1065.06 Q2951.93 1059.3 2951.93 1048.39 Q2951.93 1037.45 2955.75 1031.72 Q2959.6 1025.97 2966.86 1025.97 Z" fill="#000000" fill-rule="nonzero" fill-opacity="1" /><path clip-path="url(#clip960)" d="M2830.96 1063.6 L2851.36 1063.6 L2851.36 1068.51 L2823.93 1068.51 L2823.93 1063.6 Q2827.25 1060.15 2832.98 1054.36 Q2838.74 1048.55 2840.22 1046.87 Q2843.02 1043.72 2844.12 1041.55 Q2845.25 1039.35 2845.25 1037.24 Q2845.25 1033.79 2842.82 1031.62 Q2840.42 1029.45 2836.54 1029.45 Q2833.79 1029.45 2830.73 1030.41 Q2827.69 1031.36 2824.22 1033.3 L2824.22 1027.4 Q2827.75 1025.98 2830.81 1025.26 Q2833.88 1024.53 2836.43 1024.53 Q2843.14 1024.53 2847.13 1027.89 Q2851.13 1031.25 2851.13 1036.86 Q2851.13 1039.52 2850.11 1041.92 Q2849.13 1044.3 2846.5 1047.54 Q2845.77 1048.38 2841.9 1052.4 Q2838.02 1056.39 2830.96 1063.6 Z" fill="#000000" fill-rule="nonzero" fill-opacity="1" /><path clip-path="url(#clip960)" d="M2862.15 1025.31 L2889.93 1025.31 L2889.93 1027.8 L2874.24 1068.51 L2868.14 1068.51 L2882.9 1030.23 L2862.15 1030.23 L2862.15 1025.31 Z" fill="#000000" fill-rule="nonzero" fill-opacity="1" /><path clip-path="url(#clip960)" d="M2914.55 1044.58 Q2910.62 1044.58 2908.3 1047.28 Q2906.02 1049.97 2906.02 1054.65 Q2906.02 1059.31 2908.3 1062.03 Q2910.62 1064.72 2914.55 1064.72 Q2918.49 1064.72 2920.77 1062.03 Q2923.09 1059.31 2923.09 1054.65 Q2923.09 1049.97 2920.77 1047.28 Q2918.49 1044.58 2914.55 1044.58 M2926.15 1026.27 L2926.15 1031.59 Q2923.95 1030.55 2921.7 1030 Q2919.47 1029.45 2917.27 1029.45 Q2911.48 1029.45 2908.42 1033.36 Q2905.38 1037.26 2904.94 1045.16 Q2906.65 1042.65 2909.23 1041.32 Q2911.8 1039.96 2914.9 1039.96 Q2921.41 1039.96 2925.17 1043.92 Q2928.96 1047.85 2928.96 1054.65 Q2928.96 1061.31 2925.03 1065.33 Q2921.09 1069.35 2914.55 1069.35 Q2907.06 1069.35 2903.09 1063.62 Q2899.13 1057.87 2899.13 1046.96 Q2899.13 1036.71 2903.99 1030.64 Q2908.85 1024.53 2917.04 1024.53 Q2919.24 1024.53 2921.47 1024.97 Q2923.72 1025.4 2926.15 1026.27 Z" fill="#000000" fill-rule="nonzero" fill-opacity="1" /><path clip-path="url(#clip960)" d="M2937.55 1025.31 L2965.33 1025.31 L2965.33 1027.8 L2949.65 1068.51 L2943.54 1068.51 L2958.3 1030.23 L2937.55 1030.23 L2937.55 1025.31 Z" fill="#000000" fill-rule="nonzero" fill-opacity="1" /><path clip-path="url(#clip960)" d="M2977.75 1063.6 L2987.29 1063.6 L2987.29 1030.64 L2976.91 1032.72 L2976.91 1027.4 L2987.24 1025.31 L2993.08 1025.31 L2993.08 1063.6 L3002.63 1063.6 L3002.63 1068.51 L2977.75 1068.51 L2977.75 1063.6 Z" fill="#000000" fill-rule="nonzero" fill-opacity="1" /><path clip-path="url(#clip960)" d="M2948.65 620.811 L2969.05 620.811 L2969.05 625.73 L2941.62 625.73 L2941.62 620.811 Q2944.94 617.368 2950.67 611.581 Q2956.43 605.765 2957.91 604.086 Q2960.71 600.932 2961.81 598.762 Q2962.94 596.563 2962.94 594.451 Q2962.94 591.008 2960.51 588.838 Q2958.11 586.668 2954.23 586.668 Q2951.48 586.668 2948.41 587.622 Q2945.38 588.577 2941.9 590.516 L2941.9 584.613 Q2945.43 583.195 2948.5 582.472 Q2951.57 581.749 2954.11 581.749 Q2960.83 581.749 2964.82 585.105 Q2968.81 588.461 2968.81 594.075 Q2968.81 596.737 2967.8 599.139 Q2966.82 601.511 2964.18 604.752 Q2963.46 605.591 2959.58 609.613 Q2955.71 613.606 2948.65 620.811 Z" fill="#000000" fill-rule="nonzero" fill-opacity="1" /><path clip-path="url(#clip960)" d="M2993.81 605.215 Q2989.65 605.215 2987.25 607.443 Q2984.87 609.671 2984.87 613.577 Q2984.87 617.483 2987.25 619.711 Q2989.65 621.939 2993.81 621.939 Q2997.98 621.939 3000.38 619.711 Q3002.78 617.454 3002.78 613.577 Q3002.78 609.671 3000.38 607.443 Q2998.01 605.215 2993.81 605.215 M2987.97 602.726 Q2984.21 601.801 2982.1 599.225 Q2980.01 596.65 2980.01 592.946 Q2980.01 587.767 2983.69 584.758 Q2987.39 581.749 2993.81 581.749 Q3000.27 581.749 3003.94 584.758 Q3007.62 587.767 3007.62 592.946 Q3007.62 596.65 3005.5 599.225 Q3003.42 601.801 2999.69 602.726 Q3003.91 603.71 3006.26 606.575 Q3008.63 609.439 3008.63 613.577 Q3008.63 619.856 3004.78 623.212 Q3000.96 626.569 2993.81 626.569 Q2986.67 626.569 2982.82 623.212 Q2979 619.856 2979 613.577 Q2979 609.439 2981.37 606.575 Q2983.74 603.71 2987.97 602.726 M2985.83 593.496 Q2985.83 596.853 2987.91 598.733 Q2990.02 600.614 2993.81 600.614 Q2997.58 600.614 2999.69 598.733 Q3001.83 596.853 3001.83 593.496 Q3001.83 590.14 2999.69 588.259 Q2997.58 586.378 2993.81 586.378 Q2990.02 586.378 2987.91 588.259 Q2985.83 590.14 2985.83 593.496 Z" fill="#000000" fill-rule="nonzero" fill-opacity="1" /><path clip-path="url(#clip960)" d="M3017.54 582.53 L3045.32 582.53 L3045.32 585.018 L3029.64 625.73 L3023.53 625.73 L3038.29 587.449 L3017.54 587.449 L3017.54 582.53 Z" fill="#000000" fill-rule="nonzero" fill-opacity="1" /><path clip-path="url(#clip960)" d="M3055.24 582.53 L3083.02 582.53 L3083.02 585.018 L3067.34 625.73 L3061.23 625.73 L3075.99 587.449 L3055.24 587.449 L3055.24 582.53 Z" fill="#000000" fill-rule="nonzero" fill-opacity="1" /><path clip-path="url(#clip960)" d="M3106.92 605.215 Q3102.75 605.215 3100.35 607.443 Q3097.98 609.671 3097.98 613.577 Q3097.98 617.483 3100.35 619.711 Q3102.75 621.939 3106.92 621.939 Q3111.09 621.939 3113.49 619.711 Q3115.89 617.454 3115.89 613.577 Q3115.89 609.671 3113.49 607.443 Q3111.12 605.215 3106.92 605.215 M3101.08 602.726 Q3097.31 601.801 3095.2 599.225 Q3093.12 596.65 3093.12 592.946 Q3093.12 587.767 3096.79 584.758 Q3100.5 581.749 3106.92 581.749 Q3113.37 581.749 3117.05 584.758 Q3120.72 587.767 3120.72 592.946 Q3120.72 596.65 3118.61 599.225 Q3116.53 601.801 3112.79 602.726 Q3117.02 603.71 3119.36 606.575 Q3121.74 609.439 3121.74 613.577 Q3121.74 619.856 3117.89 623.212 Q3114.07 626.569 3106.92 626.569 Q3099.77 626.569 3095.93 623.212 Q3092.11 619.856 3092.11 613.577 Q3092.11 609.439 3094.48 606.575 Q3096.85 603.71 3101.08 602.726 M3098.93 593.496 Q3098.93 596.853 3101.02 598.733 Q3103.13 600.614 3106.92 600.614 Q3110.68 600.614 3112.79 598.733 Q3114.94 596.853 3114.94 593.496 Q3114.94 590.14 3112.79 588.259 Q3110.68 586.378 3106.92 586.378 Q3103.13 586.378 3101.02 588.259 Q3098.93 590.14 3098.93 593.496 Z" fill="#000000" fill-rule="nonzero" fill-opacity="1" /><path clip-path="url(#clip960)" d="M2950.18 597.549 L2970.58 597.549 L2970.58 602.468 L2943.15 602.468 L2943.15 597.549 Q2946.48 594.105 2952.21 588.318 Q2957.96 582.502 2959.44 580.824 Q2962.25 577.67 2963.35 575.5 Q2964.47 573.301 2964.47 571.189 Q2964.47 567.746 2962.04 565.575 Q2959.64 563.405 2955.77 563.405 Q2953.02 563.405 2949.95 564.36 Q2946.91 565.315 2943.44 567.254 L2943.44 561.351 Q2946.97 559.933 2950.04 559.21 Q2953.1 558.486 2955.65 558.486 Q2962.36 558.486 2966.36 561.843 Q2970.35 565.199 2970.35 570.813 Q2970.35 573.475 2969.34 575.876 Q2968.35 578.249 2965.72 581.49 Q2965 582.329 2961.12 586.351 Q2957.24 590.344 2950.18 597.549 Z" fill="#000000" fill-rule="nonzero" fill-opacity="1" /><path clip-path="url(#clip960)" d="M2995.35 581.953 Q2991.18 581.953 2988.78 584.181 Q2986.41 586.409 2986.41 590.315 Q2986.41 594.221 2988.78 596.449 Q2991.18 598.677 2995.35 598.677 Q2999.51 598.677 3001.92 596.449 Q3004.32 594.192 3004.32 590.315 Q3004.32 586.409 3001.92 584.181 Q2999.54 581.953 2995.35 581.953 M2989.5 579.464 Q2985.74 578.538 2983.63 575.963 Q2981.55 573.388 2981.55 569.684 Q2981.55 564.505 2985.22 561.496 Q2988.92 558.486 2995.35 558.486 Q3001.8 558.486 3005.48 561.496 Q3009.15 564.505 3009.15 569.684 Q3009.15 573.388 3007.04 575.963 Q3004.95 578.538 3001.22 579.464 Q3005.45 580.448 3007.79 583.313 Q3010.16 586.177 3010.16 590.315 Q3010.16 596.594 3006.31 599.95 Q3002.5 603.307 2995.35 603.307 Q2988.2 603.307 2984.35 599.95 Q2980.53 596.594 2980.53 590.315 Q2980.53 586.177 2982.91 583.313 Q2985.28 580.448 2989.5 579.464 M2987.36 570.234 Q2987.36 573.59 2989.45 575.471 Q2991.56 577.352 2995.35 577.352 Q2999.11 577.352 3001.22 575.471 Q3003.36 573.59 3003.36 570.234 Q3003.36 566.877 3001.22 564.997 Q2999.11 563.116 2995.35 563.116 Q2991.56 563.116 2989.45 564.997 Q2987.36 566.877 2987.36 570.234 Z" fill="#000000" fill-rule="nonzero" fill-opacity="1" /><path clip-path="url(#clip960)" d="M3036.61 564.36 L3021.85 587.421 L3036.61 587.421 L3036.61 564.36 M3035.08 559.268 L3042.43 559.268 L3042.43 587.421 L3048.59 587.421 L3048.59 592.282 L3042.43 592.282 L3042.43 602.468 L3036.61 602.468 L3036.61 592.282 L3017.11 592.282 L3017.11 586.64 L3035.08 559.268 Z" fill="#000000" fill-rule="nonzero" fill-opacity="1" /><path clip-path="url(#clip960)" d="M3058.43 601.571 L3058.43 596.247 Q3060.63 597.288 3062.88 597.838 Q3065.14 598.388 3067.31 598.388 Q3073.1 598.388 3076.13 594.51 Q3079.2 590.604 3079.64 582.676 Q3077.96 585.164 3075.38 586.495 Q3072.81 587.826 3069.68 587.826 Q3063.2 587.826 3059.41 583.92 Q3055.65 579.985 3055.65 573.185 Q3055.65 566.53 3059.58 562.508 Q3063.52 558.486 3070.06 558.486 Q3077.55 558.486 3081.49 564.244 Q3085.45 569.974 3085.45 580.911 Q3085.45 591.125 3080.59 597.23 Q3075.76 603.307 3067.57 603.307 Q3065.37 603.307 3063.11 602.873 Q3060.86 602.439 3058.43 601.571 M3070.06 583.255 Q3073.99 583.255 3076.28 580.564 Q3078.59 577.873 3078.59 573.185 Q3078.59 568.527 3076.28 565.836 Q3073.99 563.116 3070.06 563.116 Q3066.12 563.116 3063.81 565.836 Q3061.52 568.527 3061.52 573.185 Q3061.52 577.873 3063.81 580.564 Q3066.12 583.255 3070.06 583.255 Z" fill="#000000" fill-rule="nonzero" fill-opacity="1" /><path clip-path="url(#clip960)" d="M3100.99 597.549 L3121.39 597.549 L3121.39 602.468 L3093.96 602.468 L3093.96 597.549 Q3097.29 594.105 3103.02 588.318 Q3108.77 582.502 3110.25 580.824 Q3113.06 577.67 3114.16 575.5 Q3115.28 573.301 3115.28 571.189 Q3115.28 567.746 3112.85 565.575 Q3110.45 563.405 3106.57 563.405 Q3103.83 563.405 3100.76 564.36 Q3097.72 565.315 3094.25 567.254 L3094.25 561.351 Q3097.78 559.933 3100.85 559.21 Q3103.91 558.486 3106.46 558.486 Q3113.17 558.486 3117.16 561.843 Q3121.16 565.199 3121.16 570.813 Q3121.16 573.475 3120.14 575.876 Q3119.16 578.249 3116.53 581.49 Q3115.8 582.329 3111.93 586.351 Q3108.05 590.344 3100.99 597.549 Z" fill="#000000" fill-rule="nonzero" fill-opacity="1" /><path clip-path="url(#clip960)" d="M2216.36 261.974 L2224 261.974 L2224 235.608 L2215.69 237.275 L2215.69 233.015 L2223.95 231.349 L2228.63 231.349 L2228.63 261.974 L2236.27 261.974 L2236.27 265.909 L2216.36 265.909 L2216.36 261.974 Z" fill="#000000" fill-rule="nonzero" fill-opacity="1" /><path clip-path="url(#clip960)" d="M2259.88 247.275 Q2263.23 247.992 2265.11 250.261 Q2267.01 252.529 2267.01 255.863 Q2267.01 260.978 2263.49 263.779 Q2259.97 266.58 2253.49 266.58 Q2251.31 266.58 2249 266.14 Q2246.71 265.724 2244.25 264.867 L2244.25 260.353 Q2246.2 261.488 2248.51 262.066 Q2250.83 262.645 2253.35 262.645 Q2257.75 262.645 2260.04 260.909 Q2262.35 259.173 2262.35 255.863 Q2262.35 252.807 2260.2 251.094 Q2258.07 249.358 2254.25 249.358 L2250.22 249.358 L2250.22 245.515 L2254.44 245.515 Q2257.89 245.515 2259.71 244.15 Q2261.54 242.761 2261.54 240.168 Q2261.54 237.506 2259.64 236.094 Q2257.77 234.659 2254.25 234.659 Q2252.33 234.659 2250.13 235.076 Q2247.93 235.492 2245.29 236.372 L2245.29 232.205 Q2247.96 231.465 2250.27 231.094 Q2252.61 230.724 2254.67 230.724 Q2259.99 230.724 2263.09 233.154 Q2266.2 235.562 2266.2 239.682 Q2266.2 242.552 2264.55 244.543 Q2262.91 246.511 2259.88 247.275 Z" fill="#000000" fill-rule="nonzero" fill-opacity="1" /><path clip-path="url(#clip960)" d="M1904.63 274.264 L1920.95 274.264 L1920.95 278.199 L1899 278.199 L1899 274.264 Q1901.66 271.509 1906.25 266.88 Q1910.85 262.227 1912.03 260.884 Q1914.28 258.361 1915.16 256.625 Q1916.06 254.866 1916.06 253.176 Q1916.06 250.421 1914.12 248.685 Q1912.2 246.949 1909.09 246.949 Q1906.9 246.949 1904.44 247.713 Q1902.01 248.477 1899.23 250.028 L1899.23 245.306 Q1902.06 244.171 1904.51 243.593 Q1906.96 243.014 1909 243.014 Q1914.37 243.014 1917.57 245.699 Q1920.76 248.384 1920.76 252.875 Q1920.76 255.005 1919.95 256.926 Q1919.16 258.824 1917.06 261.417 Q1916.48 262.088 1913.38 265.305 Q1910.27 268.5 1904.63 274.264 Z" fill="#000000" fill-rule="nonzero" fill-opacity="1" /><path clip-path="url(#clip960)" d="M1934.79 274.264 L1951.11 274.264 L1951.11 278.199 L1929.16 278.199 L1929.16 274.264 Q1931.83 271.509 1936.41 266.88 Q1941.02 262.227 1942.2 260.884 Q1944.44 258.361 1945.32 256.625 Q1946.22 254.866 1946.22 253.176 Q1946.22 250.421 1944.28 248.685 Q1942.36 246.949 1939.26 246.949 Q1937.06 246.949 1934.6 247.713 Q1932.17 248.477 1929.4 250.028 L1929.4 245.306 Q1932.22 244.171 1934.67 243.593 Q1937.13 243.014 1939.16 243.014 Q1944.53 243.014 1947.73 245.699 Q1950.92 248.384 1950.92 252.875 Q1950.92 255.005 1950.11 256.926 Q1949.33 258.824 1947.22 261.417 Q1946.64 262.088 1943.54 265.305 Q1940.44 268.5 1934.79 274.264 Z" fill="#000000" fill-rule="nonzero" fill-opacity="1" /><path clip-path="url(#clip960)" d="M1926.14 324.968 L1933.78 324.968 L1933.78 298.602 L1925.47 300.269 L1925.47 296.009 L1933.73 294.343 L1938.41 294.343 L1938.41 324.968 L1946.05 324.968 L1946.05 328.903 L1926.14 328.903 L1926.14 324.968 Z" fill="#000000" fill-rule="nonzero" fill-opacity="1" /><path clip-path="url(#clip960)" d="M1965.49 312.491 Q1962.16 312.491 1960.24 314.273 Q1958.34 316.056 1958.34 319.181 Q1958.34 322.306 1960.24 324.088 Q1962.16 325.87 1965.49 325.87 Q1968.83 325.87 1970.75 324.088 Q1972.67 322.282 1972.67 319.181 Q1972.67 316.056 1970.75 314.273 Q1968.85 312.491 1965.49 312.491 M1960.82 310.5 Q1957.81 309.759 1956.12 307.699 Q1954.45 305.639 1954.45 302.676 Q1954.45 298.533 1957.39 296.125 Q1960.35 293.718 1965.49 293.718 Q1970.66 293.718 1973.59 296.125 Q1976.53 298.533 1976.53 302.676 Q1976.53 305.639 1974.84 307.699 Q1973.18 309.759 1970.19 310.5 Q1973.57 311.287 1975.45 313.579 Q1977.34 315.87 1977.34 319.181 Q1977.34 324.204 1974.27 326.889 Q1971.21 329.574 1965.49 329.574 Q1959.78 329.574 1956.7 326.889 Q1953.64 324.204 1953.64 319.181 Q1953.64 315.87 1955.54 313.579 Q1957.44 311.287 1960.82 310.5 M1959.1 303.116 Q1959.1 305.801 1960.77 307.306 Q1962.46 308.81 1965.49 308.81 Q1968.5 308.81 1970.19 307.306 Q1971.91 305.801 1971.91 303.116 Q1971.91 300.431 1970.19 298.926 Q1968.5 297.421 1965.49 297.421 Q1962.46 297.421 1960.77 298.926 Q1959.1 300.431 1959.1 303.116 Z" fill="#000000" fill-rule="nonzero" fill-opacity="1" /><path clip-path="url(#clip960)" d="M2349.86 651.865 L2357.5 651.865 L2357.5 625.499 L2349.19 627.166 L2349.19 622.907 L2357.46 621.24 L2362.13 621.24 L2362.13 651.865 L2369.77 651.865 L2369.77 655.8 L2349.86 655.8 L2349.86 651.865 Z" fill="#000000" fill-rule="nonzero" fill-opacity="1" /><path clip-path="url(#clip960)" d="M2389.8 636.656 Q2386.65 636.656 2384.8 638.809 Q2382.97 640.962 2382.97 644.712 Q2382.97 648.439 2384.8 650.615 Q2386.65 652.768 2389.8 652.768 Q2392.94 652.768 2394.77 650.615 Q2396.62 648.439 2396.62 644.712 Q2396.62 640.962 2394.77 638.809 Q2392.94 636.656 2389.8 636.656 M2399.08 622.004 L2399.08 626.263 Q2397.32 625.43 2395.51 624.99 Q2393.73 624.55 2391.97 624.55 Q2387.34 624.55 2384.89 627.675 Q2382.46 630.8 2382.11 637.119 Q2383.48 635.106 2385.54 634.041 Q2387.6 632.953 2390.07 632.953 Q2395.28 632.953 2398.29 636.124 Q2401.32 639.272 2401.32 644.712 Q2401.32 650.036 2398.17 653.254 Q2395.03 656.471 2389.8 656.471 Q2383.8 656.471 2380.63 651.888 Q2377.46 647.281 2377.46 638.555 Q2377.46 630.36 2381.35 625.499 Q2385.24 620.615 2391.79 620.615 Q2393.55 620.615 2395.33 620.962 Q2397.13 621.309 2399.08 622.004 Z" fill="#000000" fill-rule="nonzero" fill-opacity="1" /><path clip-path="url(#clip960)" d="M2768.63 957.487 L2784.94 957.487 L2784.94 961.422 L2763 961.422 L2763 957.487 Q2765.66 954.732 2770.25 950.103 Q2774.85 945.45 2776.03 944.107 Q2778.28 941.584 2779.16 939.848 Q2780.06 938.089 2780.06 936.399 Q2780.06 933.644 2778.12 931.908 Q2776.19 930.172 2773.09 930.172 Q2770.89 930.172 2768.44 930.936 Q2766.01 931.7 2763.23 933.251 L2763.23 928.529 Q2766.06 927.395 2768.51 926.816 Q2770.96 926.237 2773 926.237 Q2778.37 926.237 2781.57 928.922 Q2784.76 931.607 2784.76 936.098 Q2784.76 938.228 2783.95 940.149 Q2783.16 942.047 2781.06 944.64 Q2780.48 945.311 2777.38 948.529 Q2774.27 951.723 2768.63 957.487 Z" fill="#000000" fill-rule="nonzero" fill-opacity="1" /><path clip-path="url(#clip960)" d="M2804.76 929.941 Q2801.15 929.941 2799.32 933.506 Q2797.51 937.047 2797.51 944.177 Q2797.51 951.283 2799.32 954.848 Q2801.15 958.39 2804.76 958.39 Q2808.39 958.39 2810.2 954.848 Q2812.03 951.283 2812.03 944.177 Q2812.03 937.047 2810.2 933.506 Q2808.39 929.941 2804.76 929.941 M2804.76 926.237 Q2810.57 926.237 2813.63 930.844 Q2816.7 935.427 2816.7 944.177 Q2816.7 952.904 2813.63 957.51 Q2810.57 962.093 2804.76 962.093 Q2798.95 962.093 2795.87 957.51 Q2792.82 952.904 2792.82 944.177 Q2792.82 935.427 2795.87 930.844 Q2798.95 926.237 2804.76 926.237 Z" fill="#000000" fill-rule="nonzero" fill-opacity="1" /><path clip-path="url(#clip960)" d="M2816.22 985.682 L2823.86 985.682 L2823.86 959.317 L2815.55 960.984 L2815.55 956.724 L2823.82 955.058 L2828.49 955.058 L2828.49 985.682 L2836.13 985.682 L2836.13 989.618 L2816.22 989.618 L2816.22 985.682 Z" fill="#000000" fill-rule="nonzero" fill-opacity="1" /><path clip-path="url(#clip960)" d="M2858.42 959.132 L2846.62 977.581 L2858.42 977.581 L2858.42 959.132 M2857.2 955.058 L2863.08 955.058 L2863.08 977.581 L2868.01 977.581 L2868.01 981.47 L2863.08 981.47 L2863.08 989.618 L2858.42 989.618 L2858.42 981.47 L2842.82 981.47 L2842.82 976.956 L2857.2 955.058 Z" fill="#000000" fill-rule="nonzero" fill-opacity="1" /><path clip-path="url(#clip960)" d="M2856.15 797.832 L2863.79 797.832 L2863.79 771.466 L2855.48 773.133 L2855.48 768.873 L2863.75 767.207 L2868.42 767.207 L2868.42 797.832 L2876.06 797.832 L2876.06 801.767 L2856.15 801.767 L2856.15 797.832 Z" fill="#000000" fill-rule="nonzero" fill-opacity="1" /><path clip-path="url(#clip960)" d="M2895.51 770.285 Q2891.9 770.285 2890.07 773.85 Q2888.26 777.392 2888.26 784.522 Q2888.26 791.628 2890.07 795.193 Q2891.9 798.734 2895.51 798.734 Q2899.14 798.734 2900.95 795.193 Q2902.77 791.628 2902.77 784.522 Q2902.77 777.392 2900.95 773.85 Q2899.14 770.285 2895.51 770.285 M2895.51 766.582 Q2901.32 766.582 2904.37 771.188 Q2907.45 775.772 2907.45 784.522 Q2907.45 793.248 2904.37 797.855 Q2901.32 802.438 2895.51 802.438 Q2889.7 802.438 2886.62 797.855 Q2883.56 793.248 2883.56 784.522 Q2883.56 775.772 2886.62 771.188 Q2889.7 766.582 2895.51 766.582 Z" fill="#000000" fill-rule="nonzero" fill-opacity="1" /><path clip-path="url(#clip960)" d="M2914.77 574.696 L2902.96 593.145 L2914.77 593.145 L2914.77 574.696 M2913.54 570.622 L2919.42 570.622 L2919.42 593.145 L2924.35 593.145 L2924.35 597.034 L2919.42 597.034 L2919.42 605.182 L2914.77 605.182 L2914.77 597.034 L2899.17 597.034 L2899.17 592.52 L2913.54 570.622 Z" fill="#000000" fill-rule="nonzero" fill-opacity="1" /><path clip-path="url(#clip960)" d="M2697.38 421.55 L2705.02 421.55 L2705.02 395.185 L2696.71 396.851 L2696.71 392.592 L2704.97 390.926 L2709.65 390.926 L2709.65 421.55 L2717.29 421.55 L2717.29 425.486 L2697.38 425.486 L2697.38 421.55 Z" fill="#000000" fill-rule="nonzero" fill-opacity="1" /><path clip-path="url(#clip960)" d="M2727.54 421.55 L2735.18 421.55 L2735.18 395.185 L2726.87 396.851 L2726.87 392.592 L2735.13 390.926 L2739.81 390.926 L2739.81 421.55 L2747.45 421.55 L2747.45 425.486 L2727.54 425.486 L2727.54 421.55 Z" fill="#000000" fill-rule="nonzero" fill-opacity="1" /><path clip-path="url(#clip960)" d="M2350.71 589.637 L2371.11 589.637 L2371.11 594.556 L2343.68 594.556 L2343.68 589.637 Q2347.01 586.194 2352.74 580.407 Q2358.5 574.591 2359.97 572.913 Q2362.78 569.759 2363.88 567.589 Q2365.01 565.39 2365.01 563.277 Q2365.01 559.834 2362.58 557.664 Q2360.18 555.494 2356.3 555.494 Q2353.55 555.494 2350.48 556.449 Q2347.44 557.404 2343.97 559.342 L2343.97 553.44 Q2347.5 552.022 2350.57 551.298 Q2353.64 550.575 2356.18 550.575 Q2362.9 550.575 2366.89 553.931 Q2370.88 557.288 2370.88 562.901 Q2370.88 565.563 2369.87 567.965 Q2368.88 570.338 2366.25 573.578 Q2365.53 574.417 2361.65 578.439 Q2357.77 582.432 2350.71 589.637 Z" fill="#4682b4" fill-rule="nonzero" fill-opacity="1" /><path clip-path="url(#clip960)" d="M2414.72 574.041 Q2410.55 574.041 2408.15 576.269 Q2405.78 578.497 2405.78 582.404 Q2405.78 586.31 2408.15 588.538 Q2410.55 590.766 2414.72 590.766 Q2418.88 590.766 2421.29 588.538 Q2423.69 586.281 2423.69 582.404 Q2423.69 578.497 2421.29 576.269 Q2418.91 574.041 2414.72 574.041 M2408.87 571.553 Q2405.11 570.627 2403 568.052 Q2400.92 565.477 2400.92 561.773 Q2400.92 556.593 2404.59 553.584 Q2408.29 550.575 2414.72 550.575 Q2421.17 550.575 2424.85 553.584 Q2428.52 556.593 2428.52 561.773 Q2428.52 565.477 2426.41 568.052 Q2424.32 570.627 2420.59 571.553 Q2424.82 572.537 2427.16 575.401 Q2429.53 578.266 2429.53 582.404 Q2429.53 588.682 2425.68 592.039 Q2421.86 595.395 2414.72 595.395 Q2407.57 595.395 2403.72 592.039 Q2399.9 588.682 2399.9 582.404 Q2399.9 578.266 2402.28 575.401 Q2404.65 572.537 2408.87 571.553 M2406.73 562.323 Q2406.73 565.679 2408.82 567.56 Q2410.93 569.441 2414.72 569.441 Q2418.48 569.441 2420.59 567.56 Q2422.73 565.679 2422.73 562.323 Q2422.73 558.966 2420.59 557.085 Q2418.48 555.205 2414.72 555.205 Q2410.93 555.205 2408.82 557.085 Q2406.73 558.966 2406.73 562.323 Z" fill="#4682b4" fill-rule="nonzero" fill-opacity="1" /><path clip-path="url(#clip960)" d="M2458.93 593.659 L2458.93 588.335 Q2461.13 589.377 2463.39 589.927 Q2465.64 590.476 2467.81 590.476 Q2473.6 590.476 2476.64 586.599 Q2479.71 582.693 2480.14 574.765 Q2478.46 577.253 2475.89 578.584 Q2473.31 579.915 2470.19 579.915 Q2463.7 579.915 2459.91 576.009 Q2456.15 572.074 2456.15 565.274 Q2456.15 558.619 2460.09 554.597 Q2464.02 550.575 2470.56 550.575 Q2478.06 550.575 2481.99 556.333 Q2485.96 562.062 2485.96 573 Q2485.96 583.214 2481.09 589.319 Q2476.26 595.395 2468.07 595.395 Q2465.87 595.395 2463.62 594.961 Q2461.36 594.527 2458.93 593.659 M2470.56 575.343 Q2474.5 575.343 2476.78 572.652 Q2479.1 569.961 2479.1 565.274 Q2479.1 560.615 2476.78 557.924 Q2474.5 555.205 2470.56 555.205 Q2466.63 555.205 2464.31 557.924 Q2462.03 560.615 2462.03 565.274 Q2462.03 569.961 2464.31 572.652 Q2466.63 575.343 2470.56 575.343 Z" fill="#4682b4" fill-rule="nonzero" fill-opacity="1" /><path clip-path="url(#clip960)" d="M2516.31 589.637 L2525.86 589.637 L2525.86 556.68 L2515.47 558.764 L2515.47 553.44 L2525.8 551.356 L2531.64 551.356 L2531.64 589.637 L2541.19 589.637 L2541.19 594.556 L2516.31 594.556 L2516.31 589.637 Z" fill="#4682b4" fill-rule="nonzero" fill-opacity="1" /><path clip-path="url(#clip960)" d="M2554.01 589.637 L2563.56 589.637 L2563.56 556.68 L2553.17 558.764 L2553.17 553.44 L2563.5 551.356 L2569.35 551.356 L2569.35 589.637 L2578.9 589.637 L2578.9 594.556 L2554.01 594.556 L2554.01 589.637 Z" fill="#4682b4" fill-rule="nonzero" fill-opacity="1" /><path clip-path="url(#clip960)" d="M2614.57 589.637 L2634.97 589.637 L2634.97 594.556 L2607.54 594.556 L2607.54 589.637 Q2610.87 586.194 2616.6 580.407 Q2622.36 574.591 2623.83 572.913 Q2626.64 569.759 2627.74 567.589 Q2628.87 565.39 2628.87 563.277 Q2628.87 559.834 2626.44 557.664 Q2624.03 555.494 2620.16 555.494 Q2617.41 555.494 2614.34 556.449 Q2611.3 557.404 2607.83 559.342 L2607.83 553.44 Q2611.36 552.022 2614.43 551.298 Q2617.49 550.575 2620.04 550.575 Q2626.75 550.575 2630.75 553.931 Q2634.74 557.288 2634.74 562.901 Q2634.74 565.563 2633.73 567.965 Q2632.74 570.338 2630.11 573.578 Q2629.39 574.417 2625.51 578.439 Q2621.63 582.432 2614.57 589.637 Z" fill="#4682b4" fill-rule="nonzero" fill-opacity="1" /><path clip-path="url(#clip960)" d="M2647.3 551.356 L2670.24 551.356 L2670.24 556.275 L2652.65 556.275 L2652.65 566.865 Q2653.92 566.431 2655.2 566.229 Q2656.47 565.997 2657.74 565.997 Q2664.98 565.997 2669.2 569.961 Q2673.43 573.926 2673.43 580.696 Q2673.43 587.67 2669.09 591.547 Q2664.75 595.395 2656.85 595.395 Q2654.13 595.395 2651.29 594.932 Q2648.48 594.469 2645.47 593.543 L2645.47 587.67 Q2648.08 589.087 2650.86 589.782 Q2653.63 590.476 2656.73 590.476 Q2661.74 590.476 2664.66 587.843 Q2667.58 585.21 2667.58 580.696 Q2667.58 576.182 2664.66 573.549 Q2661.74 570.916 2656.73 570.916 Q2654.39 570.916 2652.04 571.437 Q2649.73 571.958 2647.3 573.057 L2647.3 551.356 Z" fill="#4682b4" fill-rule="nonzero" fill-opacity="1" /></svg>
