<?xml version="1.0" encoding="utf-8"?>
<svg xmlns="http://www.w3.org/2000/svg" xmlns:xlink="http://www.w3.org/1999/xlink" width="400" height="400" viewBox="0 0 1600 1600">
<defs>
  <clipPath id="clip690">
    <rect x="0" y="0" width="1600" height="1600"/>
  </clipPath>
</defs>
<path clip-path="url(#clip690)" d="M0 1600 L1600 1600 L1600 0 L0 0  Z" fill="#ffffff" fill-rule="evenodd" fill-opacity="1"/>
<defs>
  <clipPath id="clip691">
    <rect x="320" y="160" width="1121" height="1121"/>
  </clipPath>
</defs>
<path clip-path="url(#clip690)" d="M111.105 1552.76 L1488.89 1552.76 L1488.89 153.712 L111.105 153.712  Z" fill="#ffffff" fill-rule="evenodd" fill-opacity="1"/>
<defs>
  <clipPath id="clip692">
    <rect x="111" y="153" width="1379" height="1400"/>
  </clipPath>
</defs>
<polyline clip-path="url(#clip690)" style="stroke:#000000; stroke-linecap:round; stroke-linejoin:round; stroke-width:4; stroke-opacity:1; fill:none" points="111.105,1552.76 1488.89,1552.76 "/>
<polyline clip-path="url(#clip690)" style="stroke:#000000; stroke-linecap:round; stroke-linejoin:round; stroke-width:4; stroke-opacity:1; fill:none" points="111.105,153.712 1488.89,153.712 "/>
<polyline clip-path="url(#clip690)" style="stroke:#000000; stroke-linecap:round; stroke-linejoin:round; stroke-width:4; stroke-opacity:1; fill:none" points="111.105,1552.76 111.105,153.712 "/>
<polyline clip-path="url(#clip690)" style="stroke:#000000; stroke-linecap:round; stroke-linejoin:round; stroke-width:4; stroke-opacity:1; fill:none" points="1488.89,1552.76 1488.89,153.712 "/>
<path clip-path="url(#clip690)" d="M521.136 65.6895 L534.504 65.6895 L534.504 19.5497 L519.961 22.4663 L519.961 15.0127 L534.423 12.096 L542.606 12.096 L542.606 65.6895 L555.974 65.6895 L555.974 72.576 L521.136 72.576 L521.136 65.6895 Z" fill="#000000" fill-rule="nonzero" fill-opacity="1" /><path clip-path="url(#clip690)" d="M572.582 12.096 L604.706 12.096 L604.706 18.9825 L580.076 18.9825 L580.076 33.8088 Q581.859 33.2012 583.641 32.9176 Q585.424 32.5936 587.206 32.5936 Q597.333 32.5936 603.248 38.1433 Q609.162 43.6931 609.162 53.1722 Q609.162 62.9348 603.086 68.3631 Q597.009 73.7508 585.95 73.7508 Q582.142 73.7508 578.172 73.1026 Q574.243 72.4545 570.03 71.1582 L570.03 62.9348 Q573.676 64.9198 577.565 65.892 Q581.454 66.8642 585.788 66.8642 Q592.796 66.8642 596.888 63.1779 Q600.979 59.4916 600.979 53.1722 Q600.979 46.8528 596.888 43.1664 Q592.796 39.4801 585.788 39.4801 Q582.507 39.4801 579.226 40.2093 Q575.985 40.9384 572.582 42.4778 L572.582 12.096 Z" fill="#000000" fill-rule="nonzero" fill-opacity="1" /><path clip-path="url(#clip690)" d="M654.573 20.5624 L654.573 43.1259 L677.136 43.1259 L677.136 50.0125 L654.573 50.0125 L654.573 72.576 L647.767 72.576 L647.767 50.0125 L625.203 50.0125 L625.203 43.1259 L647.767 43.1259 L647.767 20.5624 L654.573 20.5624 Z" fill="#000000" fill-rule="nonzero" fill-opacity="1" /><path clip-path="url(#clip690)" d="M722.587 65.6895 L735.955 65.6895 L735.955 19.5497 L721.412 22.4663 L721.412 15.0127 L735.874 12.096 L744.057 12.096 L744.057 65.6895 L757.425 65.6895 L757.425 72.576 L722.587 72.576 L722.587 65.6895 Z" fill="#000000" fill-rule="nonzero" fill-opacity="1" /><path clip-path="url(#clip690)" d="M774.196 71.3202 L774.196 63.8666 Q777.274 65.3249 780.434 66.0946 Q783.594 66.8642 786.632 66.8642 Q794.734 66.8642 798.987 61.436 Q803.281 55.9673 803.889 44.8678 Q801.539 48.3516 797.934 50.215 Q794.329 52.0784 789.954 52.0784 Q780.88 52.0784 775.573 46.6097 Q770.307 41.1005 770.307 31.5808 Q770.307 22.2638 775.816 16.633 Q781.325 11.0023 790.48 11.0023 Q800.972 11.0023 806.481 19.0636 Q812.031 27.0843 812.031 42.3968 Q812.031 56.6965 805.226 65.2439 Q798.461 73.7508 786.997 73.7508 Q783.918 73.7508 780.758 73.1431 Q777.598 72.5355 774.196 71.3202 M790.48 45.678 Q795.99 45.678 799.19 41.9107 Q802.431 38.1433 802.431 31.5808 Q802.431 25.0589 799.19 21.2916 Q795.99 17.4837 790.48 17.4837 Q784.971 17.4837 781.73 21.2916 Q778.53 25.0589 778.53 31.5808 Q778.53 38.1433 781.73 41.9107 Q784.971 45.678 790.48 45.678 Z" fill="#000000" fill-rule="nonzero" fill-opacity="1" /><path clip-path="url(#clip690)" d="M856.024 20.5624 L856.024 43.1259 L878.588 43.1259 L878.588 50.0125 L856.024 50.0125 L856.024 72.576 L849.218 72.576 L849.218 50.0125 L826.655 50.0125 L826.655 43.1259 L849.218 43.1259 L849.218 20.5624 L856.024 20.5624 Z" fill="#000000" fill-rule="nonzero" fill-opacity="1" /><path clip-path="url(#clip690)" d="M929.669 65.6895 L958.228 65.6895 L958.228 72.576 L919.826 72.576 L919.826 65.6895 Q924.484 60.8689 932.505 52.7671 Q940.566 44.6248 942.632 42.2752 Q946.562 37.8598 948.101 34.8216 Q949.681 31.7429 949.681 28.7857 Q949.681 23.9651 946.278 20.927 Q942.916 17.8888 937.488 17.8888 Q933.639 17.8888 929.345 19.2256 Q925.092 20.5624 920.231 23.2765 L920.231 15.0127 Q925.173 13.0277 929.467 12.015 Q933.761 11.0023 937.326 11.0023 Q946.724 11.0023 952.314 15.7013 Q957.904 20.4004 957.904 28.2591 Q957.904 31.9859 956.486 35.3482 Q955.109 38.6699 951.423 43.2069 Q950.41 44.3817 944.982 50.0125 Q939.554 55.6027 929.669 65.6895 Z" fill="#000000" fill-rule="nonzero" fill-opacity="1" /><path clip-path="url(#clip690)" d="M976.822 65.6895 L990.19 65.6895 L990.19 19.5497 L975.647 22.4663 L975.647 15.0127 L990.109 12.096 L998.292 12.096 L998.292 65.6895 L1011.66 65.6895 L1011.66 72.576 L976.822 72.576 L976.822 65.6895 Z" fill="#000000" fill-rule="nonzero" fill-opacity="1" /><path clip-path="url(#clip690)" d="M1057.48 20.5624 L1057.48 43.1259 L1080.04 43.1259 L1080.04 50.0125 L1057.48 50.0125 L1057.48 72.576 L1050.67 72.576 L1050.67 50.0125 L1028.11 50.0125 L1028.11 43.1259 L1050.67 43.1259 L1050.67 20.5624 L1057.48 20.5624 Z" fill="#000000" fill-rule="nonzero" fill-opacity="1" /><path clip-path="url(#clip692)" d="M1113.63 579.286 L861.156 433.521 L574.055 484.144 L386.663 707.469 L386.663 998.999 L574.055 1222.32 L861.156 1272.95 L1113.63 1127.18 L1213.34 853.234 L1113.63 579.286  Z" fill="#cae1ff" fill-rule="evenodd" fill-opacity="0.5"/>
<polyline clip-path="url(#clip692)" style="stroke:#4682b4; stroke-linecap:round; stroke-linejoin:round; stroke-width:8; stroke-opacity:1; fill:none" points="1113.63,579.286 861.156,433.521 574.055,484.144 386.663,707.469 386.663,998.999 574.055,1222.32 861.156,1272.95 1113.63,1127.18 1213.34,853.234 1113.63,579.286 "/>
<circle clip-path="url(#clip692)" cx="1113.63" cy="579.286" r="18" fill="#4682b4" fill-rule="evenodd" fill-opacity="1" stroke="none"/>
<circle clip-path="url(#clip692)" cx="861.156" cy="433.521" r="18" fill="#4682b4" fill-rule="evenodd" fill-opacity="1" stroke="none"/>
<circle clip-path="url(#clip692)" cx="574.055" cy="484.144" r="18" fill="#4682b4" fill-rule="evenodd" fill-opacity="1" stroke="none"/>
<circle clip-path="url(#clip692)" cx="386.663" cy="707.469" r="18" fill="#4682b4" fill-rule="evenodd" fill-opacity="1" stroke="none"/>
<circle clip-path="url(#clip692)" cx="386.663" cy="998.999" r="18" fill="#4682b4" fill-rule="evenodd" fill-opacity="1" stroke="none"/>
<circle clip-path="url(#clip692)" cx="574.055" cy="1222.32" r="18" fill="#4682b4" fill-rule="evenodd" fill-opacity="1" stroke="none"/>
<circle clip-path="url(#clip692)" cx="861.156" cy="1272.95" r="18" fill="#4682b4" fill-rule="evenodd" fill-opacity="1" stroke="none"/>
<circle clip-path="url(#clip692)" cx="1113.63" cy="1127.18" r="18" fill="#4682b4" fill-rule="evenodd" fill-opacity="1" stroke="none"/>
<circle clip-path="url(#clip692)" cx="1213.34" cy="853.234" r="18" fill="#4682b4" fill-rule="evenodd" fill-opacity="1" stroke="none"/>
<path clip-path="url(#clip690)" d="M1228.26 455.652 L1237.81 455.652 L1237.81 422.695 L1227.42 424.779 L1227.42 419.454 L1237.75 417.371 L1243.59 417.371 L1243.59 455.652 L1253.14 455.652 L1253.14 460.571 L1228.26 460.571 L1228.26 455.652 Z" fill="#000000" fill-rule="nonzero" fill-opacity="1" /><path clip-path="url(#clip690)" d="M1192.51 486.02 Q1188 486.02 1185.71 490.476 Q1183.45 494.903 1183.45 503.815 Q1183.45 512.698 1185.71 517.154 Q1188 521.581 1192.51 521.581 Q1197.05 521.581 1199.31 517.154 Q1201.6 512.698 1201.6 503.815 Q1201.6 494.903 1199.31 490.476 Q1197.05 486.02 1192.51 486.02 M1192.51 481.39 Q1199.77 481.39 1203.59 487.148 Q1207.44 492.877 1207.44 503.815 Q1207.44 514.723 1203.59 520.481 Q1199.77 526.21 1192.51 526.21 Q1185.25 526.21 1181.4 520.481 Q1177.58 514.723 1177.58 503.815 Q1177.58 492.877 1181.4 487.148 Q1185.25 481.39 1192.51 481.39 Z" fill="#000000" fill-rule="nonzero" fill-opacity="1" /><path clip-path="url(#clip690)" d="M1242.65 480.088 L1242.65 539.347 L1237.74 539.347 L1237.74 480.088 L1242.65 480.088 Z" fill="#000000" fill-rule="nonzero" fill-opacity="1" /><path clip-path="url(#clip690)" d="M1288.57 501.442 Q1284.64 501.442 1282.32 504.133 Q1280.04 506.824 1280.04 511.511 Q1280.04 516.17 1282.32 518.89 Q1284.64 521.581 1288.57 521.581 Q1292.51 521.581 1294.8 518.89 Q1297.11 516.17 1297.11 511.511 Q1297.11 506.824 1294.8 504.133 Q1292.51 501.442 1288.57 501.442 M1300.18 483.126 L1300.18 488.45 Q1297.98 487.408 1295.72 486.859 Q1293.49 486.309 1291.29 486.309 Q1285.51 486.309 1282.44 490.215 Q1279.4 494.121 1278.97 502.021 Q1280.67 499.503 1283.25 498.172 Q1285.83 496.812 1288.92 496.812 Q1295.43 496.812 1299.19 500.776 Q1302.98 504.712 1302.98 511.511 Q1302.98 518.166 1299.05 522.188 Q1295.11 526.21 1288.57 526.21 Q1281.08 526.21 1277.12 520.481 Q1273.15 514.723 1273.15 503.815 Q1273.15 493.572 1278.01 487.495 Q1282.87 481.39 1291.06 481.39 Q1293.26 481.39 1295.49 481.824 Q1297.75 482.258 1300.18 483.126 Z" fill="#000000" fill-rule="nonzero" fill-opacity="1" /><path clip-path="url(#clip690)" d="M863.954 252.467 L884.354 252.467 L884.354 257.386 L856.923 257.386 L856.923 252.467 Q860.251 249.024 865.98 243.237 Q871.738 237.421 873.214 235.743 Q876.02 232.589 877.12 230.419 Q878.248 228.22 878.248 226.107 Q878.248 222.664 875.818 220.494 Q873.416 218.324 869.539 218.324 Q866.79 218.324 863.723 219.279 Q860.685 220.234 857.213 222.172 L857.213 216.27 Q860.743 214.852 863.81 214.128 Q866.877 213.405 869.423 213.405 Q876.136 213.405 880.129 216.761 Q884.122 220.118 884.122 225.731 Q884.122 228.393 883.109 230.795 Q882.126 233.168 879.492 236.408 Q878.769 237.247 874.892 241.269 Q871.015 245.262 863.954 252.467 Z" fill="#000000" fill-rule="nonzero" fill-opacity="1" /><path clip-path="url(#clip690)" d="M896.68 214.186 L919.625 214.186 L919.625 219.105 L902.033 219.105 L902.033 229.695 Q903.306 229.261 904.579 229.059 Q905.852 228.827 907.125 228.827 Q914.359 228.827 918.584 232.791 Q922.808 236.756 922.808 243.526 Q922.808 250.5 918.468 254.377 Q914.128 258.225 906.228 258.225 Q903.509 258.225 900.673 257.762 Q897.866 257.299 894.857 256.373 L894.857 250.5 Q897.461 251.917 900.239 252.612 Q903.017 253.306 906.113 253.306 Q911.118 253.306 914.041 250.673 Q916.963 248.04 916.963 243.526 Q916.963 239.012 914.041 236.379 Q911.118 233.746 906.113 233.746 Q903.769 233.746 901.425 234.267 Q899.11 234.788 896.68 235.887 L896.68 214.186 Z" fill="#000000" fill-rule="nonzero" fill-opacity="1" /><path clip-path="url(#clip690)" d="M830.028 317.267 L839.577 317.267 L839.577 284.31 L829.189 286.394 L829.189 281.07 L839.519 278.986 L845.364 278.986 L845.364 317.267 L854.912 317.267 L854.912 322.186 L830.028 322.186 L830.028 317.267 Z" fill="#000000" fill-rule="nonzero" fill-opacity="1" /><path clip-path="url(#clip690)" d="M891.66 276.903 L891.66 336.162 L886.741 336.162 L886.741 276.903 L891.66 276.903 Z" fill="#000000" fill-rule="nonzero" fill-opacity="1" /><path clip-path="url(#clip690)" d="M924.414 278.986 L947.36 278.986 L947.36 283.905 L929.767 283.905 L929.767 294.495 Q931.04 294.061 932.313 293.859 Q933.587 293.627 934.86 293.627 Q942.093 293.627 946.318 297.591 Q950.542 301.556 950.542 308.326 Q950.542 315.3 946.202 319.177 Q941.862 323.025 933.963 323.025 Q931.243 323.025 928.407 322.562 Q925.6 322.099 922.591 321.173 L922.591 315.3 Q925.195 316.717 927.973 317.412 Q930.751 318.106 933.847 318.106 Q938.853 318.106 941.775 315.473 Q944.698 312.84 944.698 308.326 Q944.698 303.812 941.775 301.179 Q938.853 298.546 933.847 298.546 Q931.503 298.546 929.159 299.067 Q926.845 299.588 924.414 300.687 L924.414 278.986 Z" fill="#000000" fill-rule="nonzero" fill-opacity="1" /><path clip-path="url(#clip690)" d="M460.326 284.752 L483.271 284.752 L483.271 289.671 L465.679 289.671 L465.679 300.261 Q466.952 299.827 468.225 299.624 Q469.498 299.393 470.771 299.393 Q478.005 299.393 482.23 303.357 Q486.454 307.321 486.454 314.092 Q486.454 321.065 482.114 324.942 Q477.774 328.791 469.874 328.791 Q467.154 328.791 464.319 328.328 Q461.512 327.865 458.503 326.939 L458.503 321.065 Q461.107 322.483 463.885 323.177 Q466.663 323.872 469.759 323.872 Q474.764 323.872 477.687 321.239 Q480.609 318.606 480.609 314.092 Q480.609 309.578 477.687 306.945 Q474.764 304.312 469.759 304.312 Q467.415 304.312 465.071 304.832 Q462.756 305.353 460.326 306.453 L460.326 284.752 Z" fill="#000000" fill-rule="nonzero" fill-opacity="1" /><path clip-path="url(#clip690)" d="M496.495 284.752 L524.272 284.752 L524.272 287.24 L508.589 327.952 L502.484 327.952 L517.241 289.671 L496.495 289.671 L496.495 284.752 Z" fill="#000000" fill-rule="nonzero" fill-opacity="1" /><path clip-path="url(#clip690)" d="M435.731 387.833 L456.13 387.833 L456.13 392.752 L428.7 392.752 L428.7 387.833 Q432.027 384.389 437.756 378.602 Q443.515 372.786 444.99 371.108 Q447.797 367.954 448.896 365.784 Q450.025 363.585 450.025 361.473 Q450.025 358.03 447.594 355.859 Q445.193 353.689 441.316 353.689 Q438.567 353.689 435.5 354.644 Q432.461 355.599 428.989 357.538 L428.989 351.635 Q432.519 350.217 435.586 349.494 Q438.653 348.77 441.2 348.77 Q447.913 348.77 451.906 352.127 Q455.899 355.483 455.899 361.097 Q455.899 363.759 454.886 366.16 Q453.902 368.533 451.269 371.774 Q450.546 372.613 446.668 376.635 Q442.791 380.628 435.731 387.833 Z" fill="#000000" fill-rule="nonzero" fill-opacity="1" /><path clip-path="url(#clip690)" d="M493.341 347.468 L493.341 406.727 L488.422 406.727 L488.422 347.468 L493.341 347.468 Z" fill="#000000" fill-rule="nonzero" fill-opacity="1" /><path clip-path="url(#clip690)" d="M542.096 354.644 L527.339 377.705 L542.096 377.705 L542.096 354.644 M540.563 349.552 L547.912 349.552 L547.912 377.705 L554.075 377.705 L554.075 382.566 L547.912 382.566 L547.912 392.752 L542.096 392.752 L542.096 382.566 L522.594 382.566 L522.594 376.924 L540.563 349.552 Z" fill="#000000" fill-rule="nonzero" fill-opacity="1" /><path clip-path="url(#clip690)" d="M199.572 596.049 L222.518 596.049 L222.518 600.968 L204.925 600.968 L204.925 611.558 Q206.198 611.124 207.471 610.922 Q208.745 610.69 210.018 610.69 Q217.251 610.69 221.476 614.654 Q225.701 618.618 225.701 625.389 Q225.701 632.362 221.36 636.24 Q217.02 640.088 209.121 640.088 Q206.401 640.088 203.565 639.625 Q200.759 639.162 197.749 638.236 L197.749 632.362 Q200.353 633.78 203.131 634.475 Q205.909 635.169 209.005 635.169 Q214.011 635.169 216.933 632.536 Q219.856 629.903 219.856 625.389 Q219.856 620.875 216.933 618.242 Q214.011 615.609 209.005 615.609 Q206.661 615.609 204.318 616.13 Q202.003 616.651 199.572 617.75 L199.572 596.049 Z" fill="#000000" fill-rule="nonzero" fill-opacity="1" /><path clip-path="url(#clip690)" d="M250.44 615.32 Q246.505 615.32 244.19 618.011 Q241.904 620.702 241.904 625.389 Q241.904 630.048 244.19 632.768 Q246.505 635.459 250.44 635.459 Q254.375 635.459 256.661 632.768 Q258.976 630.048 258.976 625.389 Q258.976 620.702 256.661 618.011 Q254.375 615.32 250.44 615.32 M262.043 597.004 L262.043 602.328 Q259.844 601.286 257.587 600.737 Q255.359 600.187 253.16 600.187 Q247.373 600.187 244.306 604.093 Q241.268 607.999 240.834 615.898 Q242.541 613.381 245.116 612.05 Q247.691 610.69 250.787 610.69 Q257.298 610.69 261.059 614.654 Q264.85 618.589 264.85 625.389 Q264.85 632.044 260.914 636.066 Q256.979 640.088 250.44 640.088 Q242.946 640.088 238.982 634.359 Q235.018 628.601 235.018 617.692 Q235.018 607.449 239.879 601.373 Q244.74 595.268 252.928 595.268 Q255.127 595.268 257.355 595.702 Q259.612 596.136 262.043 597.004 Z" fill="#000000" fill-rule="nonzero" fill-opacity="1" /><path clip-path="url(#clip690)" d="M188.939 680.756 Q193.134 681.653 195.478 684.489 Q197.851 687.325 197.851 691.491 Q197.851 697.886 193.452 701.387 Q189.054 704.888 180.953 704.888 Q178.233 704.888 175.339 704.338 Q172.475 703.818 169.407 702.747 L169.407 697.105 Q171.838 698.522 174.731 699.246 Q177.625 699.969 180.779 699.969 Q186.277 699.969 189.141 697.799 Q192.035 695.629 192.035 691.491 Q192.035 687.672 189.344 685.531 Q186.682 683.36 181.907 683.36 L176.873 683.36 L176.873 678.557 L182.139 678.557 Q186.45 678.557 188.736 676.85 Q191.022 675.114 191.022 671.873 Q191.022 668.546 188.649 666.781 Q186.305 664.987 181.907 664.987 Q179.506 664.987 176.757 665.508 Q174.008 666.028 170.71 667.128 L170.71 661.92 Q174.037 660.994 176.931 660.531 Q179.853 660.068 182.428 660.068 Q189.083 660.068 192.961 663.106 Q196.838 666.115 196.838 671.266 Q196.838 674.854 194.783 677.342 Q192.729 679.801 188.939 680.756 Z" fill="#000000" fill-rule="nonzero" fill-opacity="1" /><path clip-path="url(#clip690)" d="M233.875 658.766 L233.875 718.025 L228.956 718.025 L228.956 658.766 L233.875 658.766 Z" fill="#000000" fill-rule="nonzero" fill-opacity="1" /><path clip-path="url(#clip690)" d="M284.279 680.756 Q288.475 681.653 290.819 684.489 Q293.191 687.325 293.191 691.491 Q293.191 697.886 288.793 701.387 Q284.395 704.888 276.293 704.888 Q273.574 704.888 270.68 704.338 Q267.815 703.818 264.748 702.747 L264.748 697.105 Q267.179 698.522 270.072 699.246 Q272.966 699.969 276.12 699.969 Q281.617 699.969 284.482 697.799 Q287.376 695.629 287.376 691.491 Q287.376 687.672 284.685 685.531 Q282.023 683.36 277.248 683.36 L272.214 683.36 L272.214 678.557 L277.48 678.557 Q281.791 678.557 284.077 676.85 Q286.363 675.114 286.363 671.873 Q286.363 668.546 283.99 666.781 Q281.646 664.987 277.248 664.987 Q274.847 664.987 272.098 665.508 Q269.349 666.028 266.05 667.128 L266.05 661.92 Q269.378 660.994 272.271 660.531 Q275.194 660.068 277.769 660.068 Q284.424 660.068 288.301 663.106 Q292.179 666.115 292.179 671.266 Q292.179 674.854 290.124 677.342 Q288.07 679.801 284.279 680.756 Z" fill="#000000" fill-rule="nonzero" fill-opacity="1" /><path clip-path="url(#clip690)" d="M181.43 1040.7 L190.978 1040.7 L190.978 1007.74 L180.591 1009.83 L180.591 1004.5 L190.921 1002.42 L196.765 1002.42 L196.765 1040.7 L206.314 1040.7 L206.314 1045.62 L181.43 1045.62 L181.43 1040.7 Z" fill="#000000" fill-rule="nonzero" fill-opacity="1" /><path clip-path="url(#clip690)" d="M218.177 1002.42 L241.123 1002.42 L241.123 1007.34 L223.53 1007.34 L223.53 1017.93 Q224.804 1017.49 226.077 1017.29 Q227.35 1017.06 228.623 1017.06 Q235.857 1017.06 240.081 1021.02 Q244.306 1024.99 244.306 1031.76 Q244.306 1038.73 239.965 1042.61 Q235.625 1046.46 227.726 1046.46 Q225.006 1046.46 222.17 1046 Q219.364 1045.53 216.355 1044.61 L216.355 1038.73 Q218.959 1040.15 221.736 1040.84 Q224.514 1041.54 227.61 1041.54 Q232.616 1041.54 235.538 1038.91 Q238.461 1036.27 238.461 1031.76 Q238.461 1027.25 235.538 1024.61 Q232.616 1021.98 227.61 1021.98 Q225.267 1021.98 222.923 1022.5 Q220.608 1023.02 218.177 1024.12 L218.177 1002.42 Z" fill="#000000" fill-rule="nonzero" fill-opacity="1" /><path clip-path="url(#clip690)" d="M255.88 1002.42 L278.825 1002.42 L278.825 1007.34 L261.233 1007.34 L261.233 1017.93 Q262.506 1017.49 263.779 1017.29 Q265.052 1017.06 266.325 1017.06 Q273.559 1017.06 277.784 1021.02 Q282.008 1024.99 282.008 1031.76 Q282.008 1038.73 277.668 1042.61 Q273.328 1046.46 265.428 1046.46 Q262.708 1046.46 259.873 1046 Q257.066 1045.53 254.057 1044.61 L254.057 1038.73 Q256.661 1040.15 259.439 1040.84 Q262.217 1041.54 265.313 1041.54 Q270.318 1041.54 273.241 1038.91 Q276.163 1036.27 276.163 1031.76 Q276.163 1027.25 273.241 1024.61 Q270.318 1021.98 265.313 1021.98 Q262.969 1021.98 260.625 1022.5 Q258.31 1023.02 255.88 1024.12 L255.88 1002.42 Z" fill="#000000" fill-rule="nonzero" fill-opacity="1" /><path clip-path="url(#clip690)" d="M188.099 1072.31 L173.343 1095.37 L188.099 1095.37 L188.099 1072.31 M186.566 1067.22 L193.915 1067.22 L193.915 1095.37 L200.079 1095.37 L200.079 1100.23 L193.915 1100.23 L193.915 1110.42 L188.099 1110.42 L188.099 1100.23 L168.597 1100.23 L168.597 1094.59 L186.566 1067.22 Z" fill="#000000" fill-rule="nonzero" fill-opacity="1" /><path clip-path="url(#clip690)" d="M234.685 1065.14 L234.685 1124.39 L229.766 1124.39 L229.766 1065.14 L234.685 1065.14 Z" fill="#000000" fill-rule="nonzero" fill-opacity="1" /><path clip-path="url(#clip690)" d="M285.09 1087.13 Q289.285 1088.02 291.629 1090.86 Q294.002 1093.69 294.002 1097.86 Q294.002 1104.26 289.604 1107.76 Q285.205 1111.26 277.104 1111.26 Q274.384 1111.26 271.49 1110.71 Q268.626 1110.19 265.559 1109.12 L265.559 1103.47 Q267.989 1104.89 270.883 1105.62 Q273.776 1106.34 276.93 1106.34 Q282.428 1106.34 285.292 1104.17 Q288.186 1102 288.186 1097.86 Q288.186 1094.04 285.495 1091.9 Q282.833 1089.73 278.058 1089.73 L273.024 1089.73 L273.024 1084.93 L278.29 1084.93 Q282.601 1084.93 284.887 1083.22 Q287.173 1081.48 287.173 1078.24 Q287.173 1074.92 284.8 1073.15 Q282.457 1071.36 278.058 1071.36 Q275.657 1071.36 272.908 1071.88 Q270.159 1072.4 266.861 1073.5 L266.861 1068.29 Q270.188 1067.36 273.082 1066.9 Q276.004 1066.44 278.579 1066.44 Q285.234 1066.44 289.112 1069.48 Q292.989 1072.49 292.989 1077.64 Q292.989 1081.22 290.935 1083.71 Q288.88 1086.17 285.09 1087.13 Z" fill="#000000" fill-rule="nonzero" fill-opacity="1" /><path clip-path="url(#clip690)" d="M440.795 1352 L450.343 1352 L450.343 1319.04 L439.956 1321.12 L439.956 1315.8 L450.285 1313.72 L456.13 1313.72 L456.13 1352 L465.679 1352 L465.679 1356.92 L440.795 1356.92 L440.795 1352 Z" fill="#000000" fill-rule="nonzero" fill-opacity="1" /><path clip-path="url(#clip690)" d="M477.542 1313.72 L500.488 1313.72 L500.488 1318.64 L482.895 1318.64 L482.895 1329.23 Q484.168 1328.79 485.441 1328.59 Q486.715 1328.36 487.988 1328.36 Q495.221 1328.36 499.446 1332.32 Q503.67 1336.29 503.67 1343.06 Q503.67 1350.03 499.33 1353.91 Q494.99 1357.76 487.091 1357.76 Q484.371 1357.76 481.535 1357.29 Q478.728 1356.83 475.719 1355.9 L475.719 1350.03 Q478.323 1351.45 481.101 1352.14 Q483.879 1352.84 486.975 1352.84 Q491.981 1352.84 494.903 1350.2 Q497.826 1347.57 497.826 1343.06 Q497.826 1338.54 494.903 1335.91 Q491.981 1333.28 486.975 1333.28 Q484.631 1333.28 482.288 1333.8 Q479.973 1334.32 477.542 1335.42 L477.542 1313.72 Z" fill="#000000" fill-rule="nonzero" fill-opacity="1" /><path clip-path="url(#clip690)" d="M528.41 1332.99 Q524.475 1332.99 522.16 1335.68 Q519.874 1338.37 519.874 1343.06 Q519.874 1347.72 522.16 1350.43 Q524.475 1353.13 528.41 1353.13 Q532.345 1353.13 534.631 1350.43 Q536.946 1347.72 536.946 1343.06 Q536.946 1338.37 534.631 1335.68 Q532.345 1332.99 528.41 1332.99 M540.013 1314.67 L540.013 1320 Q537.814 1318.95 535.557 1318.4 Q533.329 1317.85 531.13 1317.85 Q525.343 1317.85 522.276 1321.76 Q519.238 1325.67 518.804 1333.57 Q520.511 1331.05 523.086 1329.72 Q525.661 1328.36 528.757 1328.36 Q535.268 1328.36 539.029 1332.32 Q542.82 1336.26 542.82 1343.06 Q542.82 1349.71 538.884 1353.73 Q534.949 1357.76 528.41 1357.76 Q520.916 1357.76 516.952 1352.03 Q512.988 1346.27 512.988 1335.36 Q512.988 1325.12 517.849 1319.04 Q522.71 1312.94 530.898 1312.94 Q533.097 1312.94 535.325 1313.37 Q537.582 1313.8 540.013 1314.67 Z" fill="#000000" fill-rule="nonzero" fill-opacity="1" /><path clip-path="url(#clip690)" d="M448.188 1383.61 L433.431 1406.67 L448.188 1406.67 L448.188 1383.61 M446.654 1378.52 L454.004 1378.52 L454.004 1406.67 L460.167 1406.67 L460.167 1411.53 L454.004 1411.53 L454.004 1421.72 L448.188 1421.72 L448.188 1411.53 L428.685 1411.53 L428.685 1405.89 L446.654 1378.52 Z" fill="#000000" fill-rule="nonzero" fill-opacity="1" /><path clip-path="url(#clip690)" d="M494.773 1376.43 L494.773 1435.69 L489.854 1435.69 L489.854 1376.43 L494.773 1376.43 Z" fill="#000000" fill-rule="nonzero" fill-opacity="1" /><path clip-path="url(#clip690)" d="M545.178 1398.42 Q549.373 1399.32 551.717 1402.16 Q554.09 1404.99 554.09 1409.16 Q554.09 1415.55 549.692 1419.05 Q545.294 1422.56 537.192 1422.56 Q534.472 1422.56 531.578 1422.01 Q528.714 1421.48 525.647 1420.41 L525.647 1414.77 Q528.077 1416.19 530.971 1416.91 Q533.864 1417.64 537.018 1417.64 Q542.516 1417.64 545.38 1415.47 Q548.274 1413.3 548.274 1409.16 Q548.274 1405.34 545.583 1403.2 Q542.921 1401.03 538.147 1401.03 L533.112 1401.03 L533.112 1396.22 L538.378 1396.22 Q542.689 1396.22 544.975 1394.52 Q547.261 1392.78 547.261 1389.54 Q547.261 1386.21 544.888 1384.45 Q542.545 1382.65 538.147 1382.65 Q535.745 1382.65 532.996 1383.17 Q530.247 1383.7 526.949 1384.8 L526.949 1379.59 Q530.276 1378.66 533.17 1378.2 Q536.092 1377.74 538.667 1377.74 Q545.322 1377.74 549.2 1380.77 Q553.077 1383.78 553.077 1388.93 Q553.077 1392.52 551.023 1395.01 Q548.968 1397.47 545.178 1398.42 Z" fill="#000000" fill-rule="nonzero" fill-opacity="1" /><path clip-path="url(#clip690)" d="M870.957 1406.97 Q866.79 1406.97 864.388 1409.19 Q862.016 1411.42 862.016 1415.33 Q862.016 1419.24 864.388 1421.46 Q866.79 1423.69 870.957 1423.69 Q875.123 1423.69 877.525 1421.46 Q879.926 1419.21 879.926 1415.33 Q879.926 1411.42 877.525 1409.19 Q875.152 1406.97 870.957 1406.97 M865.112 1404.48 Q861.35 1403.55 859.238 1400.98 Q857.155 1398.4 857.155 1394.7 Q857.155 1389.52 860.829 1386.51 Q864.533 1383.5 870.957 1383.5 Q877.409 1383.5 881.084 1386.51 Q884.759 1389.52 884.759 1394.7 Q884.759 1398.4 882.646 1400.98 Q880.563 1403.55 876.83 1404.48 Q881.055 1405.46 883.399 1408.33 Q885.771 1411.19 885.771 1415.33 Q885.771 1421.61 881.923 1424.96 Q878.104 1428.32 870.957 1428.32 Q863.81 1428.32 859.961 1424.96 Q856.142 1421.61 856.142 1415.33 Q856.142 1411.19 858.515 1408.33 Q860.887 1405.46 865.112 1404.48 M862.971 1395.25 Q862.971 1398.6 865.054 1400.49 Q867.166 1402.37 870.957 1402.37 Q874.718 1402.37 876.83 1400.49 Q878.972 1398.6 878.972 1395.25 Q878.972 1391.89 876.83 1390.01 Q874.718 1388.13 870.957 1388.13 Q867.166 1388.13 865.054 1390.01 Q862.971 1391.89 862.971 1395.25 Z" fill="#000000" fill-rule="nonzero" fill-opacity="1" /><path clip-path="url(#clip690)" d="M908.659 1388.13 Q904.145 1388.13 901.859 1392.59 Q899.602 1397.01 899.602 1405.93 Q899.602 1414.81 901.859 1419.26 Q904.145 1423.69 908.659 1423.69 Q913.202 1423.69 915.459 1419.26 Q917.745 1414.81 917.745 1405.93 Q917.745 1397.01 915.459 1392.59 Q913.202 1388.13 908.659 1388.13 M908.659 1383.5 Q915.922 1383.5 919.741 1389.26 Q923.589 1394.99 923.589 1405.93 Q923.589 1416.83 919.741 1422.59 Q915.922 1428.32 908.659 1428.32 Q901.396 1428.32 897.548 1422.59 Q893.729 1416.83 893.729 1405.93 Q893.729 1394.99 897.548 1389.26 Q901.396 1383.5 908.659 1383.5 Z" fill="#000000" fill-rule="nonzero" fill-opacity="1" /><path clip-path="url(#clip690)" d="M847.505 1468.99 Q851.7 1469.89 854.044 1472.72 Q856.417 1475.56 856.417 1479.72 Q856.417 1486.12 852.019 1489.62 Q847.621 1493.12 839.519 1493.12 Q836.799 1493.12 833.905 1492.57 Q831.041 1492.05 827.974 1490.98 L827.974 1485.34 Q830.404 1486.76 833.298 1487.48 Q836.191 1488.2 839.345 1488.2 Q844.843 1488.2 847.707 1486.03 Q850.601 1483.86 850.601 1479.72 Q850.601 1475.9 847.91 1473.76 Q845.248 1471.59 840.474 1471.59 L835.439 1471.59 L835.439 1466.79 L840.705 1466.79 Q845.016 1466.79 847.302 1465.08 Q849.588 1463.35 849.588 1460.11 Q849.588 1456.78 847.215 1455.01 Q844.872 1453.22 840.474 1453.22 Q838.072 1453.22 835.323 1453.74 Q832.574 1454.26 829.276 1455.36 L829.276 1450.15 Q832.603 1449.23 835.497 1448.76 Q838.419 1448.3 840.994 1448.3 Q847.649 1448.3 851.527 1451.34 Q855.404 1454.35 855.404 1459.5 Q855.404 1463.09 853.35 1465.57 Q851.295 1468.03 847.505 1468.99 Z" fill="#000000" fill-rule="nonzero" fill-opacity="1" /><path clip-path="url(#clip690)" d="M892.441 1447 L892.441 1506.26 L887.522 1506.26 L887.522 1447 L892.441 1447 Z" fill="#000000" fill-rule="nonzero" fill-opacity="1" /><path clip-path="url(#clip690)" d="M942.846 1468.99 Q947.041 1469.89 949.385 1472.72 Q951.758 1475.56 951.758 1479.72 Q951.758 1486.12 947.36 1489.62 Q942.961 1493.12 934.86 1493.12 Q932.14 1493.12 929.246 1492.57 Q926.382 1492.05 923.315 1490.98 L923.315 1485.34 Q925.745 1486.76 928.639 1487.48 Q931.532 1488.2 934.686 1488.2 Q940.184 1488.2 943.048 1486.03 Q945.942 1483.86 945.942 1479.72 Q945.942 1475.9 943.251 1473.76 Q940.589 1471.59 935.815 1471.59 L930.78 1471.59 L930.78 1466.79 L936.046 1466.79 Q940.357 1466.79 942.643 1465.08 Q944.929 1463.35 944.929 1460.11 Q944.929 1456.78 942.556 1455.01 Q940.213 1453.22 935.815 1453.22 Q933.413 1453.22 930.664 1453.74 Q927.915 1454.26 924.617 1455.36 L924.617 1450.15 Q927.944 1449.23 930.838 1448.76 Q933.76 1448.3 936.335 1448.3 Q942.99 1448.3 946.868 1451.34 Q950.745 1454.35 950.745 1459.5 Q950.745 1463.09 948.691 1465.57 Q946.636 1468.03 942.846 1468.99 Z" fill="#000000" fill-rule="nonzero" fill-opacity="1" /><path clip-path="url(#clip690)" d="M1222.14 1203.78 Q1217.97 1203.78 1215.57 1206.01 Q1213.2 1208.24 1213.2 1212.14 Q1213.2 1216.05 1215.57 1218.28 Q1217.97 1220.51 1222.14 1220.51 Q1226.31 1220.51 1228.71 1218.28 Q1231.11 1216.02 1231.11 1212.14 Q1231.11 1208.24 1228.71 1206.01 Q1226.33 1203.78 1222.14 1203.78 M1216.29 1201.29 Q1212.53 1200.37 1210.42 1197.79 Q1208.34 1195.22 1208.34 1191.51 Q1208.34 1186.33 1212.01 1183.32 Q1215.72 1180.32 1222.14 1180.32 Q1228.59 1180.32 1232.27 1183.32 Q1235.94 1186.33 1235.94 1191.51 Q1235.94 1195.22 1233.83 1197.79 Q1231.75 1200.37 1228.01 1201.29 Q1232.24 1202.28 1234.58 1205.14 Q1236.95 1208.01 1236.95 1212.14 Q1236.95 1218.42 1233.11 1221.78 Q1229.29 1225.14 1222.14 1225.14 Q1214.99 1225.14 1211.14 1221.78 Q1207.32 1218.42 1207.32 1212.14 Q1207.32 1208.01 1209.7 1205.14 Q1212.07 1202.28 1216.29 1201.29 M1214.15 1192.06 Q1214.15 1195.42 1216.24 1197.3 Q1218.35 1199.18 1222.14 1199.18 Q1225.9 1199.18 1228.01 1197.3 Q1230.15 1195.42 1230.15 1192.06 Q1230.15 1188.71 1228.01 1186.83 Q1225.9 1184.95 1222.14 1184.95 Q1218.35 1184.95 1216.24 1186.83 Q1214.15 1188.71 1214.15 1192.06 Z" fill="#000000" fill-rule="nonzero" fill-opacity="1" /><path clip-path="url(#clip690)" d="M1248.35 1219.38 L1257.9 1219.38 L1257.9 1186.42 L1247.52 1188.5 L1247.52 1183.18 L1257.85 1181.1 L1263.69 1181.1 L1263.69 1219.38 L1273.24 1219.38 L1273.24 1224.3 L1248.35 1224.3 L1248.35 1219.38 Z" fill="#000000" fill-rule="nonzero" fill-opacity="1" /><path clip-path="url(#clip690)" d="M1184.62 1284.18 L1205.02 1284.18 L1205.02 1289.1 L1177.59 1289.1 L1177.59 1284.18 Q1180.92 1280.73 1186.65 1274.95 Q1192.41 1269.13 1193.88 1267.45 Q1196.69 1264.3 1197.79 1262.13 Q1198.92 1259.93 1198.92 1257.82 Q1198.92 1254.37 1196.49 1252.2 Q1194.09 1250.03 1190.21 1250.03 Q1187.46 1250.03 1184.39 1250.99 Q1181.36 1251.94 1177.88 1253.88 L1177.88 1247.98 Q1181.41 1246.56 1184.48 1245.84 Q1187.55 1245.12 1190.09 1245.12 Q1196.81 1245.12 1200.8 1248.47 Q1204.79 1251.83 1204.79 1257.44 Q1204.79 1260.1 1203.78 1262.51 Q1202.8 1264.88 1200.16 1268.12 Q1199.44 1268.96 1195.56 1272.98 Q1191.69 1276.97 1184.62 1284.18 Z" fill="#000000" fill-rule="nonzero" fill-opacity="1" /><path clip-path="url(#clip690)" d="M1242.23 1243.81 L1242.23 1303.07 L1237.32 1303.07 L1237.32 1243.81 L1242.23 1243.81 Z" fill="#000000" fill-rule="nonzero" fill-opacity="1" /><path clip-path="url(#clip690)" d="M1290.99 1250.99 L1276.23 1274.05 L1290.99 1274.05 L1290.99 1250.99 M1289.46 1245.9 L1296.81 1245.9 L1296.81 1274.05 L1302.97 1274.05 L1302.97 1278.91 L1296.81 1278.91 L1296.81 1289.1 L1290.99 1289.1 L1290.99 1278.91 L1271.49 1278.91 L1271.49 1273.27 L1289.46 1245.9 Z" fill="#000000" fill-rule="nonzero" fill-opacity="1" /><path clip-path="url(#clip690)" d="M1365.13 819.141 Q1369.33 820.038 1371.67 822.874 Q1374.04 825.71 1374.04 829.876 Q1374.04 836.271 1369.64 839.772 Q1365.25 843.273 1357.14 843.273 Q1354.42 843.273 1351.53 842.723 Q1348.67 842.203 1345.6 841.132 L1345.6 835.49 Q1348.03 836.907 1350.92 837.631 Q1353.82 838.354 1356.97 838.354 Q1362.47 838.354 1365.33 836.184 Q1368.23 834.014 1368.23 829.876 Q1368.23 826.057 1365.53 823.916 Q1362.87 821.745 1358.1 821.745 L1353.06 821.745 L1353.06 816.942 L1358.33 816.942 Q1362.64 816.942 1364.93 815.235 Q1367.21 813.499 1367.21 810.258 Q1367.21 806.931 1364.84 805.166 Q1362.5 803.372 1358.1 803.372 Q1355.7 803.372 1352.95 803.893 Q1350.2 804.413 1346.9 805.513 L1346.9 800.305 Q1350.23 799.379 1353.12 798.916 Q1356.04 798.453 1358.62 798.453 Q1365.27 798.453 1369.15 801.491 Q1373.03 804.5 1373.03 809.651 Q1373.03 813.239 1370.97 815.727 Q1368.92 818.186 1365.13 819.141 Z" fill="#000000" fill-rule="nonzero" fill-opacity="1" /><path clip-path="url(#clip690)" d="M1402.83 819.141 Q1407.03 820.038 1409.37 822.874 Q1411.74 825.71 1411.74 829.876 Q1411.74 836.271 1407.35 839.772 Q1402.95 843.273 1394.85 843.273 Q1392.13 843.273 1389.23 842.723 Q1386.37 842.203 1383.3 841.132 L1383.3 835.49 Q1385.73 836.907 1388.63 837.631 Q1391.52 838.354 1394.67 838.354 Q1400.17 838.354 1403.03 836.184 Q1405.93 834.014 1405.93 829.876 Q1405.93 826.057 1403.24 823.916 Q1400.58 821.745 1395.8 821.745 L1390.77 821.745 L1390.77 816.942 L1396.03 816.942 Q1400.34 816.942 1402.63 815.235 Q1404.92 813.499 1404.92 810.258 Q1404.92 806.931 1402.54 805.166 Q1400.2 803.372 1395.8 803.372 Q1393.4 803.372 1390.65 803.893 Q1387.9 804.413 1384.6 805.513 L1384.6 800.305 Q1387.93 799.379 1390.82 798.916 Q1393.75 798.453 1396.32 798.453 Q1402.98 798.453 1406.85 801.491 Q1410.73 804.5 1410.73 809.651 Q1410.73 813.239 1408.68 815.727 Q1406.62 818.186 1402.83 819.141 Z" fill="#000000" fill-rule="nonzero" fill-opacity="1" /><path clip-path="url(#clip690)" d="M1318.83 902.315 L1328.38 902.315 L1328.38 869.358 L1317.99 871.441 L1317.99 866.117 L1328.32 864.034 L1334.17 864.034 L1334.17 902.315 L1343.72 902.315 L1343.72 907.234 L1318.83 907.234 L1318.83 902.315 Z" fill="#000000" fill-rule="nonzero" fill-opacity="1" /><path clip-path="url(#clip690)" d="M1380.47 861.951 L1380.47 921.21 L1375.55 921.21 L1375.55 861.951 L1380.47 861.951 Z" fill="#000000" fill-rule="nonzero" fill-opacity="1" /><path clip-path="url(#clip690)" d="M1413.22 864.034 L1436.17 864.034 L1436.17 868.953 L1418.57 868.953 L1418.57 879.543 Q1419.85 879.109 1421.12 878.907 Q1422.39 878.675 1423.67 878.675 Q1430.9 878.675 1435.12 882.639 Q1439.35 886.603 1439.35 893.374 Q1439.35 900.347 1435.01 904.225 Q1430.67 908.073 1422.77 908.073 Q1420.05 908.073 1417.21 907.61 Q1414.41 907.147 1411.4 906.221 L1411.4 900.347 Q1414 901.765 1416.78 902.46 Q1419.56 903.154 1422.65 903.154 Q1427.66 903.154 1430.58 900.521 Q1433.5 897.888 1433.5 893.374 Q1433.5 888.86 1430.58 886.227 Q1427.66 883.594 1422.65 883.594 Q1420.31 883.594 1417.97 884.115 Q1415.65 884.636 1413.22 885.735 L1413.22 864.034 Z" fill="#000000" fill-rule="nonzero" fill-opacity="1" /><path clip-path="url(#clip690)" d="M886.504 474.207 L894.143 474.207 L894.143 447.841 L885.833 449.508 L885.833 445.248 L894.096 443.582 L898.772 443.582 L898.772 474.207 L906.411 474.207 L906.411 478.142 L886.504 478.142 L886.504 474.207 Z" fill="#000000" fill-rule="nonzero" fill-opacity="1" /><path clip-path="url(#clip690)" d="M930.022 459.508 Q933.379 460.225 935.254 462.494 Q937.152 464.762 937.152 468.096 Q937.152 473.211 933.633 476.012 Q930.115 478.813 923.633 478.813 Q921.457 478.813 919.143 478.373 Q916.851 477.957 914.397 477.1 L914.397 472.586 Q916.342 473.72 918.657 474.299 Q920.971 474.878 923.494 474.878 Q927.893 474.878 930.184 473.142 Q932.499 471.406 932.499 468.096 Q932.499 465.04 930.346 463.327 Q928.217 461.591 924.397 461.591 L920.369 461.591 L920.369 457.748 L924.582 457.748 Q928.031 457.748 929.86 456.383 Q931.689 454.994 931.689 452.401 Q931.689 449.739 929.791 448.327 Q927.916 446.892 924.397 446.892 Q922.476 446.892 920.277 447.309 Q918.078 447.725 915.439 448.605 L915.439 444.438 Q918.101 443.697 920.416 443.327 Q922.754 442.957 924.814 442.957 Q930.138 442.957 933.24 445.387 Q936.342 447.795 936.342 451.915 Q936.342 454.785 934.698 456.776 Q933.055 458.744 930.022 459.508 Z" fill="#000000" fill-rule="nonzero" fill-opacity="1" /><path clip-path="url(#clip690)" d="M943.263 463.258 L955.74 463.258 L955.74 467.054 L943.263 467.054 L943.263 463.258 Z" fill="#000000" fill-rule="nonzero" fill-opacity="1" /><path clip-path="url(#clip690)" d="M979.003 474.207 L986.642 474.207 L986.642 447.841 L978.332 449.508 L978.332 445.248 L986.596 443.582 L991.272 443.582 L991.272 474.207 L998.911 474.207 L998.911 478.142 L979.003 478.142 L979.003 474.207 Z" fill="#000000" fill-rule="nonzero" fill-opacity="1" /><path clip-path="url(#clip690)" d="M1007.17 443.582 L1029.4 443.582 L1029.4 445.572 L1016.85 478.142 L1011.97 478.142 L1023.77 447.517 L1007.17 447.517 L1007.17 443.582 Z" fill="#000000" fill-rule="nonzero" fill-opacity="1" /><path clip-path="url(#clip690)" d="M1035.76 463.258 L1048.24 463.258 L1048.24 467.054 L1035.76 467.054 L1035.76 463.258 Z" fill="#000000" fill-rule="nonzero" fill-opacity="1" /><path clip-path="url(#clip690)" d="M1074.72 474.207 L1091.04 474.207 L1091.04 478.142 L1069.1 478.142 L1069.1 474.207 Q1071.76 471.452 1076.34 466.822 Q1080.95 462.17 1082.13 460.827 Q1084.37 458.304 1085.25 456.568 Q1086.16 454.809 1086.16 453.119 Q1086.16 450.364 1084.21 448.628 Q1082.29 446.892 1079.19 446.892 Q1076.99 446.892 1074.54 447.656 Q1072.1 448.42 1069.33 449.971 L1069.33 445.248 Q1072.15 444.114 1074.6 443.535 Q1077.06 442.957 1079.1 442.957 Q1084.47 442.957 1087.66 445.642 Q1090.85 448.327 1090.85 452.818 Q1090.85 454.947 1090.04 456.869 Q1089.26 458.767 1087.15 461.359 Q1086.57 462.031 1083.47 465.248 Q1080.37 468.443 1074.72 474.207 Z" fill="#000000" fill-rule="nonzero" fill-opacity="1" /><path clip-path="url(#clip690)" d="M1115.02 459.508 Q1118.38 460.225 1120.25 462.494 Q1122.15 464.762 1122.15 468.096 Q1122.15 473.211 1118.63 476.012 Q1115.11 478.813 1108.63 478.813 Q1106.46 478.813 1104.14 478.373 Q1101.85 477.957 1099.4 477.1 L1099.4 472.586 Q1101.34 473.72 1103.66 474.299 Q1105.97 474.878 1108.49 474.878 Q1112.89 474.878 1115.18 473.142 Q1117.5 471.406 1117.5 468.096 Q1117.5 465.04 1115.35 463.327 Q1113.22 461.591 1109.4 461.591 L1105.37 461.591 L1105.37 457.748 L1109.58 457.748 Q1113.03 457.748 1114.86 456.383 Q1116.69 454.994 1116.69 452.401 Q1116.69 449.739 1114.79 448.327 Q1112.91 446.892 1109.4 446.892 Q1107.47 446.892 1105.28 447.309 Q1103.08 447.725 1100.44 448.605 L1100.44 444.438 Q1103.1 443.697 1105.41 443.327 Q1107.75 442.957 1109.81 442.957 Q1115.14 442.957 1118.24 445.387 Q1121.34 447.795 1121.34 451.915 Q1121.34 454.785 1119.7 456.776 Q1118.05 458.744 1115.02 459.508 Z" fill="#000000" fill-rule="nonzero" fill-opacity="1" /><path clip-path="url(#clip690)" d="M1128.26 463.258 L1140.74 463.258 L1140.74 467.054 L1128.26 467.054 L1128.26 463.258 Z" fill="#000000" fill-rule="nonzero" fill-opacity="1" /><path clip-path="url(#clip690)" d="M702.895 393.839 L691.089 412.288 L702.895 412.288 L702.895 393.839 M701.668 389.765 L707.548 389.765 L707.548 412.288 L712.478 412.288 L712.478 416.177 L707.548 416.177 L707.548 424.325 L702.895 424.325 L702.895 416.177 L687.293 416.177 L687.293 411.663 L701.668 389.765 Z" fill="#000000" fill-rule="nonzero" fill-opacity="1" /><path clip-path="url(#clip690)" d="M717.455 409.441 L729.932 409.441 L729.932 413.237 L717.455 413.237 L717.455 409.441 Z" fill="#000000" fill-rule="nonzero" fill-opacity="1" /><path clip-path="url(#clip690)" d="M396.451 575.349 L404.09 575.349 L404.09 548.984 L395.78 550.651 L395.78 546.391 L404.044 544.725 L408.72 544.725 L408.72 575.349 L416.359 575.349 L416.359 579.285 L396.451 579.285 L396.451 575.349 Z" fill="#000000" fill-rule="nonzero" fill-opacity="1" /><path clip-path="url(#clip690)" d="M429.831 575.349 L446.15 575.349 L446.15 579.285 L424.206 579.285 L424.206 575.349 Q426.868 572.595 431.451 567.965 Q436.058 563.313 437.238 561.97 Q439.484 559.447 440.363 557.711 Q441.266 555.951 441.266 554.262 Q441.266 551.507 439.321 549.771 Q437.4 548.035 434.298 548.035 Q432.099 548.035 429.646 548.799 Q427.215 549.563 424.437 551.114 L424.437 546.391 Q427.261 545.257 429.715 544.678 Q432.169 544.1 434.206 544.1 Q439.576 544.1 442.771 546.785 Q445.965 549.47 445.965 553.961 Q445.965 556.09 445.155 558.012 Q444.368 559.91 442.261 562.502 Q441.683 563.174 438.581 566.391 Q435.479 569.586 429.831 575.349 Z" fill="#000000" fill-rule="nonzero" fill-opacity="1" /><path clip-path="url(#clip690)" d="M472.701 549.563 L472.701 562.456 L485.594 562.456 L485.594 566.391 L472.701 566.391 L472.701 579.285 L468.812 579.285 L468.812 566.391 L455.919 566.391 L455.919 562.456 L468.812 562.456 L468.812 549.563 L472.701 549.563 Z" fill="#000000" fill-rule="nonzero" fill-opacity="1" /><path clip-path="url(#clip690)" d="M315.906 854.102 Q312.572 854.102 310.651 855.884 Q308.753 857.667 308.753 860.792 Q308.753 863.917 310.651 865.699 Q312.572 867.482 315.906 867.482 Q319.239 867.482 321.16 865.699 Q323.081 863.894 323.081 860.792 Q323.081 857.667 321.16 855.884 Q319.262 854.102 315.906 854.102 M311.23 852.111 Q308.22 851.371 306.531 849.31 Q304.864 847.25 304.864 844.287 Q304.864 840.144 307.804 837.736 Q310.767 835.329 315.906 835.329 Q321.068 835.329 324.007 837.736 Q326.947 840.144 326.947 844.287 Q326.947 847.25 325.257 849.31 Q323.591 851.371 320.605 852.111 Q323.984 852.898 325.859 855.19 Q327.757 857.482 327.757 860.792 Q327.757 865.815 324.679 868.5 Q321.623 871.185 315.906 871.185 Q310.188 871.185 307.109 868.5 Q304.054 865.815 304.054 860.792 Q304.054 857.482 305.952 855.19 Q307.85 852.898 311.23 852.111 M309.517 844.727 Q309.517 847.412 311.183 848.917 Q312.873 850.422 315.906 850.422 Q318.915 850.422 320.605 848.917 Q322.318 847.412 322.318 844.727 Q322.318 842.042 320.605 840.537 Q318.915 839.033 315.906 839.033 Q312.873 839.033 311.183 840.537 Q309.517 842.042 309.517 844.727 Z" fill="#000000" fill-rule="nonzero" fill-opacity="1" /><path clip-path="url(#clip690)" d="M352.803 840.792 L352.803 853.685 L365.697 853.685 L365.697 857.621 L352.803 857.621 L352.803 870.514 L348.915 870.514 L348.915 857.621 L336.021 857.621 L336.021 853.685 L348.915 853.685 L348.915 840.792 L352.803 840.792 Z" fill="#000000" fill-rule="nonzero" fill-opacity="1" /><path clip-path="url(#clip690)" d="M411.972 1161.03 L411.972 1156.77 Q413.731 1157.6 415.537 1158.04 Q417.342 1158.48 419.079 1158.48 Q423.708 1158.48 426.139 1155.38 Q428.592 1152.25 428.94 1145.91 Q427.597 1147.9 425.537 1148.97 Q423.477 1150.03 420.977 1150.03 Q415.792 1150.03 412.759 1146.91 Q409.75 1143.76 409.75 1138.32 Q409.75 1132.99 412.898 1129.78 Q416.046 1126.56 421.278 1126.56 Q427.273 1126.56 430.421 1131.16 Q433.592 1135.75 433.592 1144.5 Q433.592 1152.67 429.703 1157.55 Q425.838 1162.41 419.287 1162.41 Q417.528 1162.41 415.722 1162.07 Q413.917 1161.72 411.972 1161.03 M421.278 1146.37 Q424.426 1146.37 426.254 1144.22 Q428.106 1142.07 428.106 1138.32 Q428.106 1134.59 426.254 1132.44 Q424.426 1130.26 421.278 1130.26 Q418.129 1130.26 416.278 1132.44 Q414.449 1134.59 414.449 1138.32 Q414.449 1142.07 416.278 1144.22 Q418.129 1146.37 421.278 1146.37 Z" fill="#000000" fill-rule="nonzero" fill-opacity="1" /><path clip-path="url(#clip690)" d="M458.731 1132.02 L458.731 1144.91 L471.625 1144.91 L471.625 1148.85 L458.731 1148.85 L458.731 1161.74 L454.842 1161.74 L454.842 1148.85 L441.949 1148.85 L441.949 1144.91 L454.842 1144.91 L454.842 1132.02 L458.731 1132.02 Z" fill="#000000" fill-rule="nonzero" fill-opacity="1" /><path clip-path="url(#clip690)" d="M678.126 1282.14 L700.349 1282.14 L700.349 1284.13 L687.802 1316.7 L682.918 1316.7 L694.724 1286.08 L678.126 1286.08 L678.126 1282.14 Z" fill="#000000" fill-rule="nonzero" fill-opacity="1" /><path clip-path="url(#clip690)" d="M726.205 1286.98 L726.205 1299.87 L739.098 1299.87 L739.098 1303.81 L726.205 1303.81 L726.205 1316.7 L722.316 1316.7 L722.316 1303.81 L709.423 1303.81 L709.423 1299.87 L722.316 1299.87 L722.316 1286.98 L726.205 1286.98 Z" fill="#000000" fill-rule="nonzero" fill-opacity="1" /><path clip-path="url(#clip690)" d="M969.05 1258.95 L976.689 1258.95 L976.689 1232.59 L968.378 1234.25 L968.378 1229.99 L976.642 1228.33 L981.318 1228.33 L981.318 1258.95 L988.957 1258.95 L988.957 1262.89 L969.05 1262.89 L969.05 1258.95 Z" fill="#000000" fill-rule="nonzero" fill-opacity="1" /><path clip-path="url(#clip690)" d="M999.212 1258.95 L1006.85 1258.95 L1006.85 1232.59 L998.54 1234.25 L998.54 1229.99 L1006.8 1228.33 L1011.48 1228.33 L1011.48 1258.95 L1019.12 1258.95 L1019.12 1262.89 L999.212 1262.89 L999.212 1258.95 Z" fill="#000000" fill-rule="nonzero" fill-opacity="1" /><path clip-path="url(#clip690)" d="M1045.3 1233.16 L1045.3 1246.06 L1058.19 1246.06 L1058.19 1249.99 L1045.3 1249.99 L1045.3 1262.89 L1041.41 1262.89 L1041.41 1249.99 L1028.52 1249.99 L1028.52 1246.06 L1041.41 1246.06 L1041.41 1233.16 L1045.3 1233.16 Z" fill="#000000" fill-rule="nonzero" fill-opacity="1" /><path clip-path="url(#clip690)" d="M1196.48 994.988 L1184.67 1013.44 L1196.48 1013.44 L1196.48 994.988 M1195.25 990.914 L1201.13 990.914 L1201.13 1013.44 L1206.06 1013.44 L1206.06 1017.33 L1201.13 1017.33 L1201.13 1025.47 L1196.48 1025.47 L1196.48 1017.33 L1180.87 1017.33 L1180.87 1012.81 L1195.25 990.914 Z" fill="#000000" fill-rule="nonzero" fill-opacity="1" /><path clip-path="url(#clip690)" d="M1230.53 995.752 L1230.53 1008.65 L1243.42 1008.65 L1243.42 1012.58 L1230.53 1012.58 L1230.53 1025.47 L1226.64 1025.47 L1226.64 1012.58 L1213.74 1012.58 L1213.74 1008.65 L1226.64 1008.65 L1226.64 995.752 L1230.53 995.752 Z" fill="#000000" fill-rule="nonzero" fill-opacity="1" /><path clip-path="url(#clip690)" d="M1052.8 711.619 L1060.43 711.619 L1060.43 685.253 L1052.12 686.92 L1052.12 682.661 L1060.39 680.994 L1065.06 680.994 L1065.06 711.619 L1072.7 711.619 L1072.7 715.554 L1052.8 715.554 L1052.8 711.619 Z" fill="#000000" fill-rule="nonzero" fill-opacity="1" /><path clip-path="url(#clip690)" d="M1096.31 696.92 Q1099.67 697.638 1101.55 699.906 Q1103.44 702.175 1103.44 705.508 Q1103.44 710.624 1099.93 713.424 Q1096.41 716.225 1089.93 716.225 Q1087.75 716.225 1085.43 715.786 Q1083.14 715.369 1080.69 714.512 L1080.69 709.999 Q1082.63 711.133 1084.95 711.712 Q1087.26 712.29 1089.79 712.29 Q1094.18 712.29 1096.48 710.554 Q1098.79 708.818 1098.79 705.508 Q1098.79 702.452 1096.64 700.739 Q1094.51 699.003 1090.69 699.003 L1086.66 699.003 L1086.66 695.161 L1090.87 695.161 Q1094.32 695.161 1096.15 693.795 Q1097.98 692.406 1097.98 689.814 Q1097.98 687.151 1096.08 685.739 Q1094.21 684.304 1090.69 684.304 Q1088.77 684.304 1086.57 684.721 Q1084.37 685.138 1081.73 686.017 L1081.73 681.851 Q1084.39 681.11 1086.71 680.739 Q1089.05 680.369 1091.11 680.369 Q1096.43 680.369 1099.53 682.8 Q1102.63 685.207 1102.63 689.327 Q1102.63 692.198 1100.99 694.188 Q1099.35 696.156 1096.31 696.92 Z" fill="#000000" fill-rule="nonzero" fill-opacity="1" /><path clip-path="url(#clip690)" d="M1129.05 685.832 L1129.05 698.725 L1141.94 698.725 L1141.94 702.661 L1129.05 702.661 L1129.05 715.554 L1125.16 715.554 L1125.16 702.661 L1112.26 702.661 L1112.26 698.725 L1125.16 698.725 L1125.16 685.832 L1129.05 685.832 Z" fill="#000000" fill-rule="nonzero" fill-opacity="1" /><path clip-path="url(#clip690)" d="M1167.91 711.619 L1175.55 711.619 L1175.55 685.253 L1167.24 686.92 L1167.24 682.661 L1175.5 680.994 L1180.18 680.994 L1180.18 711.619 L1187.82 711.619 L1187.82 715.554 L1167.91 715.554 L1167.91 711.619 Z" fill="#000000" fill-rule="nonzero" fill-opacity="1" /><path clip-path="url(#clip690)" d="M1196.08 680.994 L1218.3 680.994 L1218.3 682.985 L1205.76 715.554 L1200.87 715.554 L1212.68 684.929 L1196.08 684.929 L1196.08 680.994 Z" fill="#000000" fill-rule="nonzero" fill-opacity="1" /><path clip-path="url(#clip690)" d="M1244.16 685.832 L1244.16 698.725 L1257.05 698.725 L1257.05 702.661 L1244.16 702.661 L1244.16 715.554 L1240.27 715.554 L1240.27 702.661 L1227.38 702.661 L1227.38 698.725 L1240.27 698.725 L1240.27 685.832 L1244.16 685.832 Z" fill="#000000" fill-rule="nonzero" fill-opacity="1" /><path clip-path="url(#clip690)" d="M1286.24 711.619 L1302.56 711.619 L1302.56 715.554 L1280.62 715.554 L1280.62 711.619 Q1283.28 708.864 1287.86 704.235 Q1292.47 699.582 1293.65 698.239 Q1295.9 695.716 1296.78 693.98 Q1297.68 692.221 1297.68 690.531 Q1297.68 687.776 1295.73 686.04 Q1293.81 684.304 1290.71 684.304 Q1288.51 684.304 1286.06 685.068 Q1283.63 685.832 1280.85 687.383 L1280.85 682.661 Q1283.67 681.527 1286.13 680.948 Q1288.58 680.369 1290.62 680.369 Q1295.99 680.369 1299.18 683.054 Q1302.38 685.739 1302.38 690.23 Q1302.38 692.36 1301.57 694.281 Q1300.78 696.179 1298.67 698.772 Q1298.1 699.443 1294.99 702.661 Q1291.89 705.855 1286.24 711.619 Z" fill="#000000" fill-rule="nonzero" fill-opacity="1" /><path clip-path="url(#clip690)" d="M1326.54 696.92 Q1329.9 697.638 1331.78 699.906 Q1333.67 702.175 1333.67 705.508 Q1333.67 710.624 1330.16 713.424 Q1326.64 716.225 1320.16 716.225 Q1317.98 716.225 1315.66 715.786 Q1313.37 715.369 1310.92 714.512 L1310.92 709.999 Q1312.86 711.133 1315.18 711.712 Q1317.49 712.29 1320.02 712.29 Q1324.41 712.29 1326.71 710.554 Q1329.02 708.818 1329.02 705.508 Q1329.02 702.452 1326.87 700.739 Q1324.74 699.003 1320.92 699.003 L1316.89 699.003 L1316.89 695.161 L1321.1 695.161 Q1324.55 695.161 1326.38 693.795 Q1328.21 692.406 1328.21 689.814 Q1328.21 687.151 1326.31 685.739 Q1324.44 684.304 1320.92 684.304 Q1319 684.304 1316.8 684.721 Q1314.6 685.138 1311.96 686.017 L1311.96 681.851 Q1314.62 681.11 1316.94 680.739 Q1319.28 680.369 1321.34 680.369 Q1326.66 680.369 1329.76 682.8 Q1332.86 685.207 1332.86 689.327 Q1332.86 692.198 1331.22 694.188 Q1329.58 696.156 1326.54 696.92 Z" fill="#000000" fill-rule="nonzero" fill-opacity="1" /><path clip-path="url(#clip690)" d="M1359.28 685.832 L1359.28 698.725 L1372.17 698.725 L1372.17 702.661 L1359.28 702.661 L1359.28 715.554 L1355.39 715.554 L1355.39 702.661 L1342.49 702.661 L1342.49 698.725 L1355.39 698.725 L1355.39 685.832 L1359.28 685.832 Z" fill="#000000" fill-rule="nonzero" fill-opacity="1" /><path clip-path="url(#clip690)" d="M587.96 869.915 L597.509 869.915 L597.509 836.958 L587.121 839.041 L587.121 833.717 L597.451 831.634 L603.296 831.634 L603.296 869.915 L612.844 869.915 L612.844 874.834 L587.96 874.834 L587.96 869.915 Z" fill="#4682b4" fill-rule="nonzero" fill-opacity="1" /><path clip-path="url(#clip690)" d="M624.708 831.634 L647.653 831.634 L647.653 836.553 L630.061 836.553 L630.061 847.143 Q631.334 846.709 632.607 846.507 Q633.88 846.275 635.153 846.275 Q642.387 846.275 646.611 850.239 Q650.836 854.203 650.836 860.974 Q650.836 867.947 646.496 871.825 Q642.155 875.673 634.256 875.673 Q631.536 875.673 628.701 875.21 Q625.894 874.747 622.885 873.821 L622.885 867.947 Q625.489 869.365 628.267 870.06 Q631.044 870.754 634.14 870.754 Q639.146 870.754 642.069 868.121 Q644.991 865.488 644.991 860.974 Q644.991 856.46 642.069 853.827 Q639.146 851.194 634.14 851.194 Q631.797 851.194 629.453 851.715 Q627.138 852.236 624.708 853.335 L624.708 831.634 Z" fill="#4682b4" fill-rule="nonzero" fill-opacity="1" /><path clip-path="url(#clip690)" d="M683.272 837.681 L683.272 853.798 L699.389 853.798 L699.389 858.717 L683.272 858.717 L683.272 874.834 L678.411 874.834 L678.411 858.717 L662.294 858.717 L662.294 853.798 L678.411 853.798 L678.411 837.681 L683.272 837.681 Z" fill="#4682b4" fill-rule="nonzero" fill-opacity="1" /><path clip-path="url(#clip690)" d="M731.854 869.915 L741.403 869.915 L741.403 836.958 L731.015 839.041 L731.015 833.717 L741.345 831.634 L747.19 831.634 L747.19 869.915 L756.738 869.915 L756.738 874.834 L731.854 874.834 L731.854 869.915 Z" fill="#4682b4" fill-rule="nonzero" fill-opacity="1" /><path clip-path="url(#clip690)" d="M768.717 873.937 L768.717 868.613 Q770.916 869.655 773.173 870.204 Q775.43 870.754 777.6 870.754 Q783.387 870.754 786.425 866.877 Q789.493 862.971 789.927 855.042 Q788.248 857.531 785.673 858.862 Q783.098 860.193 779.973 860.193 Q773.492 860.193 769.701 856.287 Q765.939 852.351 765.939 845.552 Q765.939 838.897 769.875 834.875 Q773.81 830.853 780.349 830.853 Q787.843 830.853 791.778 836.611 Q795.743 842.34 795.743 853.277 Q795.743 863.491 790.881 869.597 Q786.049 875.673 777.861 875.673 Q775.662 875.673 773.405 875.239 Q771.148 874.805 768.717 873.937 M780.349 855.621 Q784.284 855.621 786.57 852.93 Q788.885 850.239 788.885 845.552 Q788.885 840.893 786.57 838.202 Q784.284 835.482 780.349 835.482 Q776.414 835.482 774.099 838.202 Q771.813 840.893 771.813 845.552 Q771.813 850.239 774.099 852.93 Q776.414 855.621 780.349 855.621 Z" fill="#4682b4" fill-rule="nonzero" fill-opacity="1" /><path clip-path="url(#clip690)" d="M827.166 837.681 L827.166 853.798 L843.283 853.798 L843.283 858.717 L827.166 858.717 L827.166 874.834 L822.305 874.834 L822.305 858.717 L806.188 858.717 L806.188 853.798 L822.305 853.798 L822.305 837.681 L827.166 837.681 Z" fill="#4682b4" fill-rule="nonzero" fill-opacity="1" /><path clip-path="url(#clip690)" d="M879.77 869.915 L900.169 869.915 L900.169 874.834 L872.739 874.834 L872.739 869.915 Q876.066 866.472 881.795 860.685 Q887.553 854.869 889.029 853.191 Q891.836 850.037 892.935 847.867 Q894.064 845.668 894.064 843.555 Q894.064 840.112 891.633 837.942 Q889.232 835.772 885.354 835.772 Q882.606 835.772 879.538 836.727 Q876.5 837.681 873.028 839.62 L873.028 833.717 Q876.558 832.3 879.625 831.576 Q882.692 830.853 885.239 830.853 Q891.952 830.853 895.945 834.209 Q899.938 837.566 899.938 843.179 Q899.938 845.841 898.925 848.243 Q897.941 850.615 895.308 853.856 Q894.585 854.695 890.707 858.717 Q886.83 862.71 879.77 869.915 Z" fill="#4682b4" fill-rule="nonzero" fill-opacity="1" /><path clip-path="url(#clip690)" d="M913.45 869.915 L922.999 869.915 L922.999 836.958 L912.611 839.041 L912.611 833.717 L922.941 831.634 L928.786 831.634 L928.786 869.915 L938.334 869.915 L938.334 874.834 L913.45 874.834 L913.45 869.915 Z" fill="#4682b4" fill-rule="nonzero" fill-opacity="1" /><path clip-path="url(#clip690)" d="M971.06 837.681 L971.06 853.798 L987.177 853.798 L987.177 858.717 L971.06 858.717 L971.06 874.834 L966.199 874.834 L966.199 858.717 L950.082 858.717 L950.082 853.798 L966.199 853.798 L966.199 837.681 L971.06 837.681 Z" fill="#4682b4" fill-rule="nonzero" fill-opacity="1" /></svg>
