<?xml version="1.0" encoding="utf-8"?>
<svg xmlns="http://www.w3.org/2000/svg" xmlns:xlink="http://www.w3.org/1999/xlink" width="800" height="300" viewBox="0 0 3200 1200">
<defs>
  <clipPath id="clip790">
    <rect x="0" y="0" width="3200" height="1200"/>
  </clipPath>
</defs>
<path clip-path="url(#clip790)" d="M0 1200 L3200 1200 L3200 0 L0 0  Z" fill="#ffffff" fill-rule="evenodd" fill-opacity="1"/>
<defs>
  <clipPath id="clip791">
    <rect x="640" y="0" width="2241" height="1200"/>
  </clipPath>
</defs>
<path clip-path="url(#clip790)" d="M47.2441 1152.76 L1552.76 1152.76 L1552.76 97.0121 L47.2441 97.0121  Z" fill="#ffffff" fill-rule="evenodd" fill-opacity="1"/>
<defs>
  <clipPath id="clip792">
    <rect x="47" y="97" width="1507" height="1057"/>
  </clipPath>
</defs>
<polyline clip-path="url(#clip790)" style="stroke:#000000; stroke-linecap:round; stroke-linejoin:round; stroke-width:4; stroke-opacity:1; fill:none" points="47.2441,1152.76 1552.76,1152.76 "/>
<polyline clip-path="url(#clip790)" style="stroke:#000000; stroke-linecap:round; stroke-linejoin:round; stroke-width:4; stroke-opacity:1; fill:none" points="47.2441,97.0121 1552.76,97.0121 "/>
<polyline clip-path="url(#clip790)" style="stroke:#000000; stroke-linecap:round; stroke-linejoin:round; stroke-width:4; stroke-opacity:1; fill:none" points="47.2441,1152.76 47.2441,97.0121 "/>
<polyline clip-path="url(#clip790)" style="stroke:#000000; stroke-linecap:round; stroke-linejoin:round; stroke-width:4; stroke-opacity:1; fill:none" points="1552.76,1152.76 1552.76,97.0121 "/>
<path clip-path="url(#clip790)" d="M710.252 65.6895 L738.811 65.6895 L738.811 72.576 L700.409 72.576 L700.409 65.6895 Q705.067 60.8689 713.088 52.7671 Q721.149 44.6248 723.215 42.2752 Q727.144 37.8598 728.684 34.8216 Q730.264 31.7429 730.264 28.7857 Q730.264 23.9651 726.861 20.927 Q723.499 17.8888 718.07 17.8888 Q714.222 17.8888 709.928 19.2256 Q705.675 20.5624 700.814 23.2765 L700.814 15.0127 Q705.756 13.0277 710.05 12.015 Q714.344 11.0023 717.908 11.0023 Q727.307 11.0023 732.897 15.7013 Q738.487 20.4004 738.487 28.2591 Q738.487 31.9859 737.069 35.3482 Q735.692 38.6699 732.006 43.2069 Q730.993 44.3817 725.565 50.0125 Q720.136 55.6027 710.252 65.6895 Z" fill="#000000" fill-rule="nonzero" fill-opacity="1" /><path clip-path="url(#clip790)" d="M799.858 43.8551 Q794.025 43.8551 790.663 46.9743 Q787.341 50.0935 787.341 55.5622 Q787.341 61.0309 790.663 64.1501 Q794.025 67.2693 799.858 67.2693 Q805.692 67.2693 809.054 64.1501 Q812.416 60.9904 812.416 55.5622 Q812.416 50.0935 809.054 46.9743 Q805.732 43.8551 799.858 43.8551 M791.675 40.3713 Q786.409 39.075 783.452 35.4697 Q780.535 31.8644 780.535 26.6793 Q780.535 19.4281 785.68 15.2152 Q790.865 11.0023 799.858 11.0023 Q808.892 11.0023 814.036 15.2152 Q819.181 19.4281 819.181 26.6793 Q819.181 31.8644 816.224 35.4697 Q813.307 39.075 808.082 40.3713 Q813.996 41.7486 817.277 45.759 Q820.599 49.7694 820.599 55.5622 Q820.599 64.3527 815.211 69.0517 Q809.864 73.7508 799.858 73.7508 Q789.852 73.7508 784.465 69.0517 Q779.118 64.3527 779.118 55.5622 Q779.118 49.7694 782.439 45.759 Q785.761 41.7486 791.675 40.3713 M788.678 27.4489 Q788.678 32.148 791.594 34.7811 Q794.552 37.4142 799.858 37.4142 Q805.124 37.4142 808.082 34.7811 Q811.079 32.148 811.079 27.4489 Q811.079 22.7499 808.082 20.1168 Q805.124 17.4837 799.858 17.4837 Q794.552 17.4837 791.594 20.1168 Q788.678 22.7499 788.678 27.4489 Z" fill="#000000" fill-rule="nonzero" fill-opacity="1" /><path clip-path="url(#clip790)" d="M861.756 71.3202 L861.756 63.8666 Q864.835 65.3249 867.994 66.0946 Q871.154 66.8642 874.192 66.8642 Q882.294 66.8642 886.548 61.436 Q890.842 55.9673 891.449 44.8678 Q889.1 48.3516 885.494 50.215 Q881.889 52.0784 877.514 52.0784 Q868.44 52.0784 863.133 46.6097 Q857.867 41.1005 857.867 31.5808 Q857.867 22.2638 863.376 16.633 Q868.886 11.0023 878.041 11.0023 Q888.533 11.0023 894.042 19.0636 Q899.591 27.0843 899.591 42.3968 Q899.591 56.6965 892.786 65.2439 Q886.021 73.7508 874.557 73.7508 Q871.478 73.7508 868.318 73.1431 Q865.159 72.5355 861.756 71.3202 M878.041 45.678 Q883.55 45.678 886.75 41.9107 Q889.991 38.1433 889.991 31.5808 Q889.991 25.0589 886.75 21.2916 Q883.55 17.4837 878.041 17.4837 Q872.531 17.4837 869.291 21.2916 Q866.091 25.0589 866.091 31.5808 Q866.091 38.1433 869.291 41.9107 Q872.531 45.678 878.041 45.678 Z" fill="#000000" fill-rule="nonzero" fill-opacity="1" /><path clip-path="url(#clip792)" d="M1251.65 609.242 L901.542 308.161 L397.014 313.841 L348.346 314.394 L454.749 407.389 L1120.92 885.197 L1202.48 941.39 L1220.16 941.607 L1251.65 609.242  Z" fill="#cae1ff" fill-rule="evenodd" fill-opacity="0.5"/>
<polyline clip-path="url(#clip792)" style="stroke:#4682b4; stroke-linecap:round; stroke-linejoin:round; stroke-width:8; stroke-opacity:1; fill:none" points="1251.65,609.242 901.542,308.161 397.014,313.841 348.346,314.394 454.749,407.389 1120.92,885.197 1202.48,941.39 1220.16,941.607 1251.65,609.242 "/>
<circle clip-path="url(#clip792)" cx="1251.65" cy="609.242" r="18" fill="#4682b4" fill-rule="evenodd" fill-opacity="1" stroke="none"/>
<circle clip-path="url(#clip792)" cx="901.542" cy="308.161" r="18" fill="#4682b4" fill-rule="evenodd" fill-opacity="1" stroke="none"/>
<circle clip-path="url(#clip792)" cx="397.014" cy="313.841" r="18" fill="#4682b4" fill-rule="evenodd" fill-opacity="1" stroke="none"/>
<circle clip-path="url(#clip792)" cx="348.346" cy="314.394" r="18" fill="#4682b4" fill-rule="evenodd" fill-opacity="1" stroke="none"/>
<circle clip-path="url(#clip792)" cx="454.749" cy="407.389" r="18" fill="#4682b4" fill-rule="evenodd" fill-opacity="1" stroke="none"/>
<circle clip-path="url(#clip792)" cx="1120.92" cy="885.197" r="18" fill="#4682b4" fill-rule="evenodd" fill-opacity="1" stroke="none"/>
<circle clip-path="url(#clip792)" cx="1202.48" cy="941.39" r="18" fill="#4682b4" fill-rule="evenodd" fill-opacity="1" stroke="none"/>
<circle clip-path="url(#clip792)" cx="1220.16" cy="941.607" r="18" fill="#4682b4" fill-rule="evenodd" fill-opacity="1" stroke="none"/>
<path clip-path="url(#clip790)" d="M1084.76 452.553 L1092.4 452.553 L1092.4 426.187 L1084.09 427.854 L1084.09 423.595 L1092.35 421.928 L1097.03 421.928 L1097.03 452.553 L1104.67 452.553 L1104.67 456.488 L1084.76 456.488 L1084.76 452.553 Z" fill="#4682b4" fill-rule="nonzero" fill-opacity="1" /><path clip-path="url(#clip790)" d="M1114.92 452.553 L1122.56 452.553 L1122.56 426.187 L1114.25 427.854 L1114.25 423.595 L1122.52 421.928 L1127.19 421.928 L1127.19 452.553 L1134.83 452.553 L1134.83 456.488 L1114.92 456.488 L1114.92 452.553 Z" fill="#4682b4" fill-rule="nonzero" fill-opacity="1" /><path clip-path="url(#clip790)" d="M604.512 289.379 L612.151 289.379 L612.151 263.014 L603.841 264.68 L603.841 260.421 L612.104 258.754 L616.78 258.754 L616.78 289.379 L624.419 289.379 L624.419 293.314 L604.512 293.314 L604.512 289.379 Z" fill="#4682b4" fill-rule="nonzero" fill-opacity="1" /><path clip-path="url(#clip790)" d="M648.03 274.68 Q651.387 275.398 653.262 277.666 Q655.16 279.935 655.16 283.268 Q655.16 288.384 651.641 291.185 Q648.123 293.986 641.641 293.986 Q639.465 293.986 637.151 293.546 Q634.859 293.129 632.405 292.273 L632.405 287.759 Q634.35 288.893 636.664 289.472 Q638.979 290.051 641.502 290.051 Q645.9 290.051 648.192 288.314 Q650.507 286.578 650.507 283.268 Q650.507 280.213 648.354 278.5 Q646.225 276.764 642.405 276.764 L638.377 276.764 L638.377 272.921 L642.59 272.921 Q646.039 272.921 647.868 271.555 Q649.697 270.166 649.697 267.574 Q649.697 264.912 647.799 263.5 Q645.924 262.065 642.405 262.065 Q640.484 262.065 638.285 262.481 Q636.086 262.898 633.447 263.778 L633.447 259.611 Q636.109 258.87 638.424 258.5 Q640.762 258.129 642.822 258.129 Q648.146 258.129 651.248 260.56 Q654.349 262.967 654.349 267.088 Q654.349 269.958 652.706 271.949 Q651.062 273.916 648.03 274.68 Z" fill="#4682b4" fill-rule="nonzero" fill-opacity="1" /><path clip-path="url(#clip790)" d="M306.069 300.381 L322.388 300.381 L322.388 304.316 L300.444 304.316 L300.444 300.381 Q303.106 297.626 307.689 292.997 Q312.296 288.344 313.476 287.001 Q315.722 284.478 316.601 282.742 Q317.504 280.983 317.504 279.293 Q317.504 276.539 315.56 274.802 Q313.638 273.066 310.537 273.066 Q308.338 273.066 305.884 273.83 Q303.453 274.594 300.676 276.145 L300.676 271.423 Q303.5 270.289 305.953 269.71 Q308.407 269.131 310.444 269.131 Q315.814 269.131 319.009 271.816 Q322.203 274.502 322.203 278.992 Q322.203 281.122 321.393 283.043 Q320.606 284.941 318.5 287.534 Q317.921 288.205 314.819 291.423 Q311.717 294.617 306.069 300.381 Z" fill="#4682b4" fill-rule="nonzero" fill-opacity="1" /><path clip-path="url(#clip790)" d="M336.231 300.381 L352.55 300.381 L352.55 304.316 L330.606 304.316 L330.606 300.381 Q333.268 297.626 337.851 292.997 Q342.458 288.344 343.638 287.001 Q345.884 284.478 346.763 282.742 Q347.666 280.983 347.666 279.293 Q347.666 276.539 345.722 274.802 Q343.8 273.066 340.699 273.066 Q338.499 273.066 336.046 273.83 Q333.615 274.594 330.837 276.145 L330.837 271.423 Q333.662 270.289 336.115 269.71 Q338.569 269.131 340.606 269.131 Q345.976 269.131 349.171 271.816 Q352.365 274.502 352.365 278.992 Q352.365 281.122 351.555 283.043 Q350.768 284.941 348.661 287.534 Q348.083 288.205 344.981 291.423 Q341.879 294.617 336.231 300.381 Z" fill="#4682b4" fill-rule="nonzero" fill-opacity="1" /><path clip-path="url(#clip790)" d="M327.627 349.418 L335.265 349.418 L335.265 323.052 L326.955 324.719 L326.955 320.459 L335.219 318.793 L339.895 318.793 L339.895 349.418 L347.534 349.418 L347.534 353.353 L327.627 353.353 L327.627 349.418 Z" fill="#4682b4" fill-rule="nonzero" fill-opacity="1" /><path clip-path="url(#clip790)" d="M366.978 336.941 Q363.645 336.941 361.724 338.723 Q359.825 340.506 359.825 343.631 Q359.825 346.756 361.724 348.538 Q363.645 350.32 366.978 350.32 Q370.311 350.32 372.233 348.538 Q374.154 346.732 374.154 343.631 Q374.154 340.506 372.233 338.723 Q370.335 336.941 366.978 336.941 M362.302 334.95 Q359.293 334.209 357.603 332.149 Q355.937 330.089 355.937 327.126 Q355.937 322.982 358.876 320.575 Q361.839 318.168 366.978 318.168 Q372.14 318.168 375.08 320.575 Q378.02 322.982 378.02 327.126 Q378.02 330.089 376.33 332.149 Q374.663 334.209 371.677 334.95 Q375.057 335.737 376.932 338.029 Q378.83 340.32 378.83 343.631 Q378.83 348.654 375.751 351.339 Q372.696 354.024 366.978 354.024 Q361.261 354.024 358.182 351.339 Q355.126 348.654 355.126 343.631 Q355.126 340.32 357.025 338.029 Q358.923 335.737 362.302 334.95 M360.589 327.566 Q360.589 330.251 362.256 331.756 Q363.946 333.26 366.978 333.26 Q369.987 333.26 371.677 331.756 Q373.39 330.251 373.39 327.566 Q373.39 324.881 371.677 323.376 Q369.987 321.871 366.978 321.871 Q363.946 321.871 362.256 323.376 Q360.589 324.881 360.589 327.566 Z" fill="#4682b4" fill-rule="nonzero" fill-opacity="1" /><path clip-path="url(#clip790)" d="M752.708 666.121 L760.347 666.121 L760.347 639.755 L752.036 641.422 L752.036 637.163 L760.3 635.496 L764.976 635.496 L764.976 666.121 L772.615 666.121 L772.615 670.056 L752.708 670.056 L752.708 666.121 Z" fill="#4682b4" fill-rule="nonzero" fill-opacity="1" /><path clip-path="url(#clip790)" d="M792.638 650.913 Q789.49 650.913 787.638 653.065 Q785.809 655.218 785.809 658.968 Q785.809 662.695 787.638 664.871 Q789.49 667.024 792.638 667.024 Q795.786 667.024 797.615 664.871 Q799.467 662.695 799.467 658.968 Q799.467 655.218 797.615 653.065 Q795.786 650.913 792.638 650.913 M801.92 636.26 L801.92 640.519 Q800.161 639.686 798.356 639.246 Q796.573 638.806 794.814 638.806 Q790.184 638.806 787.731 641.931 Q785.3 645.056 784.953 651.376 Q786.319 649.362 788.379 648.297 Q790.439 647.209 792.916 647.209 Q798.124 647.209 801.133 650.38 Q804.166 653.528 804.166 658.968 Q804.166 664.292 801.018 667.51 Q797.87 670.727 792.638 670.727 Q786.643 670.727 783.471 666.144 Q780.3 661.538 780.3 652.811 Q780.3 644.616 784.189 639.755 Q788.078 634.871 794.629 634.871 Q796.388 634.871 798.17 635.218 Q799.976 635.565 801.92 636.26 Z" fill="#4682b4" fill-rule="nonzero" fill-opacity="1" /><path clip-path="url(#clip790)" d="M1172.31 962.471 L1188.63 962.471 L1188.63 966.406 L1166.69 966.406 L1166.69 962.471 Q1169.35 959.716 1173.93 955.087 Q1178.54 950.434 1179.72 949.091 Q1181.96 946.568 1182.84 944.832 Q1183.75 943.073 1183.75 941.383 Q1183.75 938.628 1181.8 936.892 Q1179.88 935.156 1176.78 935.156 Q1174.58 935.156 1172.13 935.92 Q1169.7 936.684 1166.92 938.235 L1166.92 933.513 Q1169.74 932.378 1172.2 931.8 Q1174.65 931.221 1176.69 931.221 Q1182.06 931.221 1185.25 933.906 Q1188.45 936.591 1188.45 941.082 Q1188.45 943.212 1187.64 945.133 Q1186.85 947.031 1184.74 949.624 Q1184.16 950.295 1181.06 953.513 Q1177.96 956.707 1172.31 962.471 Z" fill="#4682b4" fill-rule="nonzero" fill-opacity="1" /><path clip-path="url(#clip790)" d="M1208.45 934.925 Q1204.83 934.925 1203.01 938.489 Q1201.2 942.031 1201.2 949.161 Q1201.2 956.267 1203.01 959.832 Q1204.83 963.374 1208.45 963.374 Q1212.08 963.374 1213.89 959.832 Q1215.71 956.267 1215.71 949.161 Q1215.71 942.031 1213.89 938.489 Q1212.08 934.925 1208.45 934.925 M1208.45 931.221 Q1214.26 931.221 1217.31 935.827 Q1220.39 940.411 1220.39 949.161 Q1220.39 957.888 1217.31 962.494 Q1214.26 967.077 1208.45 967.077 Q1202.64 967.077 1199.56 962.494 Q1196.5 957.888 1196.5 949.161 Q1196.5 940.411 1199.56 935.827 Q1202.64 931.221 1208.45 931.221 Z" fill="#4682b4" fill-rule="nonzero" fill-opacity="1" /><path clip-path="url(#clip790)" d="M1219.32 989.904 L1226.96 989.904 L1226.96 963.539 L1218.65 965.206 L1218.65 960.946 L1226.92 959.28 L1231.59 959.28 L1231.59 989.904 L1239.23 989.904 L1239.23 993.84 L1219.32 993.84 L1219.32 989.904 Z" fill="#4682b4" fill-rule="nonzero" fill-opacity="1" /><path clip-path="url(#clip790)" d="M1261.52 963.354 L1249.72 981.803 L1261.52 981.803 L1261.52 963.354 M1260.3 959.28 L1266.18 959.28 L1266.18 981.803 L1271.11 981.803 L1271.11 985.692 L1266.18 985.692 L1266.18 993.84 L1261.52 993.84 L1261.52 985.692 L1245.92 985.692 L1245.92 981.178 L1260.3 959.28 Z" fill="#4682b4" fill-rule="nonzero" fill-opacity="1" /><path clip-path="url(#clip790)" d="M1257.7 807.692 L1265.33 807.692 L1265.33 781.326 L1257.02 782.993 L1257.02 778.733 L1265.29 777.067 L1269.96 777.067 L1269.96 807.692 L1277.6 807.692 L1277.6 811.627 L1257.7 811.627 L1257.7 807.692 Z" fill="#4682b4" fill-rule="nonzero" fill-opacity="1" /><path clip-path="url(#clip790)" d="M1297.05 780.145 Q1293.44 780.145 1291.61 783.71 Q1289.8 787.252 1289.8 794.382 Q1289.8 801.488 1291.61 805.053 Q1293.44 808.594 1297.05 808.594 Q1300.68 808.594 1302.49 805.053 Q1304.32 801.488 1304.32 794.382 Q1304.32 787.252 1302.49 783.71 Q1300.68 780.145 1297.05 780.145 M1297.05 776.442 Q1302.86 776.442 1305.91 781.048 Q1308.99 785.632 1308.99 794.382 Q1308.99 803.108 1305.91 807.715 Q1302.86 812.298 1297.05 812.298 Q1291.24 812.298 1288.16 807.715 Q1285.1 803.108 1285.1 794.382 Q1285.1 785.632 1288.16 781.048 Q1291.24 776.442 1297.05 776.442 Z" fill="#4682b4" fill-rule="nonzero" fill-opacity="1" /><path clip-path="url(#clip790)" d="M798.003 606.834 L818.402 606.834 L818.402 611.753 L790.971 611.753 L790.971 606.834 Q794.299 603.39 800.028 597.603 Q805.786 591.787 807.262 590.109 Q810.068 586.955 811.168 584.785 Q812.296 582.586 812.296 580.474 Q812.296 577.031 809.866 574.86 Q807.464 572.69 803.587 572.69 Q800.838 572.69 797.771 573.645 Q794.733 574.6 791.261 576.539 L791.261 570.636 Q794.791 569.218 797.858 568.495 Q800.925 567.771 803.471 567.771 Q810.184 567.771 814.177 571.128 Q818.17 574.484 818.17 580.098 Q818.17 582.76 817.158 585.161 Q816.174 587.534 813.541 590.775 Q812.817 591.614 808.94 595.636 Q805.063 599.629 798.003 606.834 Z" fill="#4682b4" fill-rule="nonzero" fill-opacity="1" /><path clip-path="url(#clip790)" d="M862.007 591.238 Q857.84 591.238 855.439 593.466 Q853.066 595.694 853.066 599.6 Q853.066 603.506 855.439 605.734 Q857.84 607.962 862.007 607.962 Q866.174 607.962 868.575 605.734 Q870.977 603.477 870.977 599.6 Q870.977 595.694 868.575 593.466 Q866.202 591.238 862.007 591.238 M856.162 588.749 Q852.4 587.823 850.288 585.248 Q848.205 582.673 848.205 578.969 Q848.205 573.79 851.88 570.781 Q855.583 567.771 862.007 567.771 Q868.459 567.771 872.134 570.781 Q875.809 573.79 875.809 578.969 Q875.809 582.673 873.697 585.248 Q871.613 587.823 867.881 588.749 Q872.105 589.733 874.449 592.598 Q876.822 595.462 876.822 599.6 Q876.822 605.879 872.973 609.235 Q869.154 612.592 862.007 612.592 Q854.86 612.592 851.012 609.235 Q847.192 605.879 847.192 599.6 Q847.192 595.462 849.565 592.598 Q851.937 589.733 856.162 588.749 M854.021 579.519 Q854.021 582.875 856.104 584.756 Q858.216 586.637 862.007 586.637 Q865.768 586.637 867.881 584.756 Q870.022 582.875 870.022 579.519 Q870.022 576.163 867.881 574.282 Q865.768 572.401 862.007 572.401 Q858.216 572.401 856.104 574.282 Q854.021 576.163 854.021 579.519 Z" fill="#4682b4" fill-rule="nonzero" fill-opacity="1" /><path clip-path="url(#clip790)" d="M906.22 610.856 L906.22 605.532 Q908.419 606.573 910.676 607.123 Q912.933 607.673 915.103 607.673 Q920.89 607.673 923.928 603.796 Q926.995 599.889 927.429 591.961 Q925.751 594.45 923.176 595.781 Q920.6 597.112 917.475 597.112 Q910.994 597.112 907.203 593.205 Q903.442 589.27 903.442 582.47 Q903.442 575.815 907.377 571.793 Q911.312 567.771 917.851 567.771 Q925.346 567.771 929.281 573.529 Q933.245 579.259 933.245 590.196 Q933.245 600.41 928.384 606.515 Q923.552 612.592 915.363 612.592 Q913.164 612.592 910.907 612.158 Q908.65 611.724 906.22 610.856 M917.851 592.54 Q921.787 592.54 924.073 589.849 Q926.387 587.158 926.387 582.47 Q926.387 577.812 924.073 575.121 Q921.787 572.401 917.851 572.401 Q913.916 572.401 911.602 575.121 Q909.316 577.812 909.316 582.47 Q909.316 587.158 911.602 589.849 Q913.916 592.54 917.851 592.54 Z" fill="#4682b4" fill-rule="nonzero" fill-opacity="1" /><path clip-path="url(#clip790)" d="M1647.24 1152.76 L3152.76 1152.76 L3152.76 97.0121 L1647.24 97.0121  Z" fill="#ffffff" fill-rule="evenodd" fill-opacity="1"/>
<defs>
  <clipPath id="clip793">
    <rect x="1647" y="97" width="1507" height="1057"/>
  </clipPath>
</defs>
<polyline clip-path="url(#clip790)" style="stroke:#000000; stroke-linecap:round; stroke-linejoin:round; stroke-width:4; stroke-opacity:1; fill:none" points="1647.24,1152.76 3152.76,1152.76 "/>
<polyline clip-path="url(#clip790)" style="stroke:#000000; stroke-linecap:round; stroke-linejoin:round; stroke-width:4; stroke-opacity:1; fill:none" points="1647.24,97.0121 3152.76,97.0121 "/>
<polyline clip-path="url(#clip790)" style="stroke:#000000; stroke-linecap:round; stroke-linejoin:round; stroke-width:4; stroke-opacity:1; fill:none" points="1647.24,1152.76 1647.24,97.0121 "/>
<polyline clip-path="url(#clip790)" style="stroke:#000000; stroke-linecap:round; stroke-linejoin:round; stroke-width:4; stroke-opacity:1; fill:none" points="3152.76,1152.76 3152.76,97.0121 "/>
<path clip-path="url(#clip790)" d="M2179.02 65.6895 L2207.58 65.6895 L2207.58 72.576 L2169.18 72.576 L2169.18 65.6895 Q2173.84 60.8689 2181.86 52.7671 Q2189.92 44.6248 2191.99 42.2752 Q2195.92 37.8598 2197.45 34.8216 Q2199.03 31.7429 2199.03 28.7857 Q2199.03 23.9651 2195.63 20.927 Q2192.27 17.8888 2186.84 17.8888 Q2182.99 17.8888 2178.7 19.2256 Q2174.45 20.5624 2169.58 23.2765 L2169.58 15.0127 Q2174.53 13.0277 2178.82 12.015 Q2183.11 11.0023 2186.68 11.0023 Q2196.08 11.0023 2201.67 15.7013 Q2207.26 20.4004 2207.26 28.2591 Q2207.26 31.9859 2205.84 35.3482 Q2204.46 38.6699 2200.78 43.2069 Q2199.76 44.3817 2194.34 50.0125 Q2188.91 55.6027 2179.02 65.6895 Z" fill="#000000" fill-rule="nonzero" fill-opacity="1" /><path clip-path="url(#clip790)" d="M2268.63 43.8551 Q2262.8 43.8551 2259.43 46.9743 Q2256.11 50.0935 2256.11 55.5622 Q2256.11 61.0309 2259.43 64.1501 Q2262.8 67.2693 2268.63 67.2693 Q2274.46 67.2693 2277.82 64.1501 Q2281.19 60.9904 2281.19 55.5622 Q2281.19 50.0935 2277.82 46.9743 Q2274.5 43.8551 2268.63 43.8551 M2260.45 40.3713 Q2255.18 39.075 2252.22 35.4697 Q2249.31 31.8644 2249.31 26.6793 Q2249.31 19.4281 2254.45 15.2152 Q2259.64 11.0023 2268.63 11.0023 Q2277.66 11.0023 2282.81 15.2152 Q2287.95 19.4281 2287.95 26.6793 Q2287.95 31.8644 2284.99 35.4697 Q2282.08 39.075 2276.85 40.3713 Q2282.77 41.7486 2286.05 45.759 Q2289.37 49.7694 2289.37 55.5622 Q2289.37 64.3527 2283.98 69.0517 Q2278.63 73.7508 2268.63 73.7508 Q2258.62 73.7508 2253.24 69.0517 Q2247.89 64.3527 2247.89 55.5622 Q2247.89 49.7694 2251.21 45.759 Q2254.53 41.7486 2260.45 40.3713 M2257.45 27.4489 Q2257.45 32.148 2260.37 34.7811 Q2263.32 37.4142 2268.63 37.4142 Q2273.9 37.4142 2276.85 34.7811 Q2279.85 32.148 2279.85 27.4489 Q2279.85 22.7499 2276.85 20.1168 Q2273.9 17.4837 2268.63 17.4837 Q2263.32 17.4837 2260.37 20.1168 Q2257.45 22.7499 2257.45 27.4489 Z" fill="#000000" fill-rule="nonzero" fill-opacity="1" /><path clip-path="url(#clip790)" d="M2330.53 71.3202 L2330.53 63.8666 Q2333.61 65.3249 2336.77 66.0946 Q2339.93 66.8642 2342.96 66.8642 Q2351.07 66.8642 2355.32 61.436 Q2359.61 55.9673 2360.22 44.8678 Q2357.87 48.3516 2354.27 50.215 Q2350.66 52.0784 2346.29 52.0784 Q2337.21 52.0784 2331.9 46.6097 Q2326.64 41.1005 2326.64 31.5808 Q2326.64 22.2638 2332.15 16.633 Q2337.66 11.0023 2346.81 11.0023 Q2357.3 11.0023 2362.81 19.0636 Q2368.36 27.0843 2368.36 42.3968 Q2368.36 56.6965 2361.56 65.2439 Q2354.79 73.7508 2343.33 73.7508 Q2340.25 73.7508 2337.09 73.1431 Q2333.93 72.5355 2330.53 71.3202 M2346.81 45.678 Q2352.32 45.678 2355.52 41.9107 Q2358.76 38.1433 2358.76 31.5808 Q2358.76 25.0589 2355.52 21.2916 Q2352.32 17.4837 2346.81 17.4837 Q2341.3 17.4837 2338.06 21.2916 Q2334.86 25.0589 2334.86 31.5808 Q2334.86 38.1433 2338.06 41.9107 Q2341.3 45.678 2346.81 45.678 Z" fill="#000000" fill-rule="nonzero" fill-opacity="1" /><path clip-path="url(#clip790)" d="M2410.86 65.6895 L2424.22 65.6895 L2424.22 19.5497 L2409.68 22.4663 L2409.68 15.0127 L2424.14 12.096 L2432.33 12.096 L2432.33 65.6895 L2445.69 65.6895 L2445.69 72.576 L2410.86 72.576 L2410.86 65.6895 Z" fill="#000000" fill-rule="nonzero" fill-opacity="1" /><path clip-path="url(#clip790)" d="M2463.64 65.6895 L2477.01 65.6895 L2477.01 19.5497 L2462.46 22.4663 L2462.46 15.0127 L2476.93 12.096 L2485.11 12.096 L2485.11 65.6895 L2498.48 65.6895 L2498.48 72.576 L2463.64 72.576 L2463.64 65.6895 Z" fill="#000000" fill-rule="nonzero" fill-opacity="1" /><path clip-path="url(#clip790)" d="M2548.43 65.6895 L2576.98 65.6895 L2576.98 72.576 L2538.58 72.576 L2538.58 65.6895 Q2543.24 60.8689 2551.26 52.7671 Q2559.32 44.6248 2561.39 42.2752 Q2565.32 37.8598 2566.86 34.8216 Q2568.44 31.7429 2568.44 28.7857 Q2568.44 23.9651 2565.03 20.927 Q2561.67 17.8888 2556.24 17.8888 Q2552.4 17.8888 2548.1 19.2256 Q2543.85 20.5624 2538.99 23.2765 L2538.99 15.0127 Q2543.93 13.0277 2548.22 12.015 Q2552.52 11.0023 2556.08 11.0023 Q2565.48 11.0023 2571.07 15.7013 Q2576.66 20.4004 2576.66 28.2591 Q2576.66 31.9859 2575.24 35.3482 Q2573.86 38.6699 2570.18 43.2069 Q2569.17 44.3817 2563.74 50.0125 Q2558.31 55.6027 2548.43 65.6895 Z" fill="#000000" fill-rule="nonzero" fill-opacity="1" /><path clip-path="url(#clip790)" d="M2594.24 12.096 L2626.36 12.096 L2626.36 18.9825 L2601.74 18.9825 L2601.74 33.8088 Q2603.52 33.2012 2605.3 32.9176 Q2607.08 32.5936 2608.86 32.5936 Q2618.99 32.5936 2624.91 38.1433 Q2630.82 43.6931 2630.82 53.1722 Q2630.82 62.9348 2624.74 68.3631 Q2618.67 73.7508 2607.61 73.7508 Q2603.8 73.7508 2599.83 73.1026 Q2595.9 72.4545 2591.69 71.1582 L2591.69 62.9348 Q2595.33 64.9198 2599.22 65.892 Q2603.11 66.8642 2607.45 66.8642 Q2614.45 66.8642 2618.55 63.1779 Q2622.64 59.4916 2622.64 53.1722 Q2622.64 46.8528 2618.55 43.1664 Q2614.45 39.4801 2607.45 39.4801 Q2604.17 39.4801 2600.88 40.2093 Q2597.64 40.9384 2594.24 42.4778 L2594.24 12.096 Z" fill="#000000" fill-rule="nonzero" fill-opacity="1" /><path clip-path="url(#clip793)" d="M2529.32 308.161 L1997.37 314.148 L1948.35 314.706 L2054.77 407.653 L2721.02 885.225 L2802.59 941.39 L2820.27 941.607 L2851.65 610.605 L2851.65 596.012 L2529.32 308.161  Z" fill="#cae1ff" fill-rule="evenodd" fill-opacity="0.5"/>
<polyline clip-path="url(#clip793)" style="stroke:#4682b4; stroke-linecap:round; stroke-linejoin:round; stroke-width:8; stroke-opacity:1; fill:none" points="2529.32,308.161 1997.37,314.148 1948.35,314.706 2054.77,407.653 2721.02,885.225 2802.59,941.39 2820.27,941.607 2851.65,610.605 2851.65,596.012 2529.32,308.161 "/>
<circle clip-path="url(#clip793)" cx="2529.32" cy="308.161" r="18" fill="#4682b4" fill-rule="evenodd" fill-opacity="1" stroke="none"/>
<circle clip-path="url(#clip793)" cx="1997.37" cy="314.148" r="18" fill="#4682b4" fill-rule="evenodd" fill-opacity="1" stroke="none"/>
<circle clip-path="url(#clip793)" cx="1948.35" cy="314.706" r="18" fill="#4682b4" fill-rule="evenodd" fill-opacity="1" stroke="none"/>
<circle clip-path="url(#clip793)" cx="2054.77" cy="407.653" r="18" fill="#4682b4" fill-rule="evenodd" fill-opacity="1" stroke="none"/>
<circle clip-path="url(#clip793)" cx="2721.02" cy="885.225" r="18" fill="#4682b4" fill-rule="evenodd" fill-opacity="1" stroke="none"/>
<circle clip-path="url(#clip793)" cx="2802.59" cy="941.39" r="18" fill="#4682b4" fill-rule="evenodd" fill-opacity="1" stroke="none"/>
<circle clip-path="url(#clip793)" cx="2820.27" cy="941.607" r="18" fill="#4682b4" fill-rule="evenodd" fill-opacity="1" stroke="none"/>
<circle clip-path="url(#clip793)" cx="2851.65" cy="610.605" r="18" fill="#4682b4" fill-rule="evenodd" fill-opacity="1" stroke="none"/>
<circle clip-path="url(#clip793)" cx="2851.65" cy="596.012" r="18" fill="#4682b4" fill-rule="evenodd" fill-opacity="1" stroke="none"/>
<path clip-path="url(#clip790)" d="M2216.36 290.198 L2224 290.198 L2224 263.833 L2215.69 265.5 L2215.69 261.24 L2223.95 259.574 L2228.63 259.574 L2228.63 290.198 L2236.27 290.198 L2236.27 294.134 L2216.36 294.134 L2216.36 290.198 Z" fill="#4682b4" fill-rule="nonzero" fill-opacity="1" /><path clip-path="url(#clip790)" d="M2259.88 275.499 Q2263.23 276.217 2265.11 278.486 Q2267.01 280.754 2267.01 284.087 Q2267.01 289.203 2263.49 292.004 Q2259.97 294.805 2253.49 294.805 Q2251.31 294.805 2249 294.365 Q2246.71 293.948 2244.25 293.092 L2244.25 288.578 Q2246.2 289.712 2248.51 290.291 Q2250.83 290.87 2253.35 290.87 Q2257.75 290.87 2260.04 289.134 Q2262.35 287.398 2262.35 284.087 Q2262.35 281.032 2260.2 279.319 Q2258.07 277.583 2254.25 277.583 L2250.22 277.583 L2250.22 273.74 L2254.44 273.74 Q2257.89 273.74 2259.71 272.374 Q2261.54 270.986 2261.54 268.393 Q2261.54 265.731 2259.64 264.319 Q2257.77 262.884 2254.25 262.884 Q2252.33 262.884 2250.13 263.3 Q2247.93 263.717 2245.29 264.597 L2245.29 260.43 Q2247.96 259.689 2250.27 259.319 Q2252.61 258.949 2254.67 258.949 Q2259.99 258.949 2263.09 261.379 Q2266.2 263.787 2266.2 267.907 Q2266.2 270.777 2264.55 272.768 Q2262.91 274.736 2259.88 275.499 Z" fill="#4682b4" fill-rule="nonzero" fill-opacity="1" /><path clip-path="url(#clip790)" d="M1904.63 302.105 L1920.95 302.105 L1920.95 306.04 L1899 306.04 L1899 302.105 Q1901.66 299.35 1906.25 294.721 Q1910.85 290.068 1912.03 288.725 Q1914.28 286.202 1915.16 284.466 Q1916.06 282.707 1916.06 281.017 Q1916.06 278.262 1914.12 276.526 Q1912.2 274.79 1909.09 274.79 Q1906.9 274.79 1904.44 275.554 Q1902.01 276.318 1899.23 277.869 L1899.23 273.147 Q1902.06 272.013 1904.51 271.434 Q1906.96 270.855 1909 270.855 Q1914.37 270.855 1917.57 273.54 Q1920.76 276.225 1920.76 280.716 Q1920.76 282.846 1919.95 284.767 Q1919.16 286.665 1917.06 289.258 Q1916.48 289.929 1913.38 293.147 Q1910.27 296.341 1904.63 302.105 Z" fill="#4682b4" fill-rule="nonzero" fill-opacity="1" /><path clip-path="url(#clip790)" d="M1934.79 302.105 L1951.11 302.105 L1951.11 306.04 L1929.16 306.04 L1929.16 302.105 Q1931.83 299.35 1936.41 294.721 Q1941.02 290.068 1942.2 288.725 Q1944.44 286.202 1945.32 284.466 Q1946.22 282.707 1946.22 281.017 Q1946.22 278.262 1944.28 276.526 Q1942.36 274.79 1939.26 274.79 Q1937.06 274.79 1934.6 275.554 Q1932.17 276.318 1929.4 277.869 L1929.4 273.147 Q1932.22 272.013 1934.67 271.434 Q1937.13 270.855 1939.16 270.855 Q1944.53 270.855 1947.73 273.54 Q1950.92 276.225 1950.92 280.716 Q1950.92 282.846 1950.11 284.767 Q1949.33 286.665 1947.22 289.258 Q1946.64 289.929 1943.54 293.147 Q1940.44 296.341 1934.79 302.105 Z" fill="#4682b4" fill-rule="nonzero" fill-opacity="1" /><path clip-path="url(#clip790)" d="M1926.14 351.226 L1933.78 351.226 L1933.78 324.86 L1925.47 326.527 L1925.47 322.268 L1933.73 320.601 L1938.41 320.601 L1938.41 351.226 L1946.05 351.226 L1946.05 355.161 L1926.14 355.161 L1926.14 351.226 Z" fill="#4682b4" fill-rule="nonzero" fill-opacity="1" /><path clip-path="url(#clip790)" d="M1965.49 338.749 Q1962.16 338.749 1960.24 340.531 Q1958.34 342.314 1958.34 345.439 Q1958.34 348.564 1960.24 350.346 Q1962.16 352.129 1965.49 352.129 Q1968.83 352.129 1970.75 350.346 Q1972.67 348.541 1972.67 345.439 Q1972.67 342.314 1970.75 340.531 Q1968.85 338.749 1965.49 338.749 M1960.82 336.758 Q1957.81 336.018 1956.12 333.957 Q1954.45 331.897 1954.45 328.934 Q1954.45 324.791 1957.39 322.383 Q1960.35 319.976 1965.49 319.976 Q1970.66 319.976 1973.59 322.383 Q1976.53 324.791 1976.53 328.934 Q1976.53 331.897 1974.84 333.957 Q1973.18 336.018 1970.19 336.758 Q1973.57 337.545 1975.45 339.837 Q1977.34 342.129 1977.34 345.439 Q1977.34 350.462 1974.27 353.147 Q1971.21 355.832 1965.49 355.832 Q1959.78 355.832 1956.7 353.147 Q1953.64 350.462 1953.64 345.439 Q1953.64 342.129 1955.54 339.837 Q1957.44 337.545 1960.82 336.758 M1959.1 329.374 Q1959.1 332.059 1960.77 333.564 Q1962.46 335.069 1965.49 335.069 Q1968.5 335.069 1970.19 333.564 Q1971.91 332.059 1971.91 329.374 Q1971.91 326.689 1970.19 325.184 Q1968.5 323.68 1965.49 323.68 Q1962.46 323.68 1960.77 325.184 Q1959.1 326.689 1959.1 329.374 Z" fill="#4682b4" fill-rule="nonzero" fill-opacity="1" /><path clip-path="url(#clip790)" d="M2349.86 667.918 L2357.5 667.918 L2357.5 641.552 L2349.19 643.219 L2349.19 638.96 L2357.46 637.293 L2362.13 637.293 L2362.13 667.918 L2369.77 667.918 L2369.77 671.853 L2349.86 671.853 L2349.86 667.918 Z" fill="#4682b4" fill-rule="nonzero" fill-opacity="1" /><path clip-path="url(#clip790)" d="M2389.8 652.71 Q2386.65 652.71 2384.8 654.863 Q2382.97 657.015 2382.97 660.765 Q2382.97 664.492 2384.8 666.668 Q2386.65 668.821 2389.8 668.821 Q2392.94 668.821 2394.77 666.668 Q2396.62 664.492 2396.62 660.765 Q2396.62 657.015 2394.77 654.863 Q2392.94 652.71 2389.8 652.71 M2399.08 638.057 L2399.08 642.316 Q2397.32 641.483 2395.51 641.043 Q2393.73 640.603 2391.97 640.603 Q2387.34 640.603 2384.89 643.728 Q2382.46 646.853 2382.11 653.173 Q2383.48 651.159 2385.54 650.094 Q2387.6 649.006 2390.07 649.006 Q2395.28 649.006 2398.29 652.177 Q2401.32 655.326 2401.32 660.765 Q2401.32 666.089 2398.17 669.307 Q2395.03 672.524 2389.8 672.524 Q2383.8 672.524 2380.63 667.941 Q2377.46 663.335 2377.46 654.608 Q2377.46 646.414 2381.35 641.552 Q2385.24 636.668 2391.79 636.668 Q2393.55 636.668 2395.33 637.015 Q2397.13 637.363 2399.08 638.057 Z" fill="#4682b4" fill-rule="nonzero" fill-opacity="1" /><path clip-path="url(#clip790)" d="M2768.63 963.999 L2784.94 963.999 L2784.94 967.935 L2763 967.935 L2763 963.999 Q2765.66 961.245 2770.25 956.615 Q2774.85 951.962 2776.03 950.62 Q2778.28 948.097 2779.16 946.361 Q2780.06 944.601 2780.06 942.912 Q2780.06 940.157 2778.12 938.421 Q2776.19 936.685 2773.09 936.685 Q2770.89 936.685 2768.44 937.449 Q2766.01 938.212 2763.23 939.763 L2763.23 935.041 Q2766.06 933.907 2768.51 933.328 Q2770.96 932.75 2773 932.75 Q2778.37 932.75 2781.57 935.435 Q2784.76 938.12 2784.76 942.611 Q2784.76 944.74 2783.95 946.662 Q2783.16 948.56 2781.06 951.152 Q2780.48 951.824 2777.38 955.041 Q2774.27 958.236 2768.63 963.999 Z" fill="#4682b4" fill-rule="nonzero" fill-opacity="1" /><path clip-path="url(#clip790)" d="M2804.76 936.453 Q2801.15 936.453 2799.32 940.018 Q2797.51 943.56 2797.51 950.689 Q2797.51 957.796 2799.32 961.361 Q2801.15 964.902 2804.76 964.902 Q2808.39 964.902 2810.2 961.361 Q2812.03 957.796 2812.03 950.689 Q2812.03 943.56 2810.2 940.018 Q2808.39 936.453 2804.76 936.453 M2804.76 932.75 Q2810.57 932.75 2813.63 937.356 Q2816.7 941.939 2816.7 950.689 Q2816.7 959.416 2813.63 964.023 Q2810.57 968.606 2804.76 968.606 Q2798.95 968.606 2795.87 964.023 Q2792.82 959.416 2792.82 950.689 Q2792.82 941.939 2795.87 937.356 Q2798.95 932.75 2804.76 932.75 Z" fill="#4682b4" fill-rule="nonzero" fill-opacity="1" /><path clip-path="url(#clip790)" d="M2816.22 991.315 L2823.86 991.315 L2823.86 964.949 L2815.55 966.616 L2815.55 962.357 L2823.82 960.69 L2828.49 960.69 L2828.49 991.315 L2836.13 991.315 L2836.13 995.25 L2816.22 995.25 L2816.22 991.315 Z" fill="#4682b4" fill-rule="nonzero" fill-opacity="1" /><path clip-path="url(#clip790)" d="M2858.42 964.764 L2846.62 983.213 L2858.42 983.213 L2858.42 964.764 M2857.2 960.69 L2863.08 960.69 L2863.08 983.213 L2868.01 983.213 L2868.01 987.102 L2863.08 987.102 L2863.08 995.25 L2858.42 995.25 L2858.42 987.102 L2842.82 987.102 L2842.82 982.588 L2857.2 960.69 Z" fill="#4682b4" fill-rule="nonzero" fill-opacity="1" /><path clip-path="url(#clip790)" d="M2856.15 809.328 L2863.79 809.328 L2863.79 782.963 L2855.48 784.629 L2855.48 780.37 L2863.75 778.703 L2868.42 778.703 L2868.42 809.328 L2876.06 809.328 L2876.06 813.263 L2856.15 813.263 L2856.15 809.328 Z" fill="#4682b4" fill-rule="nonzero" fill-opacity="1" /><path clip-path="url(#clip790)" d="M2895.51 781.782 Q2891.9 781.782 2890.07 785.347 Q2888.26 788.888 2888.26 796.018 Q2888.26 803.125 2890.07 806.689 Q2891.9 810.231 2895.51 810.231 Q2899.14 810.231 2900.95 806.689 Q2902.77 803.125 2902.77 796.018 Q2902.77 788.888 2900.95 785.347 Q2899.14 781.782 2895.51 781.782 M2895.51 778.078 Q2901.32 778.078 2904.37 782.685 Q2907.45 787.268 2907.45 796.018 Q2907.45 804.745 2904.37 809.351 Q2901.32 813.935 2895.51 813.935 Q2889.7 813.935 2886.62 809.351 Q2883.56 804.745 2883.56 796.018 Q2883.56 787.268 2886.62 782.685 Q2889.7 778.078 2895.51 778.078 Z" fill="#4682b4" fill-rule="nonzero" fill-opacity="1" /><path clip-path="url(#clip790)" d="M2914.77 592.329 L2902.96 610.778 L2914.77 610.778 L2914.77 592.329 M2913.54 588.255 L2919.42 588.255 L2919.42 610.778 L2924.35 610.778 L2924.35 614.667 L2919.42 614.667 L2919.42 622.815 L2914.77 622.815 L2914.77 614.667 L2899.17 614.667 L2899.17 610.153 L2913.54 588.255 Z" fill="#4682b4" fill-rule="nonzero" fill-opacity="1" /><path clip-path="url(#clip790)" d="M2697.38 444.794 L2705.02 444.794 L2705.02 418.428 L2696.71 420.095 L2696.71 415.835 L2704.97 414.169 L2709.65 414.169 L2709.65 444.794 L2717.29 444.794 L2717.29 448.729 L2697.38 448.729 L2697.38 444.794 Z" fill="#4682b4" fill-rule="nonzero" fill-opacity="1" /><path clip-path="url(#clip790)" d="M2727.54 444.794 L2735.18 444.794 L2735.18 418.428 L2726.87 420.095 L2726.87 415.835 L2735.13 414.169 L2739.81 414.169 L2739.81 444.794 L2747.45 444.794 L2747.45 448.729 L2727.54 448.729 L2727.54 444.794 Z" fill="#4682b4" fill-rule="nonzero" fill-opacity="1" /><path clip-path="url(#clip790)" d="M2350.71 607.737 L2371.11 607.737 L2371.11 612.656 L2343.68 612.656 L2343.68 607.737 Q2347.01 604.294 2352.74 598.507 Q2358.5 592.691 2359.97 591.013 Q2362.78 587.859 2363.88 585.689 Q2365.01 583.49 2365.01 581.378 Q2365.01 577.934 2362.58 575.764 Q2360.18 573.594 2356.3 573.594 Q2353.55 573.594 2350.48 574.549 Q2347.44 575.504 2343.97 577.442 L2343.97 571.54 Q2347.5 570.122 2350.57 569.398 Q2353.64 568.675 2356.18 568.675 Q2362.9 568.675 2366.89 572.031 Q2370.88 575.388 2370.88 581.001 Q2370.88 583.663 2369.87 586.065 Q2368.88 588.438 2366.25 591.678 Q2365.53 592.517 2361.65 596.539 Q2357.77 600.532 2350.71 607.737 Z" fill="#4682b4" fill-rule="nonzero" fill-opacity="1" /><path clip-path="url(#clip790)" d="M2414.72 592.141 Q2410.55 592.141 2408.15 594.369 Q2405.78 596.597 2405.78 600.504 Q2405.78 604.41 2408.15 606.638 Q2410.55 608.866 2414.72 608.866 Q2418.88 608.866 2421.29 606.638 Q2423.69 604.381 2423.69 600.504 Q2423.69 596.597 2421.29 594.369 Q2418.91 592.141 2414.72 592.141 M2408.87 589.653 Q2405.11 588.727 2403 586.152 Q2400.92 583.577 2400.92 579.873 Q2400.92 574.694 2404.59 571.684 Q2408.29 568.675 2414.72 568.675 Q2421.17 568.675 2424.85 571.684 Q2428.52 574.694 2428.52 579.873 Q2428.52 583.577 2426.41 586.152 Q2424.32 588.727 2420.59 589.653 Q2424.82 590.637 2427.16 593.501 Q2429.53 596.366 2429.53 600.504 Q2429.53 606.782 2425.68 610.139 Q2421.86 613.495 2414.72 613.495 Q2407.57 613.495 2403.72 610.139 Q2399.9 606.782 2399.9 600.504 Q2399.9 596.366 2402.28 593.501 Q2404.65 590.637 2408.87 589.653 M2406.73 580.423 Q2406.73 583.779 2408.82 585.66 Q2410.93 587.541 2414.72 587.541 Q2418.48 587.541 2420.59 585.66 Q2422.73 583.779 2422.73 580.423 Q2422.73 577.066 2420.59 575.185 Q2418.48 573.305 2414.72 573.305 Q2410.93 573.305 2408.82 575.185 Q2406.73 577.066 2406.73 580.423 Z" fill="#4682b4" fill-rule="nonzero" fill-opacity="1" /><path clip-path="url(#clip790)" d="M2458.93 611.759 L2458.93 606.435 Q2461.13 607.477 2463.39 608.027 Q2465.64 608.576 2467.81 608.576 Q2473.6 608.576 2476.64 604.699 Q2479.71 600.793 2480.14 592.865 Q2478.46 595.353 2475.89 596.684 Q2473.31 598.015 2470.19 598.015 Q2463.7 598.015 2459.91 594.109 Q2456.15 590.174 2456.15 583.374 Q2456.15 576.719 2460.09 572.697 Q2464.02 568.675 2470.56 568.675 Q2478.06 568.675 2481.99 574.433 Q2485.96 580.162 2485.96 591.1 Q2485.96 601.314 2481.09 607.419 Q2476.26 613.495 2468.07 613.495 Q2465.87 613.495 2463.62 613.061 Q2461.36 612.627 2458.93 611.759 M2470.56 593.443 Q2474.5 593.443 2476.78 590.752 Q2479.1 588.061 2479.1 583.374 Q2479.1 578.715 2476.78 576.025 Q2474.5 573.305 2470.56 573.305 Q2466.63 573.305 2464.31 576.025 Q2462.03 578.715 2462.03 583.374 Q2462.03 588.061 2464.31 590.752 Q2466.63 593.443 2470.56 593.443 Z" fill="#4682b4" fill-rule="nonzero" fill-opacity="1" /><path clip-path="url(#clip790)" d="M2516.31 607.737 L2525.86 607.737 L2525.86 574.78 L2515.47 576.864 L2515.47 571.54 L2525.8 569.456 L2531.64 569.456 L2531.64 607.737 L2541.19 607.737 L2541.19 612.656 L2516.31 612.656 L2516.31 607.737 Z" fill="#4682b4" fill-rule="nonzero" fill-opacity="1" /><path clip-path="url(#clip790)" d="M2554.01 607.737 L2563.56 607.737 L2563.56 574.78 L2553.17 576.864 L2553.17 571.54 L2563.5 569.456 L2569.35 569.456 L2569.35 607.737 L2578.9 607.737 L2578.9 612.656 L2554.01 612.656 L2554.01 607.737 Z" fill="#4682b4" fill-rule="nonzero" fill-opacity="1" /><path clip-path="url(#clip790)" d="M2614.57 607.737 L2634.97 607.737 L2634.97 612.656 L2607.54 612.656 L2607.54 607.737 Q2610.87 604.294 2616.6 598.507 Q2622.36 592.691 2623.83 591.013 Q2626.64 587.859 2627.74 585.689 Q2628.87 583.49 2628.87 581.378 Q2628.87 577.934 2626.44 575.764 Q2624.03 573.594 2620.16 573.594 Q2617.41 573.594 2614.34 574.549 Q2611.3 575.504 2607.83 577.442 L2607.83 571.54 Q2611.36 570.122 2614.43 569.398 Q2617.49 568.675 2620.04 568.675 Q2626.75 568.675 2630.75 572.031 Q2634.74 575.388 2634.74 581.001 Q2634.74 583.663 2633.73 586.065 Q2632.74 588.438 2630.11 591.678 Q2629.39 592.517 2625.51 596.539 Q2621.63 600.532 2614.57 607.737 Z" fill="#4682b4" fill-rule="nonzero" fill-opacity="1" /><path clip-path="url(#clip790)" d="M2647.3 569.456 L2670.24 569.456 L2670.24 574.375 L2652.65 574.375 L2652.65 584.965 Q2653.92 584.531 2655.2 584.329 Q2656.47 584.097 2657.74 584.097 Q2664.98 584.097 2669.2 588.061 Q2673.43 592.026 2673.43 598.796 Q2673.43 605.77 2669.09 609.647 Q2664.75 613.495 2656.85 613.495 Q2654.13 613.495 2651.29 613.032 Q2648.48 612.569 2645.47 611.644 L2645.47 605.77 Q2648.08 607.188 2650.86 607.882 Q2653.63 608.576 2656.73 608.576 Q2661.74 608.576 2664.66 605.943 Q2667.58 603.31 2667.58 598.796 Q2667.58 594.283 2664.66 591.649 Q2661.74 589.016 2656.73 589.016 Q2654.39 589.016 2652.04 589.537 Q2649.73 590.058 2647.3 591.158 L2647.3 569.456 Z" fill="#4682b4" fill-rule="nonzero" fill-opacity="1" /></svg>
