<?xml version="1.0" encoding="utf-8"?>
<svg xmlns="http://www.w3.org/2000/svg" xmlns:xlink="http://www.w3.org/1999/xlink" width="400" height="400" viewBox="0 0 1600 1600">
<defs>
  <clipPath id="clip010">
    <rect x="0" y="0" width="1600" height="1600"/>
  </clipPath>
</defs>
<path clip-path="url(#clip010)" d="M0 1600 L1600 1600 L1600 0 L0 0  Z" fill="#ffffff" fill-rule="evenodd" fill-opacity="1"/>
<defs>
  <clipPath id="clip011">
    <rect x="320" y="160" width="1121" height="1121"/>
  </clipPath>
</defs>
<path clip-path="url(#clip010)" d="M47.2441 1552.76 L1552.76 1552.76 L1552.76 153.712 L47.2441 153.712  Z" fill="#ffffff" fill-rule="evenodd" fill-opacity="1"/>
<defs>
  <clipPath id="clip012">
    <rect x="47" y="153" width="1507" height="1400"/>
  </clipPath>
</defs>
<polyline clip-path="url(#clip010)" style="stroke:#000000; stroke-linecap:round; stroke-linejoin:round; stroke-width:4; stroke-opacity:1; fill:none" points="47.2441,1552.76 1552.76,1552.76 "/>
<polyline clip-path="url(#clip010)" style="stroke:#000000; stroke-linecap:round; stroke-linejoin:round; stroke-width:4; stroke-opacity:1; fill:none" points="47.2441,153.712 1552.76,153.712 "/>
<polyline clip-path="url(#clip010)" style="stroke:#000000; stroke-linecap:round; stroke-linejoin:round; stroke-width:4; stroke-opacity:1; fill:none" points="47.2441,1552.76 47.2441,153.712 "/>
<polyline clip-path="url(#clip010)" style="stroke:#000000; stroke-linecap:round; stroke-linejoin:round; stroke-width:4; stroke-opacity:1; fill:none" points="1552.76,1552.76 1552.76,153.712 "/>
<path clip-path="url(#clip010)" d="M521.136 65.6895 L534.504 65.6895 L534.504 19.5497 L519.961 22.4663 L519.961 15.0127 L534.423 12.096 L542.606 12.096 L542.606 65.6895 L555.974 65.6895 L555.974 72.576 L521.136 72.576 L521.136 65.6895 Z" fill="#000000" fill-rule="nonzero" fill-opacity="1" /><path clip-path="url(#clip010)" d="M572.582 12.096 L604.706 12.096 L604.706 18.9825 L580.076 18.9825 L580.076 33.8088 Q581.859 33.2012 583.641 32.9176 Q585.424 32.5936 587.206 32.5936 Q597.333 32.5936 603.248 38.1433 Q609.162 43.6931 609.162 53.1722 Q609.162 62.9348 603.086 68.3631 Q597.009 73.7508 585.95 73.7508 Q582.142 73.7508 578.172 73.1026 Q574.243 72.4545 570.03 71.1582 L570.03 62.9348 Q573.676 64.9198 577.565 65.892 Q581.454 66.8642 585.788 66.8642 Q592.796 66.8642 596.888 63.1779 Q600.979 59.4916 600.979 53.1722 Q600.979 46.8528 596.888 43.1664 Q592.796 39.4801 585.788 39.4801 Q582.507 39.4801 579.226 40.2093 Q575.985 40.9384 572.582 42.4778 L572.582 12.096 Z" fill="#000000" fill-rule="nonzero" fill-opacity="1" /><path clip-path="url(#clip010)" d="M654.573 20.5624 L654.573 43.1259 L677.136 43.1259 L677.136 50.0125 L654.573 50.0125 L654.573 72.576 L647.767 72.576 L647.767 50.0125 L625.203 50.0125 L625.203 43.1259 L647.767 43.1259 L647.767 20.5624 L654.573 20.5624 Z" fill="#000000" fill-rule="nonzero" fill-opacity="1" /><path clip-path="url(#clip010)" d="M722.587 65.6895 L735.955 65.6895 L735.955 19.5497 L721.412 22.4663 L721.412 15.0127 L735.874 12.096 L744.057 12.096 L744.057 65.6895 L757.425 65.6895 L757.425 72.576 L722.587 72.576 L722.587 65.6895 Z" fill="#000000" fill-rule="nonzero" fill-opacity="1" /><path clip-path="url(#clip010)" d="M774.196 71.3202 L774.196 63.8666 Q777.274 65.3249 780.434 66.0946 Q783.594 66.8642 786.632 66.8642 Q794.734 66.8642 798.987 61.436 Q803.281 55.9673 803.889 44.8678 Q801.539 48.3516 797.934 50.215 Q794.329 52.0784 789.954 52.0784 Q780.88 52.0784 775.573 46.6097 Q770.307 41.1005 770.307 31.5808 Q770.307 22.2638 775.816 16.633 Q781.325 11.0023 790.48 11.0023 Q800.972 11.0023 806.481 19.0636 Q812.031 27.0843 812.031 42.3968 Q812.031 56.6965 805.226 65.2439 Q798.461 73.7508 786.997 73.7508 Q783.918 73.7508 780.758 73.1431 Q777.598 72.5355 774.196 71.3202 M790.48 45.678 Q795.99 45.678 799.19 41.9107 Q802.431 38.1433 802.431 31.5808 Q802.431 25.0589 799.19 21.2916 Q795.99 17.4837 790.48 17.4837 Q784.971 17.4837 781.73 21.2916 Q778.53 25.0589 778.53 31.5808 Q778.53 38.1433 781.73 41.9107 Q784.971 45.678 790.48 45.678 Z" fill="#000000" fill-rule="nonzero" fill-opacity="1" /><path clip-path="url(#clip010)" d="M856.024 20.5624 L856.024 43.1259 L878.588 43.1259 L878.588 50.0125 L856.024 50.0125 L856.024 72.576 L849.218 72.576 L849.218 50.0125 L826.655 50.0125 L826.655 43.1259 L849.218 43.1259 L849.218 20.5624 L856.024 20.5624 Z" fill="#000000" fill-rule="nonzero" fill-opacity="1" /><path clip-path="url(#clip010)" d="M929.669 65.6895 L958.228 65.6895 L958.228 72.576 L919.826 72.576 L919.826 65.6895 Q924.484 60.8689 932.505 52.7671 Q940.566 44.6248 942.632 42.2752 Q946.562 37.8598 948.101 34.8216 Q949.681 31.7429 949.681 28.7857 Q949.681 23.9651 946.278 20.927 Q942.916 17.8888 937.488 17.8888 Q933.639 17.8888 929.345 19.2256 Q925.092 20.5624 920.231 23.2765 L920.231 15.0127 Q925.173 13.0277 929.467 12.015 Q933.761 11.0023 937.326 11.0023 Q946.724 11.0023 952.314 15.7013 Q957.904 20.4004 957.904 28.2591 Q957.904 31.9859 956.486 35.3482 Q955.109 38.6699 951.423 43.2069 Q950.41 44.3817 944.982 50.0125 Q939.554 55.6027 929.669 65.6895 Z" fill="#000000" fill-rule="nonzero" fill-opacity="1" /><path clip-path="url(#clip010)" d="M976.822 65.6895 L990.19 65.6895 L990.19 19.5497 L975.647 22.4663 L975.647 15.0127 L990.109 12.096 L998.292 12.096 L998.292 65.6895 L1011.66 65.6895 L1011.66 72.576 L976.822 72.576 L976.822 65.6895 Z" fill="#000000" fill-rule="nonzero" fill-opacity="1" /><path clip-path="url(#clip010)" d="M1057.48 20.5624 L1057.48 43.1259 L1080.04 43.1259 L1080.04 50.0125 L1057.48 50.0125 L1057.48 72.576 L1050.67 72.576 L1050.67 50.0125 L1028.11 50.0125 L1028.11 43.1259 L1050.67 43.1259 L1050.67 20.5624 L1057.48 20.5624 Z" fill="#000000" fill-rule="nonzero" fill-opacity="1" /><path clip-path="url(#clip012)" d="M348.346 853.234 L749.816 1272.95 L816.728 1244.97 L1191.43 1029.51 L1251.65 979.148 L1251.65 727.32 L1191.43 676.954 L816.728 461.502 L749.816 433.521 L348.346 853.234  Z" fill="#cae1ff" fill-rule="evenodd" fill-opacity="0.5"/>
<polyline clip-path="url(#clip012)" style="stroke:#4682b4; stroke-linecap:round; stroke-linejoin:round; stroke-width:8; stroke-opacity:1; fill:none" points="348.346,853.234 749.816,1272.95 816.728,1244.97 1191.43,1029.51 1251.65,979.148 1251.65,727.32 1191.43,676.954 816.728,461.502 749.816,433.521 348.346,853.234 "/>
<circle clip-path="url(#clip012)" cx="348.346" cy="853.234" r="18" fill="#4682b4" fill-rule="evenodd" fill-opacity="1" stroke="none"/>
<circle clip-path="url(#clip012)" cx="749.816" cy="1272.95" r="18" fill="#4682b4" fill-rule="evenodd" fill-opacity="1" stroke="none"/>
<circle clip-path="url(#clip012)" cx="816.728" cy="1244.97" r="18" fill="#4682b4" fill-rule="evenodd" fill-opacity="1" stroke="none"/>
<circle clip-path="url(#clip012)" cx="1191.43" cy="1029.51" r="18" fill="#4682b4" fill-rule="evenodd" fill-opacity="1" stroke="none"/>
<circle clip-path="url(#clip012)" cx="1251.65" cy="979.148" r="18" fill="#4682b4" fill-rule="evenodd" fill-opacity="1" stroke="none"/>
<circle clip-path="url(#clip012)" cx="1251.65" cy="727.32" r="18" fill="#4682b4" fill-rule="evenodd" fill-opacity="1" stroke="none"/>
<circle clip-path="url(#clip012)" cx="1191.43" cy="676.954" r="18" fill="#4682b4" fill-rule="evenodd" fill-opacity="1" stroke="none"/>
<circle clip-path="url(#clip012)" cx="816.728" cy="461.502" r="18" fill="#4682b4" fill-rule="evenodd" fill-opacity="1" stroke="none"/>
<circle clip-path="url(#clip012)" cx="749.816" cy="433.521" r="18" fill="#4682b4" fill-rule="evenodd" fill-opacity="1" stroke="none"/>
<polyline clip-path="url(#clip012)" style="stroke:#ff0000; stroke-linecap:round; stroke-linejoin:round; stroke-width:12; stroke-opacity:1; fill:none" points="816.728,1244.97 749.816,1272.95 "/>
<polyline clip-path="url(#clip012)" style="stroke:#ff0000; stroke-linecap:round; stroke-linejoin:round; stroke-width:12; stroke-opacity:1; fill:none" points="776.588,1274.76 749.816,1272.95 767.329,1252.62 "/>
<polyline clip-path="url(#clip012)" style="stroke:#ff0000; stroke-linecap:round; stroke-linejoin:round; stroke-width:12; stroke-opacity:1; fill:none" points="749.816,1272.95 816.728,1244.97 "/>
<polyline clip-path="url(#clip012)" style="stroke:#ff0000; stroke-linecap:round; stroke-linejoin:round; stroke-width:12; stroke-opacity:1; fill:none" points="816.728,461.502 749.816,433.521 "/>
<polyline clip-path="url(#clip012)" style="stroke:#ff0000; stroke-linecap:round; stroke-linejoin:round; stroke-width:12; stroke-opacity:1; fill:none" points="767.329,453.851 749.816,433.521 776.588,431.709 "/>
<polyline clip-path="url(#clip012)" style="stroke:#ff0000; stroke-linecap:round; stroke-linejoin:round; stroke-width:12; stroke-opacity:1; fill:none" points="749.816,433.521 816.728,461.502 "/>
<path clip-path="url(#clip010)" d="M155.663 837.515 L165.211 837.515 L165.211 804.558 L154.823 806.641 L154.823 801.317 L165.153 799.234 L170.998 799.234 L170.998 837.515 L180.547 837.515 L180.547 842.434 L155.663 842.434 L155.663 837.515 Z" fill="#000000" fill-rule="nonzero" fill-opacity="1" /><path clip-path="url(#clip010)" d="M119.913 867.882 Q115.399 867.882 113.114 872.338 Q110.857 876.765 110.857 885.677 Q110.857 894.56 113.114 899.016 Q115.399 903.444 119.913 903.444 Q124.456 903.444 126.713 899.016 Q128.999 894.56 128.999 885.677 Q128.999 876.765 126.713 872.338 Q124.456 867.882 119.913 867.882 M119.913 863.253 Q127.176 863.253 130.995 869.011 Q134.844 874.74 134.844 885.677 Q134.844 896.586 130.995 902.344 Q127.176 908.073 119.913 908.073 Q112.651 908.073 108.802 902.344 Q104.983 896.586 104.983 885.677 Q104.983 874.74 108.802 869.011 Q112.651 863.253 119.913 863.253 Z" fill="#000000" fill-rule="nonzero" fill-opacity="1" /><path clip-path="url(#clip010)" d="M170.058 861.951 L170.058 921.21 L165.139 921.21 L165.139 861.951 L170.058 861.951 Z" fill="#000000" fill-rule="nonzero" fill-opacity="1" /><path clip-path="url(#clip010)" d="M215.978 883.305 Q212.042 883.305 209.728 885.996 Q207.442 888.687 207.442 893.374 Q207.442 898.033 209.728 900.753 Q212.042 903.444 215.978 903.444 Q219.913 903.444 222.199 900.753 Q224.513 898.033 224.513 893.374 Q224.513 888.687 222.199 885.996 Q219.913 883.305 215.978 883.305 M227.581 864.989 L227.581 870.313 Q225.381 869.271 223.125 868.721 Q220.897 868.172 218.697 868.172 Q212.91 868.172 209.843 872.078 Q206.805 875.984 206.371 883.883 Q208.078 881.366 210.654 880.035 Q213.229 878.675 216.325 878.675 Q222.835 878.675 226.597 882.639 Q230.387 886.574 230.387 893.374 Q230.387 900.029 226.452 904.051 Q222.517 908.073 215.978 908.073 Q208.483 908.073 204.519 902.344 Q200.555 896.586 200.555 885.677 Q200.555 875.434 205.416 869.358 Q210.277 863.253 218.466 863.253 Q220.665 863.253 222.893 863.687 Q225.15 864.121 227.581 864.989 Z" fill="#000000" fill-rule="nonzero" fill-opacity="1" /><path clip-path="url(#clip010)" d="M544.616 1277.88 L565.015 1277.88 L565.015 1282.8 L537.585 1282.8 L537.585 1277.88 Q540.912 1274.44 546.641 1268.65 Q552.399 1262.84 553.875 1261.16 Q556.682 1258 557.781 1255.83 Q558.91 1253.63 558.91 1251.52 Q558.91 1248.08 556.479 1245.91 Q554.078 1243.74 550.2 1243.74 Q547.452 1243.74 544.384 1244.69 Q541.346 1245.65 537.874 1247.59 L537.874 1241.68 Q541.404 1240.27 544.471 1239.54 Q547.538 1238.82 550.085 1238.82 Q556.798 1238.82 560.791 1242.18 Q564.784 1245.53 564.784 1251.15 Q564.784 1253.81 563.771 1256.21 Q562.787 1258.58 560.154 1261.82 Q559.431 1262.66 555.553 1266.68 Q551.676 1270.68 544.616 1277.88 Z" fill="#000000" fill-rule="nonzero" fill-opacity="1" /><path clip-path="url(#clip010)" d="M577.341 1239.6 L600.287 1239.6 L600.287 1244.52 L582.694 1244.52 L582.694 1255.11 Q583.968 1254.68 585.241 1254.47 Q586.514 1254.24 587.787 1254.24 Q595.021 1254.24 599.245 1258.21 Q603.47 1262.17 603.47 1268.94 Q603.47 1275.91 599.13 1279.79 Q594.789 1283.64 586.89 1283.64 Q584.17 1283.64 581.334 1283.18 Q578.528 1282.71 575.519 1281.79 L575.519 1275.91 Q578.123 1277.33 580.9 1278.03 Q583.678 1278.72 586.774 1278.72 Q591.78 1278.72 594.702 1276.09 Q597.625 1273.46 597.625 1268.94 Q597.625 1264.43 594.702 1261.79 Q591.78 1259.16 586.774 1259.16 Q584.431 1259.16 582.087 1259.68 Q579.772 1260.2 577.341 1261.3 L577.341 1239.6 Z" fill="#000000" fill-rule="nonzero" fill-opacity="1" /><path clip-path="url(#clip010)" d="M510.69 1342.68 L520.238 1342.68 L520.238 1309.73 L509.85 1311.81 L509.85 1306.48 L520.18 1304.4 L526.025 1304.4 L526.025 1342.68 L535.574 1342.68 L535.574 1347.6 L510.69 1347.6 L510.69 1342.68 Z" fill="#000000" fill-rule="nonzero" fill-opacity="1" /><path clip-path="url(#clip010)" d="M572.321 1302.32 L572.321 1361.58 L567.402 1361.58 L567.402 1302.32 L572.321 1302.32 Z" fill="#000000" fill-rule="nonzero" fill-opacity="1" /><path clip-path="url(#clip010)" d="M605.076 1304.4 L628.021 1304.4 L628.021 1309.32 L610.429 1309.32 L610.429 1319.91 Q611.702 1319.48 612.975 1319.27 Q614.248 1319.04 615.521 1319.04 Q622.755 1319.04 626.979 1323.01 Q631.204 1326.97 631.204 1333.74 Q631.204 1340.71 626.864 1344.59 Q622.523 1348.44 614.624 1348.44 Q611.904 1348.44 609.069 1347.98 Q606.262 1347.51 603.253 1346.59 L603.253 1340.71 Q605.857 1342.13 608.635 1342.83 Q611.412 1343.52 614.508 1343.52 Q619.514 1343.52 622.437 1340.89 Q625.359 1338.26 625.359 1333.74 Q625.359 1329.23 622.437 1326.59 Q619.514 1323.96 614.508 1323.96 Q612.165 1323.96 609.821 1324.48 Q607.506 1325 605.076 1326.1 L605.076 1304.4 Z" fill="#000000" fill-rule="nonzero" fill-opacity="1" /><path clip-path="url(#clip010)" d="M607.994 1221.38 L630.94 1221.38 L630.94 1226.3 L613.347 1226.3 L613.347 1236.89 Q614.62 1236.46 615.893 1236.25 Q617.167 1236.02 618.44 1236.02 Q625.673 1236.02 629.898 1239.99 Q634.122 1243.95 634.122 1250.72 Q634.122 1257.69 629.782 1261.57 Q625.442 1265.42 617.543 1265.42 Q614.823 1265.42 611.987 1264.96 Q609.18 1264.49 606.171 1263.57 L606.171 1257.69 Q608.775 1259.11 611.553 1259.81 Q614.331 1260.5 617.427 1260.5 Q622.433 1260.5 625.355 1257.87 Q628.278 1255.23 628.278 1250.72 Q628.278 1246.21 625.355 1243.57 Q622.433 1240.94 617.427 1240.94 Q615.083 1240.94 612.739 1241.46 Q610.425 1241.98 607.994 1243.08 L607.994 1221.38 Z" fill="#000000" fill-rule="nonzero" fill-opacity="1" /><path clip-path="url(#clip010)" d="M644.163 1221.38 L671.941 1221.38 L671.941 1223.87 L656.258 1264.58 L650.152 1264.58 L664.909 1226.3 L644.163 1226.3 L644.163 1221.38 Z" fill="#000000" fill-rule="nonzero" fill-opacity="1" /><path clip-path="url(#clip010)" d="M583.399 1324.46 L603.799 1324.46 L603.799 1329.38 L576.368 1329.38 L576.368 1324.46 Q579.696 1321.02 585.425 1315.23 Q591.183 1309.42 592.659 1307.74 Q595.465 1304.58 596.565 1302.41 Q597.693 1300.21 597.693 1298.1 Q597.693 1294.66 595.263 1292.49 Q592.861 1290.32 588.984 1290.32 Q586.235 1290.32 583.168 1291.27 Q580.13 1292.23 576.657 1294.17 L576.657 1288.26 Q580.188 1286.85 583.255 1286.12 Q586.322 1285.4 588.868 1285.4 Q595.581 1285.4 599.574 1288.76 Q603.567 1292.11 603.567 1297.73 Q603.567 1300.39 602.554 1302.79 Q601.571 1305.16 598.937 1308.4 Q598.214 1309.24 594.337 1313.26 Q590.459 1317.26 583.399 1324.46 Z" fill="#000000" fill-rule="nonzero" fill-opacity="1" /><path clip-path="url(#clip010)" d="M641.009 1284.1 L641.009 1343.36 L636.09 1343.36 L636.09 1284.1 L641.009 1284.1 Z" fill="#000000" fill-rule="nonzero" fill-opacity="1" /><path clip-path="url(#clip010)" d="M689.765 1291.27 L675.008 1314.33 L689.765 1314.33 L689.765 1291.27 M688.231 1286.18 L695.58 1286.18 L695.58 1314.33 L701.744 1314.33 L701.744 1319.2 L695.58 1319.2 L695.58 1329.38 L689.765 1329.38 L689.765 1319.2 L670.262 1319.2 L670.262 1313.55 L688.231 1286.18 Z" fill="#000000" fill-rule="nonzero" fill-opacity="1" /><path clip-path="url(#clip010)" d="M1340.25 981.519 L1363.2 981.519 L1363.2 986.438 L1345.6 986.438 L1345.6 997.028 Q1346.88 996.594 1348.15 996.392 Q1349.42 996.16 1350.7 996.16 Q1357.93 996.16 1362.16 1000.12 Q1366.38 1004.09 1366.38 1010.86 Q1366.38 1017.83 1362.04 1021.71 Q1357.7 1025.56 1349.8 1025.56 Q1347.08 1025.56 1344.24 1025.1 Q1341.44 1024.63 1338.43 1023.71 L1338.43 1017.83 Q1341.03 1019.25 1343.81 1019.94 Q1346.59 1020.64 1349.68 1020.64 Q1354.69 1020.64 1357.61 1018.01 Q1360.54 1015.37 1360.54 1010.86 Q1360.54 1006.35 1357.61 1003.71 Q1354.69 1001.08 1349.68 1001.08 Q1347.34 1001.08 1345 1001.6 Q1342.68 1002.12 1340.25 1003.22 L1340.25 981.519 Z" fill="#000000" fill-rule="nonzero" fill-opacity="1" /><path clip-path="url(#clip010)" d="M1391.12 1000.79 Q1387.18 1000.79 1384.87 1003.48 Q1382.58 1006.17 1382.58 1010.86 Q1382.58 1015.52 1384.87 1018.24 Q1387.18 1020.93 1391.12 1020.93 Q1395.05 1020.93 1397.34 1018.24 Q1399.66 1015.52 1399.66 1010.86 Q1399.66 1006.17 1397.34 1003.48 Q1395.05 1000.79 1391.12 1000.79 M1402.72 982.474 L1402.72 987.798 Q1400.52 986.756 1398.27 986.207 Q1396.04 985.657 1393.84 985.657 Q1388.05 985.657 1384.99 989.563 Q1381.95 993.469 1381.51 1001.37 Q1383.22 998.851 1385.8 997.52 Q1388.37 996.16 1391.47 996.16 Q1397.98 996.16 1401.74 1000.12 Q1405.53 1004.06 1405.53 1010.86 Q1405.53 1017.51 1401.59 1021.54 Q1397.66 1025.56 1391.12 1025.56 Q1383.63 1025.56 1379.66 1019.83 Q1375.7 1014.07 1375.7 1003.16 Q1375.7 992.92 1380.56 986.843 Q1385.42 980.738 1393.61 980.738 Q1395.81 980.738 1398.03 981.172 Q1400.29 981.606 1402.72 982.474 Z" fill="#000000" fill-rule="nonzero" fill-opacity="1" /><path clip-path="url(#clip010)" d="M1329.62 1066.23 Q1333.81 1067.12 1336.16 1069.96 Q1338.53 1072.79 1338.53 1076.96 Q1338.53 1083.36 1334.13 1086.86 Q1329.73 1090.36 1321.63 1090.36 Q1318.91 1090.36 1316.02 1089.81 Q1313.15 1089.29 1310.09 1088.22 L1310.09 1082.57 Q1312.52 1083.99 1315.41 1084.72 Q1318.3 1085.44 1321.46 1085.44 Q1326.96 1085.44 1329.82 1083.27 Q1332.71 1081.1 1332.71 1076.96 Q1332.71 1073.14 1330.02 1071 Q1327.36 1068.83 1322.59 1068.83 L1317.55 1068.83 L1317.55 1064.03 L1322.82 1064.03 Q1327.13 1064.03 1329.42 1062.32 Q1331.7 1060.58 1331.7 1057.34 Q1331.7 1054.02 1329.33 1052.25 Q1326.98 1050.46 1322.59 1050.46 Q1320.19 1050.46 1317.44 1050.98 Q1314.69 1051.5 1311.39 1052.6 L1311.39 1047.39 Q1314.72 1046.46 1317.61 1046 Q1320.53 1045.54 1323.11 1045.54 Q1329.76 1045.54 1333.64 1048.58 Q1337.52 1051.59 1337.52 1056.74 Q1337.52 1060.32 1335.46 1062.81 Q1333.41 1065.27 1329.62 1066.23 Z" fill="#000000" fill-rule="nonzero" fill-opacity="1" /><path clip-path="url(#clip010)" d="M1374.55 1044.24 L1374.55 1103.49 L1369.64 1103.49 L1369.64 1044.24 L1374.55 1044.24 Z" fill="#000000" fill-rule="nonzero" fill-opacity="1" /><path clip-path="url(#clip010)" d="M1424.96 1066.23 Q1429.15 1067.12 1431.5 1069.96 Q1433.87 1072.79 1433.87 1076.96 Q1433.87 1083.36 1429.47 1086.86 Q1425.07 1090.36 1416.97 1090.36 Q1414.25 1090.36 1411.36 1089.81 Q1408.49 1089.29 1405.43 1088.22 L1405.43 1082.57 Q1407.86 1083.99 1410.75 1084.72 Q1413.65 1085.44 1416.8 1085.44 Q1422.3 1085.44 1425.16 1083.27 Q1428.05 1081.1 1428.05 1076.96 Q1428.05 1073.14 1425.36 1071 Q1422.7 1068.83 1417.93 1068.83 L1412.89 1068.83 L1412.89 1064.03 L1418.16 1064.03 Q1422.47 1064.03 1424.76 1062.32 Q1427.04 1060.58 1427.04 1057.34 Q1427.04 1054.02 1424.67 1052.25 Q1422.33 1050.46 1417.93 1050.46 Q1415.53 1050.46 1412.78 1050.98 Q1410.03 1051.5 1406.73 1052.6 L1406.73 1047.39 Q1410.06 1046.46 1412.95 1046 Q1415.87 1045.54 1418.45 1045.54 Q1425.1 1045.54 1428.98 1048.58 Q1432.86 1051.59 1432.86 1056.74 Q1432.86 1060.32 1430.8 1062.81 Q1428.75 1065.27 1424.96 1066.23 Z" fill="#000000" fill-rule="nonzero" fill-opacity="1" /><path clip-path="url(#clip010)" d="M1382.41 966.918 L1391.95 966.918 L1391.95 933.961 L1381.57 936.044 L1381.57 930.72 L1391.9 928.637 L1397.74 928.637 L1397.74 966.918 L1407.29 966.918 L1407.29 971.837 L1382.41 971.837 L1382.41 966.918 Z" fill="#000000" fill-rule="nonzero" fill-opacity="1" /><path clip-path="url(#clip010)" d="M1419.15 928.637 L1442.1 928.637 L1442.1 933.556 L1424.51 933.556 L1424.51 944.146 Q1425.78 943.712 1427.05 943.509 Q1428.33 943.278 1429.6 943.278 Q1436.83 943.278 1441.06 947.242 Q1445.28 951.206 1445.28 957.977 Q1445.28 964.95 1440.94 968.827 Q1436.6 972.676 1428.7 972.676 Q1425.98 972.676 1423.15 972.213 Q1420.34 971.75 1417.33 970.824 L1417.33 964.95 Q1419.94 966.368 1422.71 967.062 Q1425.49 967.757 1428.59 967.757 Q1433.59 967.757 1436.51 965.124 Q1439.44 962.491 1439.44 957.977 Q1439.44 953.463 1436.51 950.83 Q1433.59 948.197 1428.59 948.197 Q1426.24 948.197 1423.9 948.718 Q1421.58 949.238 1419.15 950.338 L1419.15 928.637 Z" fill="#000000" fill-rule="nonzero" fill-opacity="1" /><path clip-path="url(#clip010)" d="M1456.86 928.637 L1479.8 928.637 L1479.8 933.556 L1462.21 933.556 L1462.21 944.146 Q1463.48 943.712 1464.76 943.509 Q1466.03 943.278 1467.3 943.278 Q1474.54 943.278 1478.76 947.242 Q1482.98 951.206 1482.98 957.977 Q1482.98 964.95 1478.64 968.827 Q1474.3 972.676 1466.4 972.676 Q1463.68 972.676 1460.85 972.213 Q1458.04 971.75 1455.03 970.824 L1455.03 964.95 Q1457.64 966.368 1460.42 967.062 Q1463.19 967.757 1466.29 967.757 Q1471.29 967.757 1474.22 965.124 Q1477.14 962.491 1477.14 957.977 Q1477.14 953.463 1474.22 950.83 Q1471.29 948.197 1466.29 948.197 Q1463.95 948.197 1461.6 948.718 Q1459.29 949.238 1456.86 950.338 L1456.86 928.637 Z" fill="#000000" fill-rule="nonzero" fill-opacity="1" /><path clip-path="url(#clip010)" d="M1389.08 998.529 L1374.32 1021.59 L1389.08 1021.59 L1389.08 998.529 M1387.54 993.437 L1394.89 993.437 L1394.89 1021.59 L1401.06 1021.59 L1401.06 1026.45 L1394.89 1026.45 L1394.89 1036.64 L1389.08 1036.64 L1389.08 1026.45 L1369.57 1026.45 L1369.57 1020.81 L1387.54 993.437 Z" fill="#000000" fill-rule="nonzero" fill-opacity="1" /><path clip-path="url(#clip010)" d="M1435.66 991.353 L1435.66 1050.61 L1430.74 1050.61 L1430.74 991.353 L1435.66 991.353 Z" fill="#000000" fill-rule="nonzero" fill-opacity="1" /><path clip-path="url(#clip010)" d="M1486.07 1013.34 Q1490.26 1014.24 1492.61 1017.08 Q1494.98 1019.91 1494.98 1024.08 Q1494.98 1030.47 1490.58 1033.97 Q1486.18 1037.48 1478.08 1037.48 Q1475.36 1037.48 1472.47 1036.93 Q1469.6 1036.41 1466.54 1035.33 L1466.54 1029.69 Q1468.97 1031.11 1471.86 1031.83 Q1474.75 1032.56 1477.91 1032.56 Q1483.4 1032.56 1486.27 1030.39 Q1489.16 1028.22 1489.16 1024.08 Q1489.16 1020.26 1486.47 1018.12 Q1483.81 1015.95 1479.03 1015.95 L1474 1015.95 L1474 1011.14 L1479.27 1011.14 Q1483.58 1011.14 1485.86 1009.44 Q1488.15 1007.7 1488.15 1004.46 Q1488.15 1001.13 1485.78 999.368 Q1483.43 997.574 1479.03 997.574 Q1476.63 997.574 1473.88 998.095 Q1471.14 998.616 1467.84 999.716 L1467.84 994.507 Q1471.16 993.581 1474.06 993.118 Q1476.98 992.655 1479.56 992.655 Q1486.21 992.655 1490.09 995.694 Q1493.97 998.703 1493.97 1003.85 Q1493.97 1007.44 1491.91 1009.93 Q1489.86 1012.39 1486.07 1013.34 Z" fill="#000000" fill-rule="nonzero" fill-opacity="1" /><path clip-path="url(#clip010)" d="M1381.68 708.112 L1391.23 708.112 L1391.23 675.155 L1380.84 677.239 L1380.84 671.915 L1391.17 669.831 L1397.02 669.831 L1397.02 708.112 L1406.57 708.112 L1406.57 713.031 L1381.68 713.031 L1381.68 708.112 Z" fill="#000000" fill-rule="nonzero" fill-opacity="1" /><path clip-path="url(#clip010)" d="M1418.43 669.831 L1441.38 669.831 L1441.38 674.75 L1423.78 674.75 L1423.78 685.34 Q1425.06 684.906 1426.33 684.704 Q1427.6 684.472 1428.88 684.472 Q1436.11 684.472 1440.33 688.437 Q1444.56 692.401 1444.56 699.171 Q1444.56 706.145 1440.22 710.022 Q1435.88 713.87 1427.98 713.87 Q1425.26 713.87 1422.42 713.407 Q1419.62 712.944 1416.61 712.019 L1416.61 706.145 Q1419.21 707.563 1421.99 708.257 Q1424.77 708.951 1427.86 708.951 Q1432.87 708.951 1435.79 706.318 Q1438.71 703.685 1438.71 699.171 Q1438.71 694.658 1435.79 692.024 Q1432.87 689.391 1427.86 689.391 Q1425.52 689.391 1423.18 689.912 Q1420.86 690.433 1418.43 691.533 L1418.43 669.831 Z" fill="#000000" fill-rule="nonzero" fill-opacity="1" /><path clip-path="url(#clip010)" d="M1469.3 689.102 Q1465.36 689.102 1463.05 691.793 Q1460.76 694.484 1460.76 699.171 Q1460.76 703.83 1463.05 706.55 Q1465.36 709.241 1469.3 709.241 Q1473.23 709.241 1475.52 706.55 Q1477.83 703.83 1477.83 699.171 Q1477.83 694.484 1475.52 691.793 Q1473.23 689.102 1469.3 689.102 M1480.9 670.786 L1480.9 676.11 Q1478.7 675.069 1476.45 674.519 Q1474.22 673.969 1472.02 673.969 Q1466.23 673.969 1463.16 677.875 Q1460.13 681.781 1459.69 689.681 Q1461.4 687.163 1463.97 685.832 Q1466.55 684.472 1469.65 684.472 Q1476.16 684.472 1479.92 688.437 Q1483.71 692.372 1483.71 699.171 Q1483.71 705.826 1479.77 709.848 Q1475.84 713.87 1469.3 713.87 Q1461.8 713.87 1457.84 708.141 Q1453.88 702.383 1453.88 691.475 Q1453.88 681.232 1458.74 675.155 Q1463.6 669.05 1471.79 669.05 Q1473.99 669.05 1476.21 669.484 Q1478.47 669.918 1480.9 670.786 Z" fill="#000000" fill-rule="nonzero" fill-opacity="1" /><path clip-path="url(#clip010)" d="M1389.08 739.724 L1374.32 762.785 L1389.08 762.785 L1389.08 739.724 M1387.54 734.631 L1394.89 734.631 L1394.89 762.785 L1401.06 762.785 L1401.06 767.646 L1394.89 767.646 L1394.89 777.831 L1389.08 777.831 L1389.08 767.646 L1369.57 767.646 L1369.57 762.004 L1387.54 734.631 Z" fill="#000000" fill-rule="nonzero" fill-opacity="1" /><path clip-path="url(#clip010)" d="M1435.66 732.548 L1435.66 791.807 L1430.74 791.807 L1430.74 732.548 L1435.66 732.548 Z" fill="#000000" fill-rule="nonzero" fill-opacity="1" /><path clip-path="url(#clip010)" d="M1486.07 754.539 Q1490.26 755.436 1492.61 758.271 Q1494.98 761.107 1494.98 765.273 Q1494.98 771.668 1490.58 775.169 Q1486.18 778.67 1478.08 778.67 Q1475.36 778.67 1472.47 778.121 Q1469.6 777.6 1466.54 776.529 L1466.54 770.887 Q1468.97 772.305 1471.86 773.028 Q1474.75 773.751 1477.91 773.751 Q1483.4 773.751 1486.27 771.581 Q1489.16 769.411 1489.16 765.273 Q1489.16 761.454 1486.47 759.313 Q1483.81 757.143 1479.03 757.143 L1474 757.143 L1474 752.34 L1479.27 752.34 Q1483.58 752.34 1485.86 750.632 Q1488.15 748.896 1488.15 745.656 Q1488.15 742.328 1485.78 740.563 Q1483.43 738.769 1479.03 738.769 Q1476.63 738.769 1473.88 739.29 Q1471.14 739.811 1467.84 740.91 L1467.84 735.702 Q1471.16 734.776 1474.06 734.313 Q1476.98 733.85 1479.56 733.85 Q1486.21 733.85 1490.09 736.888 Q1493.97 739.897 1493.97 745.048 Q1493.97 748.636 1491.91 751.124 Q1489.86 753.584 1486.07 754.539 Z" fill="#000000" fill-rule="nonzero" fill-opacity="1" /><path clip-path="url(#clip010)" d="M1353.07 639.634 Q1348.9 639.634 1346.5 641.862 Q1344.13 644.09 1344.13 647.996 Q1344.13 651.902 1346.5 654.13 Q1348.9 656.358 1353.07 656.358 Q1357.24 656.358 1359.64 654.13 Q1362.04 651.873 1362.04 647.996 Q1362.04 644.09 1359.64 641.862 Q1357.27 639.634 1353.07 639.634 M1347.22 637.145 Q1343.46 636.22 1341.35 633.644 Q1339.27 631.069 1339.27 627.365 Q1339.27 622.186 1342.94 619.177 Q1346.65 616.168 1353.07 616.168 Q1359.52 616.168 1363.2 619.177 Q1366.87 622.186 1366.87 627.365 Q1366.87 631.069 1364.76 633.644 Q1362.68 636.22 1358.94 637.145 Q1363.17 638.129 1365.51 640.994 Q1367.88 643.858 1367.88 647.996 Q1367.88 654.275 1364.04 657.631 Q1360.22 660.988 1353.07 660.988 Q1345.92 660.988 1342.07 657.631 Q1338.26 654.275 1338.26 647.996 Q1338.26 643.858 1340.63 640.994 Q1343 638.129 1347.22 637.145 M1345.08 627.915 Q1345.08 631.272 1347.17 633.152 Q1349.28 635.033 1353.07 635.033 Q1356.83 635.033 1358.94 633.152 Q1361.08 631.272 1361.08 627.915 Q1361.08 624.559 1358.94 622.678 Q1356.83 620.797 1353.07 620.797 Q1349.28 620.797 1347.17 622.678 Q1345.08 624.559 1345.08 627.915 Z" fill="#000000" fill-rule="nonzero" fill-opacity="1" /><path clip-path="url(#clip010)" d="M1390.77 620.797 Q1386.26 620.797 1383.97 625.253 Q1381.72 629.68 1381.72 638.592 Q1381.72 647.475 1383.97 651.931 Q1386.26 656.358 1390.77 656.358 Q1395.31 656.358 1397.57 651.931 Q1399.86 647.475 1399.86 638.592 Q1399.86 629.68 1397.57 625.253 Q1395.31 620.797 1390.77 620.797 M1390.77 616.168 Q1398.03 616.168 1401.85 621.926 Q1405.7 627.655 1405.7 638.592 Q1405.7 649.501 1401.85 655.259 Q1398.03 660.988 1390.77 660.988 Q1383.51 660.988 1379.66 655.259 Q1375.84 649.501 1375.84 638.592 Q1375.84 627.655 1379.66 621.926 Q1383.51 616.168 1390.77 616.168 Z" fill="#000000" fill-rule="nonzero" fill-opacity="1" /><path clip-path="url(#clip010)" d="M1329.62 701.656 Q1333.81 702.553 1336.16 705.389 Q1338.53 708.224 1338.53 712.391 Q1338.53 718.786 1334.13 722.287 Q1329.73 725.788 1321.63 725.788 Q1318.91 725.788 1316.02 725.238 Q1313.15 724.717 1310.09 723.647 L1310.09 718.004 Q1312.52 719.422 1315.41 720.146 Q1318.3 720.869 1321.46 720.869 Q1326.96 720.869 1329.82 718.699 Q1332.71 716.529 1332.71 712.391 Q1332.71 708.572 1330.02 706.43 Q1327.36 704.26 1322.59 704.26 L1317.55 704.26 L1317.55 699.457 L1322.82 699.457 Q1327.13 699.457 1329.42 697.75 Q1331.7 696.014 1331.7 692.773 Q1331.7 689.446 1329.33 687.68 Q1326.98 685.887 1322.59 685.887 Q1320.19 685.887 1317.44 686.407 Q1314.69 686.928 1311.39 688.028 L1311.39 682.819 Q1314.72 681.893 1317.61 681.431 Q1320.53 680.968 1323.11 680.968 Q1329.76 680.968 1333.64 684.006 Q1337.52 687.015 1337.52 692.165 Q1337.52 695.753 1335.46 698.242 Q1333.41 700.701 1329.62 701.656 Z" fill="#000000" fill-rule="nonzero" fill-opacity="1" /><path clip-path="url(#clip010)" d="M1374.55 679.665 L1374.55 738.924 L1369.64 738.924 L1369.64 679.665 L1374.55 679.665 Z" fill="#000000" fill-rule="nonzero" fill-opacity="1" /><path clip-path="url(#clip010)" d="M1424.96 701.656 Q1429.15 702.553 1431.5 705.389 Q1433.87 708.224 1433.87 712.391 Q1433.87 718.786 1429.47 722.287 Q1425.07 725.788 1416.97 725.788 Q1414.25 725.788 1411.36 725.238 Q1408.49 724.717 1405.43 723.647 L1405.43 718.004 Q1407.86 719.422 1410.75 720.146 Q1413.65 720.869 1416.8 720.869 Q1422.3 720.869 1425.16 718.699 Q1428.05 716.529 1428.05 712.391 Q1428.05 708.572 1425.36 706.43 Q1422.7 704.26 1417.93 704.26 L1412.89 704.26 L1412.89 699.457 L1418.16 699.457 Q1422.47 699.457 1424.76 697.75 Q1427.04 696.014 1427.04 692.773 Q1427.04 689.446 1424.67 687.68 Q1422.33 685.887 1417.93 685.887 Q1415.53 685.887 1412.78 686.407 Q1410.03 686.928 1406.73 688.028 L1406.73 682.819 Q1410.06 681.893 1412.95 681.431 Q1415.87 680.968 1418.45 680.968 Q1425.1 680.968 1428.98 684.006 Q1432.86 687.015 1432.86 692.165 Q1432.86 695.753 1430.8 698.242 Q1428.75 700.701 1424.96 701.656 Z" fill="#000000" fill-rule="nonzero" fill-opacity="1" /><path clip-path="url(#clip010)" d="M620.914 399.772 Q616.747 399.772 614.345 402 Q611.973 404.228 611.973 408.135 Q611.973 412.041 614.345 414.269 Q616.747 416.497 620.914 416.497 Q625.08 416.497 627.482 414.269 Q629.883 412.012 629.883 408.135 Q629.883 404.228 627.482 402 Q625.109 399.772 620.914 399.772 M615.069 397.284 Q611.307 396.358 609.195 393.783 Q607.112 391.208 607.112 387.504 Q607.112 382.324 610.786 379.315 Q614.49 376.306 620.914 376.306 Q627.366 376.306 631.041 379.315 Q634.716 382.324 634.716 387.504 Q634.716 391.208 632.603 393.783 Q630.52 396.358 626.787 397.284 Q631.012 398.268 633.356 401.132 Q635.728 403.997 635.728 408.135 Q635.728 414.413 631.88 417.77 Q628.061 421.126 620.914 421.126 Q613.767 421.126 609.918 417.77 Q606.099 414.413 606.099 408.135 Q606.099 403.997 608.472 401.132 Q610.844 398.268 615.069 397.284 M612.928 388.054 Q612.928 391.41 615.011 393.291 Q617.123 395.172 620.914 395.172 Q624.675 395.172 626.787 393.291 Q628.929 391.41 628.929 388.054 Q628.929 384.697 626.787 382.816 Q624.675 380.936 620.914 380.936 Q617.123 380.936 615.011 382.816 Q612.928 384.697 612.928 388.054 Z" fill="#000000" fill-rule="nonzero" fill-opacity="1" /><path clip-path="url(#clip010)" d="M647.129 415.368 L656.677 415.368 L656.677 382.411 L646.29 384.495 L646.29 379.171 L656.619 377.087 L662.464 377.087 L662.464 415.368 L672.013 415.368 L672.013 420.287 L647.129 420.287 L647.129 415.368 Z" fill="#000000" fill-rule="nonzero" fill-opacity="1" /><path clip-path="url(#clip010)" d="M583.399 480.168 L603.799 480.168 L603.799 485.087 L576.368 485.087 L576.368 480.168 Q579.696 476.725 585.425 470.938 Q591.183 465.122 592.659 463.444 Q595.465 460.29 596.565 458.12 Q597.693 455.921 597.693 453.808 Q597.693 450.365 595.263 448.195 Q592.861 446.025 588.984 446.025 Q586.235 446.025 583.168 446.98 Q580.13 447.935 576.657 449.873 L576.657 443.971 Q580.188 442.553 583.255 441.829 Q586.322 441.106 588.868 441.106 Q595.581 441.106 599.574 444.462 Q603.567 447.819 603.567 453.432 Q603.567 456.094 602.554 458.496 Q601.571 460.869 598.937 464.109 Q598.214 464.948 594.337 468.97 Q590.459 472.963 583.399 480.168 Z" fill="#000000" fill-rule="nonzero" fill-opacity="1" /><path clip-path="url(#clip010)" d="M641.009 439.804 L641.009 499.063 L636.09 499.063 L636.09 439.804 L641.009 439.804 Z" fill="#000000" fill-rule="nonzero" fill-opacity="1" /><path clip-path="url(#clip010)" d="M689.765 446.98 L675.008 470.041 L689.765 470.041 L689.765 446.98 M688.231 441.887 L695.58 441.887 L695.58 470.041 L701.744 470.041 L701.744 474.902 L695.58 474.902 L695.58 485.087 L689.765 485.087 L689.765 474.902 L670.262 474.902 L670.262 469.26 L688.231 441.887 Z" fill="#000000" fill-rule="nonzero" fill-opacity="1" /><path clip-path="url(#clip010)" d="M556.986 378.774 Q561.181 379.671 563.525 382.507 Q565.898 385.342 565.898 389.509 Q565.898 395.904 561.5 399.405 Q557.101 402.906 549 402.906 Q546.28 402.906 543.386 402.356 Q540.522 401.835 537.455 400.765 L537.455 395.122 Q539.885 396.54 542.779 397.264 Q545.672 397.987 548.826 397.987 Q554.324 397.987 557.188 395.817 Q560.082 393.647 560.082 389.509 Q560.082 385.69 557.391 383.548 Q554.729 381.378 549.954 381.378 L544.92 381.378 L544.92 376.575 L550.186 376.575 Q554.497 376.575 556.783 374.868 Q559.069 373.132 559.069 369.891 Q559.069 366.563 556.696 364.798 Q554.353 363.004 549.954 363.004 Q547.553 363.004 544.804 363.525 Q542.055 364.046 538.757 365.146 L538.757 359.937 Q542.084 359.011 544.978 358.548 Q547.9 358.086 550.475 358.086 Q557.13 358.086 561.008 361.124 Q564.885 364.133 564.885 369.283 Q564.885 372.871 562.831 375.36 Q560.776 377.819 556.986 378.774 Z" fill="#000000" fill-rule="nonzero" fill-opacity="1" /><path clip-path="url(#clip010)" d="M594.688 378.774 Q598.884 379.671 601.227 382.507 Q603.6 385.342 603.6 389.509 Q603.6 395.904 599.202 399.405 Q594.804 402.906 586.702 402.906 Q583.982 402.906 581.089 402.356 Q578.224 401.835 575.157 400.765 L575.157 395.122 Q577.587 396.54 580.481 397.264 Q583.374 397.987 586.528 397.987 Q592.026 397.987 594.891 395.817 Q597.784 393.647 597.784 389.509 Q597.784 385.69 595.093 383.548 Q592.431 381.378 587.657 381.378 L582.622 381.378 L582.622 376.575 L587.888 376.575 Q592.2 376.575 594.485 374.868 Q596.771 373.132 596.771 369.891 Q596.771 366.563 594.399 364.798 Q592.055 363.004 587.657 363.004 Q585.255 363.004 582.506 363.525 Q579.758 364.046 576.459 365.146 L576.459 359.937 Q579.786 359.011 582.68 358.548 Q585.602 358.086 588.178 358.086 Q594.833 358.086 598.71 361.124 Q602.587 364.133 602.587 369.283 Q602.587 372.871 600.533 375.36 Q598.478 377.819 594.688 378.774 Z" fill="#000000" fill-rule="nonzero" fill-opacity="1" /><path clip-path="url(#clip010)" d="M510.69 461.948 L520.238 461.948 L520.238 428.991 L509.85 431.074 L509.85 425.75 L520.18 423.667 L526.025 423.667 L526.025 461.948 L535.574 461.948 L535.574 466.867 L510.69 466.867 L510.69 461.948 Z" fill="#000000" fill-rule="nonzero" fill-opacity="1" /><path clip-path="url(#clip010)" d="M572.321 421.583 L572.321 480.842 L567.402 480.842 L567.402 421.583 L572.321 421.583 Z" fill="#000000" fill-rule="nonzero" fill-opacity="1" /><path clip-path="url(#clip010)" d="M605.076 423.667 L628.021 423.667 L628.021 428.586 L610.429 428.586 L610.429 439.176 Q611.702 438.742 612.975 438.539 Q614.248 438.308 615.521 438.308 Q622.755 438.308 626.979 442.272 Q631.204 446.236 631.204 453.007 Q631.204 459.98 626.864 463.858 Q622.523 467.706 614.624 467.706 Q611.904 467.706 609.069 467.243 Q606.262 466.78 603.253 465.854 L603.253 459.98 Q605.857 461.398 608.635 462.092 Q611.412 462.787 614.508 462.787 Q619.514 462.787 622.437 460.154 Q625.359 457.521 625.359 453.007 Q625.359 448.493 622.437 445.86 Q619.514 443.227 614.508 443.227 Q612.165 443.227 609.821 443.748 Q607.506 444.269 605.076 445.368 L605.076 423.667 Z" fill="#000000" fill-rule="nonzero" fill-opacity="1" /><path clip-path="url(#clip010)" d="M362.308 1079.88 L369.947 1079.88 L369.947 1053.51 L361.637 1055.18 L361.637 1050.92 L369.9 1049.25 L374.576 1049.25 L374.576 1079.88 L382.215 1079.88 L382.215 1083.81 L362.308 1083.81 L362.308 1079.88 Z" fill="#000000" fill-rule="nonzero" fill-opacity="1" /><path clip-path="url(#clip010)" d="M405.826 1065.18 Q409.183 1065.9 411.058 1068.16 Q412.956 1070.43 412.956 1073.77 Q412.956 1078.88 409.437 1081.68 Q405.919 1084.48 399.437 1084.48 Q397.261 1084.48 394.947 1084.04 Q392.655 1083.63 390.201 1082.77 L390.201 1078.26 Q392.146 1079.39 394.461 1079.97 Q396.775 1080.55 399.298 1080.55 Q403.697 1080.55 405.988 1078.81 Q408.303 1077.08 408.303 1073.77 Q408.303 1070.71 406.15 1069 Q404.021 1067.26 400.201 1067.26 L396.173 1067.26 L396.173 1063.42 L400.386 1063.42 Q403.835 1063.42 405.664 1062.05 Q407.493 1060.66 407.493 1058.07 Q407.493 1055.41 405.595 1054 Q403.72 1052.56 400.201 1052.56 Q398.28 1052.56 396.081 1052.98 Q393.882 1053.4 391.243 1054.28 L391.243 1050.11 Q393.905 1049.37 396.22 1049 Q398.558 1048.63 400.618 1048.63 Q405.942 1048.63 409.044 1051.06 Q412.146 1053.47 412.146 1057.59 Q412.146 1060.46 410.502 1062.45 Q408.859 1064.41 405.826 1065.18 Z" fill="#000000" fill-rule="nonzero" fill-opacity="1" /><path clip-path="url(#clip010)" d="M419.067 1068.93 L431.544 1068.93 L431.544 1072.73 L419.067 1072.73 L419.067 1068.93 Z" fill="#000000" fill-rule="nonzero" fill-opacity="1" /><path clip-path="url(#clip010)" d="M454.807 1079.88 L462.446 1079.88 L462.446 1053.51 L454.136 1055.18 L454.136 1050.92 L462.4 1049.25 L467.076 1049.25 L467.076 1079.88 L474.715 1079.88 L474.715 1083.81 L454.807 1083.81 L454.807 1079.88 Z" fill="#000000" fill-rule="nonzero" fill-opacity="1" /><path clip-path="url(#clip010)" d="M482.979 1049.25 L505.201 1049.25 L505.201 1051.24 L492.654 1083.81 L487.77 1083.81 L499.576 1053.19 L482.979 1053.19 L482.979 1049.25 Z" fill="#000000" fill-rule="nonzero" fill-opacity="1" /><path clip-path="url(#clip010)" d="M511.566 1068.93 L524.043 1068.93 L524.043 1072.73 L511.566 1072.73 L511.566 1068.93 Z" fill="#000000" fill-rule="nonzero" fill-opacity="1" /><path clip-path="url(#clip010)" d="M550.524 1079.88 L566.844 1079.88 L566.844 1083.81 L544.9 1083.81 L544.9 1079.88 Q547.562 1077.12 552.145 1072.49 Q556.751 1067.84 557.932 1066.5 Q560.177 1063.98 561.057 1062.24 Q561.96 1060.48 561.96 1058.79 Q561.96 1056.04 560.015 1054.3 Q558.094 1052.56 554.992 1052.56 Q552.793 1052.56 550.339 1053.33 Q547.909 1054.09 545.131 1055.64 L545.131 1050.92 Q547.955 1049.79 550.409 1049.21 Q552.862 1048.63 554.899 1048.63 Q560.27 1048.63 563.464 1051.31 Q566.659 1054 566.659 1058.49 Q566.659 1060.62 565.848 1062.54 Q565.061 1064.44 562.955 1067.03 Q562.376 1067.7 559.274 1070.92 Q556.173 1074.11 550.524 1079.88 Z" fill="#000000" fill-rule="nonzero" fill-opacity="1" /><path clip-path="url(#clip010)" d="M590.825 1065.18 Q594.182 1065.9 596.057 1068.16 Q597.955 1070.43 597.955 1073.77 Q597.955 1078.88 594.436 1081.68 Q590.918 1084.48 584.436 1084.48 Q582.26 1084.48 579.946 1084.04 Q577.654 1083.63 575.2 1082.77 L575.2 1078.26 Q577.145 1079.39 579.46 1079.97 Q581.774 1080.55 584.297 1080.55 Q588.696 1080.55 590.987 1078.81 Q593.302 1077.08 593.302 1073.77 Q593.302 1070.71 591.149 1069 Q589.02 1067.26 585.2 1067.26 L581.172 1067.26 L581.172 1063.42 L585.385 1063.42 Q588.834 1063.42 590.663 1062.05 Q592.492 1060.66 592.492 1058.07 Q592.492 1055.41 590.594 1054 Q588.719 1052.56 585.2 1052.56 Q583.279 1052.56 581.08 1052.98 Q578.881 1053.4 576.242 1054.28 L576.242 1050.11 Q578.904 1049.37 581.219 1049 Q583.557 1048.63 585.617 1048.63 Q590.941 1048.63 594.043 1051.06 Q597.145 1053.47 597.145 1057.59 Q597.145 1060.46 595.501 1062.45 Q593.858 1064.41 590.825 1065.18 Z" fill="#000000" fill-rule="nonzero" fill-opacity="1" /><path clip-path="url(#clip010)" d="M604.066 1068.93 L616.543 1068.93 L616.543 1072.73 L604.066 1072.73 L604.066 1068.93 Z" fill="#000000" fill-rule="nonzero" fill-opacity="1" /><path clip-path="url(#clip010)" d="M718.061 1254.26 L706.256 1272.71 L718.061 1272.71 L718.061 1254.26 M716.834 1250.19 L722.714 1250.19 L722.714 1272.71 L727.644 1272.71 L727.644 1276.6 L722.714 1276.6 L722.714 1284.75 L718.061 1284.75 L718.061 1276.6 L702.459 1276.6 L702.459 1272.09 L716.834 1250.19 Z" fill="#000000" fill-rule="nonzero" fill-opacity="1" /><path clip-path="url(#clip010)" d="M732.621 1269.86 L745.098 1269.86 L745.098 1273.66 L732.621 1273.66 L732.621 1269.86 Z" fill="#000000" fill-rule="nonzero" fill-opacity="1" /><path clip-path="url(#clip010)" d="M960.324 1156.65 L967.962 1156.65 L967.962 1130.29 L959.652 1131.96 L959.652 1127.7 L967.916 1126.03 L972.592 1126.03 L972.592 1156.65 L980.231 1156.65 L980.231 1160.59 L960.324 1160.59 L960.324 1156.65 Z" fill="#000000" fill-rule="nonzero" fill-opacity="1" /><path clip-path="url(#clip010)" d="M993.703 1156.65 L1010.02 1156.65 L1010.02 1160.59 L988.078 1160.59 L988.078 1156.65 Q990.74 1153.9 995.323 1149.27 Q999.93 1144.62 1001.11 1143.28 Q1003.36 1140.75 1004.24 1139.02 Q1005.14 1137.26 1005.14 1135.57 Q1005.14 1132.81 1003.19 1131.08 Q1001.27 1129.34 998.171 1129.34 Q995.972 1129.34 993.518 1130.1 Q991.087 1130.87 988.31 1132.42 L988.31 1127.7 Q991.134 1126.56 993.587 1125.98 Q996.041 1125.4 998.078 1125.4 Q1003.45 1125.4 1006.64 1128.09 Q1009.84 1130.78 1009.84 1135.27 Q1009.84 1137.4 1009.03 1139.32 Q1008.24 1141.22 1006.13 1143.81 Q1005.55 1144.48 1002.45 1147.7 Q999.351 1150.89 993.703 1156.65 Z" fill="#000000" fill-rule="nonzero" fill-opacity="1" /><path clip-path="url(#clip010)" d="M1036.57 1130.87 L1036.57 1143.76 L1049.47 1143.76 L1049.47 1147.7 L1036.57 1147.7 L1036.57 1160.59 L1032.68 1160.59 L1032.68 1147.7 L1019.79 1147.7 L1019.79 1143.76 L1032.68 1143.76 L1032.68 1130.87 L1036.57 1130.87 Z" fill="#000000" fill-rule="nonzero" fill-opacity="1" /><path clip-path="url(#clip010)" d="M1262.77 1006.78 Q1259.43 1006.78 1257.51 1008.56 Q1255.62 1010.35 1255.62 1013.47 Q1255.62 1016.6 1257.51 1018.38 Q1259.43 1020.16 1262.77 1020.16 Q1266.1 1020.16 1268.02 1018.38 Q1269.94 1016.57 1269.94 1013.47 Q1269.94 1010.35 1268.02 1008.56 Q1266.12 1006.78 1262.77 1006.78 M1258.09 1004.79 Q1255.08 1004.05 1253.39 1001.99 Q1251.73 999.929 1251.73 996.966 Q1251.73 992.823 1254.67 990.416 Q1257.63 988.008 1262.77 988.008 Q1267.93 988.008 1270.87 990.416 Q1273.81 992.823 1273.81 996.966 Q1273.81 999.929 1272.12 1001.99 Q1270.45 1004.05 1267.47 1004.79 Q1270.85 1005.58 1272.72 1007.87 Q1274.62 1010.16 1274.62 1013.47 Q1274.62 1018.49 1271.54 1021.18 Q1268.49 1023.86 1262.77 1023.86 Q1257.05 1023.86 1253.97 1021.18 Q1250.92 1018.49 1250.92 1013.47 Q1250.92 1010.16 1252.81 1007.87 Q1254.71 1005.58 1258.09 1004.79 M1256.38 997.406 Q1256.38 1000.09 1258.05 1001.6 Q1259.74 1003.1 1262.77 1003.1 Q1265.78 1003.1 1267.47 1001.6 Q1269.18 1000.09 1269.18 997.406 Q1269.18 994.721 1267.47 993.216 Q1265.78 991.712 1262.77 991.712 Q1259.74 991.712 1258.05 993.216 Q1256.38 994.721 1256.38 997.406 Z" fill="#000000" fill-rule="nonzero" fill-opacity="1" /><path clip-path="url(#clip010)" d="M1299.67 993.471 L1299.67 1006.36 L1312.56 1006.36 L1312.56 1010.3 L1299.67 1010.3 L1299.67 1023.19 L1295.78 1023.19 L1295.78 1010.3 L1282.88 1010.3 L1282.88 1006.36 L1295.78 1006.36 L1295.78 993.471 L1299.67 993.471 Z" fill="#000000" fill-rule="nonzero" fill-opacity="1" /><path clip-path="url(#clip010)" d="M1283.15 869.796 L1283.15 865.537 Q1284.91 866.371 1286.71 866.81 Q1288.52 867.25 1290.25 867.25 Q1294.88 867.25 1297.31 864.148 Q1299.77 861.023 1300.11 854.681 Q1298.77 856.671 1296.71 857.736 Q1294.65 858.801 1292.15 858.801 Q1286.97 858.801 1283.93 855.676 Q1280.92 852.528 1280.92 847.088 Q1280.92 841.764 1284.07 838.547 Q1287.22 835.329 1292.45 835.329 Q1298.45 835.329 1301.59 839.935 Q1304.77 844.519 1304.77 853.269 Q1304.77 861.44 1300.88 866.324 Q1297.01 871.185 1290.46 871.185 Q1288.7 871.185 1286.9 870.838 Q1285.09 870.491 1283.15 869.796 M1292.45 855.144 Q1295.6 855.144 1297.43 852.991 Q1299.28 850.838 1299.28 847.088 Q1299.28 843.361 1297.43 841.209 Q1295.6 839.033 1292.45 839.033 Q1289.3 839.033 1287.45 841.209 Q1285.62 843.361 1285.62 847.088 Q1285.62 850.838 1287.45 852.991 Q1289.3 855.144 1292.45 855.144 Z" fill="#000000" fill-rule="nonzero" fill-opacity="1" /><path clip-path="url(#clip010)" d="M1329.9 840.792 L1329.9 853.685 L1342.8 853.685 L1342.8 857.621 L1329.9 857.621 L1329.9 870.514 L1326.02 870.514 L1326.02 857.621 L1313.12 857.621 L1313.12 853.685 L1326.02 853.685 L1326.02 840.792 L1329.9 840.792 Z" fill="#000000" fill-rule="nonzero" fill-opacity="1" /><path clip-path="url(#clip010)" d="M1251.25 683.275 L1273.47 683.275 L1273.47 685.266 L1260.93 717.835 L1256.04 717.835 L1267.85 687.21 L1251.25 687.21 L1251.25 683.275 Z" fill="#000000" fill-rule="nonzero" fill-opacity="1" /><path clip-path="url(#clip010)" d="M1299.33 688.113 L1299.33 701.006 L1312.22 701.006 L1312.22 704.941 L1299.33 704.941 L1299.33 717.835 L1295.44 717.835 L1295.44 704.941 L1282.55 704.941 L1282.55 701.006 L1295.44 701.006 L1295.44 688.113 L1299.33 688.113 Z" fill="#000000" fill-rule="nonzero" fill-opacity="1" /><path clip-path="url(#clip010)" d="M960.324 576.503 L967.962 576.503 L967.962 550.137 L959.652 551.804 L959.652 547.545 L967.916 545.878 L972.592 545.878 L972.592 576.503 L980.231 576.503 L980.231 580.438 L960.324 580.438 L960.324 576.503 Z" fill="#000000" fill-rule="nonzero" fill-opacity="1" /><path clip-path="url(#clip010)" d="M990.485 576.503 L998.124 576.503 L998.124 550.137 L989.814 551.804 L989.814 547.545 L998.078 545.878 L1002.75 545.878 L1002.75 576.503 L1010.39 576.503 L1010.39 580.438 L990.485 580.438 L990.485 576.503 Z" fill="#000000" fill-rule="nonzero" fill-opacity="1" /><path clip-path="url(#clip010)" d="M1036.57 550.716 L1036.57 563.609 L1049.47 563.609 L1049.47 567.545 L1036.57 567.545 L1036.57 580.438 L1032.68 580.438 L1032.68 567.545 L1019.79 567.545 L1019.79 563.609 L1032.68 563.609 L1032.68 550.716 L1036.57 550.716 Z" fill="#000000" fill-rule="nonzero" fill-opacity="1" /><path clip-path="url(#clip010)" d="M708.107 425.794 L696.302 444.243 L708.107 444.243 L708.107 425.794 M706.881 421.72 L712.76 421.72 L712.76 444.243 L717.691 444.243 L717.691 448.132 L712.76 448.132 L712.76 456.28 L708.107 456.28 L708.107 448.132 L692.506 448.132 L692.506 443.618 L706.881 421.72 Z" fill="#000000" fill-rule="nonzero" fill-opacity="1" /><path clip-path="url(#clip010)" d="M742.158 426.558 L742.158 439.451 L755.052 439.451 L755.052 443.386 L742.158 443.386 L742.158 456.28 L738.269 456.28 L738.269 443.386 L725.376 443.386 L725.376 439.451 L738.269 439.451 L738.269 426.558 L742.158 426.558 Z" fill="#000000" fill-rule="nonzero" fill-opacity="1" /><path clip-path="url(#clip010)" d="M329.739 653.28 L337.377 653.28 L337.377 626.914 L329.067 628.581 L329.067 624.322 L337.331 622.655 L342.007 622.655 L342.007 653.28 L349.646 653.28 L349.646 657.215 L329.739 657.215 L329.739 653.28 Z" fill="#000000" fill-rule="nonzero" fill-opacity="1" /><path clip-path="url(#clip010)" d="M373.257 638.581 Q376.613 639.299 378.488 641.567 Q380.387 643.836 380.387 647.169 Q380.387 652.285 376.868 655.085 Q373.35 657.886 366.868 657.886 Q364.692 657.886 362.377 657.447 Q360.086 657.03 357.632 656.173 L357.632 651.66 Q359.576 652.794 361.891 653.373 Q364.206 653.951 366.729 653.951 Q371.127 653.951 373.419 652.215 Q375.734 650.479 375.734 647.169 Q375.734 644.113 373.581 642.4 Q371.451 640.664 367.632 640.664 L363.604 640.664 L363.604 636.822 L367.817 636.822 Q371.266 636.822 373.095 635.456 Q374.924 634.067 374.924 631.474 Q374.924 628.812 373.025 627.4 Q371.15 625.965 367.632 625.965 Q365.711 625.965 363.512 626.382 Q361.313 626.799 358.674 627.678 L358.674 623.512 Q361.336 622.771 363.65 622.4 Q365.988 622.03 368.049 622.03 Q373.373 622.03 376.474 624.461 Q379.576 626.868 379.576 630.988 Q379.576 633.859 377.933 635.849 Q376.289 637.817 373.257 638.581 Z" fill="#000000" fill-rule="nonzero" fill-opacity="1" /><path clip-path="url(#clip010)" d="M405.988 627.493 L405.988 640.386 L418.882 640.386 L418.882 644.322 L405.988 644.322 L405.988 657.215 L402.099 657.215 L402.099 644.322 L389.206 644.322 L389.206 640.386 L402.099 640.386 L402.099 627.493 L405.988 627.493 Z" fill="#000000" fill-rule="nonzero" fill-opacity="1" /><path clip-path="url(#clip010)" d="M444.854 653.28 L452.493 653.28 L452.493 626.914 L444.182 628.581 L444.182 624.322 L452.446 622.655 L457.122 622.655 L457.122 653.28 L464.761 653.28 L464.761 657.215 L444.854 657.215 L444.854 653.28 Z" fill="#000000" fill-rule="nonzero" fill-opacity="1" /><path clip-path="url(#clip010)" d="M473.025 622.655 L495.247 622.655 L495.247 624.646 L482.701 657.215 L477.817 657.215 L489.622 626.59 L473.025 626.59 L473.025 622.655 Z" fill="#000000" fill-rule="nonzero" fill-opacity="1" /><path clip-path="url(#clip010)" d="M521.103 627.493 L521.103 640.386 L533.997 640.386 L533.997 644.322 L521.103 644.322 L521.103 657.215 L517.214 657.215 L517.214 644.322 L504.321 644.322 L504.321 640.386 L517.214 640.386 L517.214 627.493 L521.103 627.493 Z" fill="#000000" fill-rule="nonzero" fill-opacity="1" /><path clip-path="url(#clip010)" d="M563.186 653.28 L579.506 653.28 L579.506 657.215 L557.561 657.215 L557.561 653.28 Q560.224 650.525 564.807 645.896 Q569.413 641.243 570.594 639.9 Q572.839 637.377 573.719 635.641 Q574.622 633.882 574.622 632.192 Q574.622 629.437 572.677 627.701 Q570.756 625.965 567.654 625.965 Q565.455 625.965 563.001 626.729 Q560.571 627.493 557.793 629.044 L557.793 624.322 Q560.617 623.187 563.071 622.609 Q565.524 622.03 567.561 622.03 Q572.932 622.03 576.126 624.715 Q579.321 627.4 579.321 631.891 Q579.321 634.021 578.51 635.942 Q577.723 637.84 575.617 640.433 Q575.038 641.104 571.936 644.322 Q568.835 647.516 563.186 653.28 Z" fill="#000000" fill-rule="nonzero" fill-opacity="1" /><path clip-path="url(#clip010)" d="M603.487 638.581 Q606.844 639.299 608.719 641.567 Q610.617 643.836 610.617 647.169 Q610.617 652.285 607.098 655.085 Q603.58 657.886 597.098 657.886 Q594.922 657.886 592.608 657.447 Q590.316 657.03 587.862 656.173 L587.862 651.66 Q589.807 652.794 592.121 653.373 Q594.436 653.951 596.959 653.951 Q601.358 653.951 603.649 652.215 Q605.964 650.479 605.964 647.169 Q605.964 644.113 603.811 642.4 Q601.682 640.664 597.862 640.664 L593.834 640.664 L593.834 636.822 L598.047 636.822 Q601.496 636.822 603.325 635.456 Q605.154 634.067 605.154 631.474 Q605.154 628.812 603.256 627.4 Q601.381 625.965 597.862 625.965 Q595.941 625.965 593.742 626.382 Q591.543 626.799 588.904 627.678 L588.904 623.512 Q591.566 622.771 593.881 622.4 Q596.219 622.03 598.279 622.03 Q603.603 622.03 606.705 624.461 Q609.807 626.868 609.807 630.988 Q609.807 633.859 608.163 635.849 Q606.52 637.817 603.487 638.581 Z" fill="#000000" fill-rule="nonzero" fill-opacity="1" /><path clip-path="url(#clip010)" d="M636.218 627.493 L636.218 640.386 L649.112 640.386 L649.112 644.322 L636.218 644.322 L636.218 657.215 L632.33 657.215 L632.33 644.322 L619.436 644.322 L619.436 640.386 L632.33 640.386 L632.33 627.493 L636.218 627.493 Z" fill="#000000" fill-rule="nonzero" fill-opacity="1" /><path clip-path="url(#clip010)" d="M730.545 869.915 L740.094 869.915 L740.094 836.958 L729.706 839.041 L729.706 833.717 L740.036 831.634 L745.881 831.634 L745.881 869.915 L755.43 869.915 L755.43 874.834 L730.545 874.834 L730.545 869.915 Z" fill="#4682b4" fill-rule="nonzero" fill-opacity="1" /><path clip-path="url(#clip010)" d="M767.293 831.634 L790.238 831.634 L790.238 836.553 L772.646 836.553 L772.646 847.143 Q773.919 846.709 775.192 846.507 Q776.465 846.275 777.739 846.275 Q784.972 846.275 789.197 850.239 Q793.421 854.203 793.421 860.974 Q793.421 867.947 789.081 871.825 Q784.741 875.673 776.842 875.673 Q774.122 875.673 771.286 875.21 Q768.479 874.747 765.47 873.821 L765.47 867.947 Q768.074 869.365 770.852 870.06 Q773.63 870.754 776.726 870.754 Q781.732 870.754 784.654 868.121 Q787.576 865.488 787.576 860.974 Q787.576 856.46 784.654 853.827 Q781.732 851.194 776.726 851.194 Q774.382 851.194 772.038 851.715 Q769.724 852.236 767.293 853.335 L767.293 831.634 Z" fill="#4682b4" fill-rule="nonzero" fill-opacity="1" /><path clip-path="url(#clip010)" d="M825.857 837.681 L825.857 853.798 L841.974 853.798 L841.974 858.717 L825.857 858.717 L825.857 874.834 L820.996 874.834 L820.996 858.717 L804.88 858.717 L804.88 853.798 L820.996 853.798 L820.996 837.681 L825.857 837.681 Z" fill="#4682b4" fill-rule="nonzero" fill-opacity="1" /><path clip-path="url(#clip010)" d="M874.439 869.915 L883.988 869.915 L883.988 836.958 L873.6 839.041 L873.6 833.717 L883.93 831.634 L889.775 831.634 L889.775 869.915 L899.324 869.915 L899.324 874.834 L874.439 874.834 L874.439 869.915 Z" fill="#4682b4" fill-rule="nonzero" fill-opacity="1" /><path clip-path="url(#clip010)" d="M911.303 873.937 L911.303 868.613 Q913.502 869.655 915.759 870.204 Q918.016 870.754 920.186 870.754 Q925.973 870.754 929.011 866.877 Q932.078 862.971 932.512 855.042 Q930.834 857.531 928.259 858.862 Q925.683 860.193 922.558 860.193 Q916.077 860.193 912.286 856.287 Q908.525 852.351 908.525 845.552 Q908.525 838.897 912.46 834.875 Q916.395 830.853 922.934 830.853 Q930.429 830.853 934.364 836.611 Q938.328 842.34 938.328 853.277 Q938.328 863.491 933.467 869.597 Q928.635 875.673 920.446 875.673 Q918.247 875.673 915.99 875.239 Q913.733 874.805 911.303 873.937 M922.934 855.621 Q926.87 855.621 929.156 852.93 Q931.47 850.239 931.47 845.552 Q931.47 840.893 929.156 838.202 Q926.87 835.482 922.934 835.482 Q918.999 835.482 916.685 838.202 Q914.399 840.893 914.399 845.552 Q914.399 850.239 916.685 852.93 Q918.999 855.621 922.934 855.621 Z" fill="#4682b4" fill-rule="nonzero" fill-opacity="1" /><path clip-path="url(#clip010)" d="M969.751 837.681 L969.751 853.798 L985.868 853.798 L985.868 858.717 L969.751 858.717 L969.751 874.834 L964.89 874.834 L964.89 858.717 L948.773 858.717 L948.773 853.798 L964.89 853.798 L964.89 837.681 L969.751 837.681 Z" fill="#4682b4" fill-rule="nonzero" fill-opacity="1" /><path clip-path="url(#clip010)" d="M1022.36 869.915 L1042.75 869.915 L1042.75 874.834 L1015.32 874.834 L1015.32 869.915 Q1018.65 866.472 1024.38 860.685 Q1030.14 854.869 1031.61 853.191 Q1034.42 850.037 1035.52 847.867 Q1036.65 845.668 1036.65 843.555 Q1036.65 840.112 1034.22 837.942 Q1031.82 835.772 1027.94 835.772 Q1025.19 835.772 1022.12 836.727 Q1019.09 837.681 1015.61 839.62 L1015.61 833.717 Q1019.14 832.3 1022.21 831.576 Q1025.28 830.853 1027.82 830.853 Q1034.54 830.853 1038.53 834.209 Q1042.52 837.566 1042.52 843.179 Q1042.52 845.841 1041.51 848.243 Q1040.53 850.615 1037.89 853.856 Q1037.17 854.695 1033.29 858.717 Q1029.42 862.71 1022.36 869.915 Z" fill="#4682b4" fill-rule="nonzero" fill-opacity="1" /><path clip-path="url(#clip010)" d="M1056.04 869.915 L1065.58 869.915 L1065.58 836.958 L1055.2 839.041 L1055.2 833.717 L1065.53 831.634 L1071.37 831.634 L1071.37 869.915 L1080.92 869.915 L1080.92 874.834 L1056.04 874.834 L1056.04 869.915 Z" fill="#4682b4" fill-rule="nonzero" fill-opacity="1" /><path clip-path="url(#clip010)" d="M1113.65 837.681 L1113.65 853.798 L1129.76 853.798 L1129.76 858.717 L1113.65 858.717 L1113.65 874.834 L1108.78 874.834 L1108.78 858.717 L1092.67 858.717 L1092.67 853.798 L1108.78 853.798 L1108.78 837.681 L1113.65 837.681 Z" fill="#4682b4" fill-rule="nonzero" fill-opacity="1" /></svg>
